{
.appVersion = "3141";
.formatVersion = 3;
customParameters = (
{
name = vendorID;
value = MONO;
},
{
name = panose;
value = (
2,
2,
6,
0,
6,
5,
0,
2,
2,
0
);
},
{
name = unicodeRanges;
value = (
0,
1,
2,
3,
4,
5,
6,
7,
9,
29,
30,
31,
32,
33,
34,
35,
36,
37,
38,
39,
43,
44,
45,
46,
60,
62,
64,
67,
69
);
},
{
name = codePageRanges;
value = (
"1252"
);
}
);
date = "2020-10-31 04:20:23 +0000";
familyName = "Khmer OS";
featurePrefixes = (
{
code = "lookup SUB_0 {
	sub uni17B7 by uni17B7.r;
	sub uni17B8 by uni17B8.r;
	sub uni17B9 by uni17B9.r;
	sub uni17BA by uni17BA.r;
	sub uni17BE by uni17B8.r;
	sub uni17C6 by uni17C6.r;
	sub uni17C9 by uni17C9.r;
	sub uni17CD by uni17CD.r;
	sub uni17B7_17CD by iMark_17CDkhmer.r;
} SUB_0;
lookup SUB_1 {
	sub uni17B7 by uni17B7.a;
	sub uni17B8 by uni17B8.a;
	sub uni17B9 by uni17B9.a;
	sub uni17BA by uni17BA.a;
	sub uni17BE by uni17B8.a;
	sub uni17C6 by uni17C6.a;
	sub uni17CE by uni17CE.a;
	sub uni17D0 by uni17D0.a;
} SUB_1;
lookup SUB_10 {
	sub uni17C9 uni17B6 by uni17C9;
	sub uni17C9 uni17C4 by uni17C9;
	sub uni17C9 uni17C5 by uni17C9;
	sub uni17CA uni17B6 by uni17CA;
	sub uni17CA uni17C4 by uni17CA;
	sub uni17CA uni17C5 by uni17CA;
	sub uni17CC uni17B6 by uni17CC;
	sub uni17CC uni17C4 by uni17CC;
	sub uni17CC uni17C5 by uni17CC;
	sub uni17C9.r uni17B6 by uni17C9.r;
	sub uni17C9.r uni17C4 by uni17C9.r;
	sub uni17C9.r uni17C5 by uni17C9.r;
} SUB_10;
lookup SUB_11 {
	sub uni17D2_178A by coeng_178Akhmer.r;
	sub uni17D2_178F by coeng_178Akhmer.r;
	sub uni17D2_1797 by coeng_1797khmer.r;
	sub uni17D2_1798 by coeng_1798khmer.r;
} SUB_11;
lookup SUB_12 {
	sub uni17BB by uni17BB.b;
	sub uni17BC by uni17BC.b;
	sub uni17BD by uni17BD.b;
} SUB_12;
lookup SUB_13 {
	sub uni17BF by uni17BF.b;
	sub uni17C0 by uni17C0.b;
} SUB_13;
lookup SUB_14 {
	sub uni17CA by uni17BB;
} SUB_14;
lookup SUB_15 {
	sub uni17C9 by uni17BB;
	sub uni17C9.r by uni17BB;
} SUB_15;
lookup SUB_16 {
	sub uni1789 by uni1789.a;
} SUB_16;
lookup SUB_17 {

glyphs = (
{
glyphname = A;
layers = (
{
layerId = m01;
shapes = (
{
closed = 1;
nodes = (
(500,393,l),
(1012,393,l),
(1076,193,l),
(975,175,l),
(975,0,l),
(1471,0,l),
(1471,175,l),
(1367,190,l),
(907,1456,l),
(608,1456,l),
(145,190,l),
(41,175,l),
(41,0,l),
(537,0,l),
(537,175,l),
(436,193,l)
);
},
{
closed = 1;
nodes = (
(773,1107,l),
(943,608,l),
(569,608,l),
(738,1104,l),
(753,1151,l),
(759,1151,l)
);
}
);
userData = {
assembly = "NPUSHB[ ]	/* 43 values pushed */
21 1 4 1 15 12 11 8 3 0 6 0 3 2 76 0 4 0 3 0 4 3 104 0 1 1 31 77 2 1 0 0 32 0 78 20 19 19 19 17 5 8 27 
CALL[ ]	/* CallFunction */";
};
width = 1512;
}
);
note = A;
unicode = 65;
},
{
glyphname = B;
layers = (
{
layerId = m01;
shapes = (
{
closed = 1;
nodes = (
(1301,215,o),
(1301,424,qs),
(1301,505,o),
(1243,642,o),
(1126,738,o),
(1039,757,q),
(1141,797,o),
(1248,956,o),
(1248,1057,qs),
(1248,1256,o),
(960,1456,o),
(703,1456,qs),
(56,1456,l),
(56,1280,l),
(211,1250,l),
(211,205,l),
(56,175,l),
(56,0,l),
(772,0,ls),
(1025,0,o)
);
},
{
closed = 1;
nodes = (
(869,644,o),
(964,594,o),
(1010,496,o),
(1010,424,qs),
(1010,325,o),
(888,224,o),
(772,224,qs),
(503,224,l),
(503,644,l),
(794,644,ls)
);
},
{
closed = 1;
nodes = (
(829,1231,o),
(956,1135,o),
(956,1034,qs),
(956,942,o),
(830,846,o),
(713,846,qs),
(503,846,l),
(503,1231,l),
(703,1231,ls)
);
}
);
width = 1344;
}
);
note = B;
unicode = 66;
},
{
glyphname = C;
layers = (
{
layerId = m01;
shapes = (
{
closed = 1;
nodes = (
(1158,56,o),
(1243,112,q),
(1243,460,l),
(1026,460,l),
(996,255,l),
(944,232,o),
(817,203,o),
(754,203,qs),
(628,203,o),
(444,326,o),
(344,550,o),
(344,703,qs),
(344,754,ls),
(344,907,o),
(439,1130,o),
(617,1252,o),
(741,1252,qs),
(794,1252,o),
(885,1234,o),
(963,1200,o),
(996,1176,q),
(1026,955,l),
(1243,955,l),
(1243,1307,l),
(1141,1393,o),
(882,1477,o),
(734,1477,qs),
(523,1477,o),
(217,1291,o),
(52,964,o),
(52,752,qs),
(52,703,ls),
(52,481,o),
(223,156,o),
(537,-21,o),
(749,-21,qs),
(904,-21,o)
);
}
);
userData = {
assembly = "NPUSHB[ ]	/* 66 values pushed */
12 1 3 1 34 1 0 4 2 76 0 2 3 5 3 2 5 128 0 5 4 3 5 4 126 0 3 3 1 97 0 1 1 37 77 0 4 4 0 97 6 1 0 0 38 0 78 1 0 33 32 29 27 20 18 14 13 10 8 0 36 1 36 7 8 22 
CALL[ ]	/* CallFunction */";
};
width = 1321;
}
);
note = C;
unicode = 67;
},
{
glyphname = D;
layers = (
{
layerId = m01;
shapes = (
{
closed = 1;
nodes = (
(1190,184,o),
(1355,507,o),
(1355,714,qs),
(1355,741,ls),
(1355,950,o),
(1188,1273,o),
(890,1456,o),
(695,1456,qs),
(56,1456,l),
(56,1280,l),
(213,1246,l),
(213,208,l),
(56,175,l),
(56,0,l),
(699,0,ls),
(894,0,o)
);
},
{
closed = 1;
nodes = (
(805,1232,o),
(973,1107,o),
(1062,886,o),
(1062,742,qs),
(1062,714,ls),
(1062,572,o),
(973,350,o),
(805,223,o),
(684,223,qs),
(505,223,l),
(505,1232,l),
(684,1232,ls)
);
}
);
width = 1426;
}
);
note = D;
unicode = 68;
},
{
glyphname = E;
layers = (
{
layerId = m01;
shapes = (
{
closed = 1;
nodes = (
(973,224,l),
(503,224,l),
(503,640,l),
(996,640,l),
(996,865,l),
(503,865,l),
(503,1231,l),
(949,1231,l),
(962,1063,l),
(1186,1063,l),
(1186,1456,l),
(56,1456,l),
(56,1280,l),
(211,1250,l),
(211,205,l),
(56,175,l),
(56,0,l),
(1208,0,l),
(1208,398,l),
(986,398,l)
);
}
);
userData = {
assembly = "NPUSHB[ ]	/* 12 values pushed */
6 5 2 3 1 4 3 2 0 6 2 76 
MPPEM[ ]	/* MeasurePixelPerEm */
PUSHB[ ]	/* 1 value pushed */
14 
LT[ ]	/* LessThan */
IF[ ]	/* If */
NPUSHB[ ]	/* 44 values pushed */
0 2 3 4 3 2 114 8 1 7 5 6 6 7 114 0 4 0 5 7 4 5 103 0 3 3 1 95 0 1 1 31 77 0 6 6 0 96 0 0 0 32 0 78 
ELSE[ ]	/* Else */
MPPEM[ ]	/* MeasurePixelPerEm */
PUSHB[ ]	/* 1 value pushed */
16 
LT[ ]	/* LessThan */
IF[ ]	/* If */
NPUSHB[ ]	/* 45 values pushed */
0 2 3 4 3 2 114 8 1 7 5 6 5 7 6 128 0 4 0 5 7 4 5 103 0 3 3 1 95 0 1 1 31 77 0 6 6 0 96 0 0 0 32 0 78 
ELSE[ ]	/* Else */
NPUSHB[ ]	/* 46 values pushed */
0 2 3 4 3 2 4 128 8 1 7 5 6 5 7 6 128 0 4 0 5 7 4 5 103 0 3 3 1 95 0 1 1 31 77 0 6 6 0 96 0 0 0 32 0 78 
EIF[ ]	/* EndIf */
EIF[ ]	/* EndIf */
NPUSHB[ ]	/* 16 values pushed */
0 0 0 19 0 19 17 17 17 17 17 21 17 9 8 29 
CALL[ ]	/* CallFunction */";
};
width = 1308;
}
);
note = E;
unicode = 69;
},
{
glyphname = F;
layers = (
{
layerId = m01;
shapes = (
{
closed = 1;
nodes = (
(503,605,l),
(1013,605,l),
(1013,830,l),
(503,830,l),
(503,1231,l),
(978,1231,l),
(991,1057,l),
(1215,1057,l),
(1215,1456,l),
(56,1456,l),
(56,1280,l),
(211,1250,l),
(211,205,l),
(56,175,l),
(56,0,l),
(659,0,l),
(659,175,l),
(503,205,l)
);
}
);
userData = {
assembly = "NPUSHB[ ]	/* 14 values pushed */
6 5 2 3 1 17 4 3 0 4 0 5 2 76 
MPPEM[ ]	/* MeasurePixelPerEm */
PUSHB[ ]	/* 1 value pushed */
14 
LT[ ]	/* LessThan */
IF[ ]	/* If */
NPUSHB[ ]	/* 31 values pushed */
0 2 3 4 3 2 114 0 4 0 5 0 4 5 103 0 3 3 1 95 0 1 1 31 77 0 0 0 32 0 78 
ELSE[ ]	/* Else */
NPUSHB[ ]	/* 32 values pushed */
0 2 3 4 3 2 4 128 0 4 0 5 0 4 5 103 0 3 3 1 95 0 1 1 31 77 0 0 0 32 0 78 
EIF[ ]	/* EndIf */
NPUSHB[ ]	/* 9 values pushed */
17 17 17 17 21 17 6 8 28 
CALL[ ]	/* CallFunction */";
};
width = 1265;
}
);
note = F;
unicode = 70;
},
{
glyphname = G;
layers = (
{
layerId = m01;
shapes = (
{
closed = 1;
nodes = (
(1186,63,o),
(1283,132,q),
(1283,721,l),
(782,721,l),
(782,516,l),
(990,500,l),
(990,253,l),
(948,232,o),
(819,203,o),
(742,203,qs),
(611,203,o),
(431,323,o),
(338,542,o),
(338,690,qs),
(338,742,ls),
(338,894,o),
(432,1124,o),
(609,1252,o),
(731,1252,qs),
(816,1252,o),
(948,1211,o),
(987,1177,q),
(1028,982,l),
(1244,982,l),
(1244,1305,l),
(1142,1391,o),
(866,1477,o),
(709,1477,qs),
(506,1477,o),
(209,1290,o),
(47,958,o),
(47,740,qs),
(47,690,ls),
(47,479,o),
(210,159,o),
(516,-21,o),
(733,-21,qs),
(913,-21,o)
);
}
);
userData = {
assembly = "NPUSHB[ ]	/* 72 values pushed */
12 1 3 1 32 31 30 3 4 5 35 1 0 4 3 76 0 2 3 5 3 2 5 128 0 5 4 3 5 4 126 0 3 3 1 97 0 1 1 37 77 0 4 4 0 98 6 1 0 0 38 0 78 1 0 34 33 28 26 19 17 14 13 10 8 0 37 1 37 7 8 22 
CALL[ ]	/* CallFunction */";
};
width = 1373;
}
);
note = G;
unicode = 71;
},
{
glyphname = H;
layers = (
{
layerId = m01;
shapes = (
{
closed = 1;
nodes = (
(503,605,l),
(1097,605,l),
(1097,205,l),
(941,175,l),
(941,0,l),
(1544,0,l),
(1544,175,l),
(1388,205,l),
(1388,1250,l),
(1544,1280,l),
(1544,1456,l),
(941,1456,l),
(941,1280,l),
(1097,1250,l),
(1097,830,l),
(503,830,l),
(503,1250,l),
(659,1280,l),
(659,1456,l),
(56,1456,l),
(56,1280,l),
(211,1250,l),
(211,205,l),
(56,175,l),
(56,0,l),
(659,0,l),
(659,175,l),
(503,205,l)
);
}
);
userData = {
assembly = "NPUSHB[ ]	/* 54 values pushed */
18 17 14 13 10 9 6 5 8 2 1 27 24 23 20 19 4 3 0 8 0 5 2 76 0 2 0 5 0 2 5 104 3 1 1 1 31 77 4 1 0 0 32 0 78 19 21 19 19 21 17 6 8 28 
CALL[ ]	/* CallFunction */";
};
width = 1600;
}
);
note = H;
unicode = 72;
},
{
glyphname = I;
layers = (
{
layerId = m01;
shapes = (
{
closed = 1;
nodes = (
(503,1250,l),
(658,1280,l),
(658,1456,l),
(56,1456,l),
(56,1280,l),
(211,1250,l),
(211,205,l),
(56,175,l),
(56,0,l),
(658,0,l),
(658,175,l),
(503,205,l)
);
}
);
userData = {
assembly = "NPUSHB[ ]	/* 29 values pushed */
11 10 9 6 5 4 3 0 8 0 1 1 76 0 1 1 31 77 0 0 0 32 0 78 21 17 2 8 24 
CALL[ ]	/* CallFunction */";
};
width = 714;
}
);
note = I;
unicode = 73;
},
{
glyphname = J;
layers = (
{
layerId = m01;
shapes = (
{
closed = 1;
nodes = (
(911,91,o),
(1019,297,o),
(1019,437,qs),
(1019,1250,l),
(1175,1280,l),
(1175,1456,l),
(532,1456,l),
(532,1280,l),
(728,1250,l),
(728,437,ls),
(728,362,o),
(675,259,o),
(584,207,o),
(524,207,qs),
(431,207,o),
(319,320,o),
(311,463,q),
(37,463,l),
(35,457,l),
(41,294,o),
(172,82,o),
(401,-21,o),
(553,-21,qs),
(703,-21,o)
);
}
);
userData = {
assembly = "NPUSHB[ ]	/* 49 values pushed */
19 18 15 14 4 1 3 1 76 0 1 3 2 3 1 2 128 0 3 3 31 77 0 2 2 0 98 4 1 0 0 38 0 78 1 0 17 16 10 8 6 4 0 23 1 23 5 8 22 
CALL[ ]	/* CallFunction */";
};
width = 1202;
}
);
note = J;
unicode = 74;
},
{
glyphname = K;
layers = (
{
layerId = m01;
shapes = (
{
closed = 1;
nodes = (
(1461,1280,l),
(1461,1456,l),
(862,1456,l),
(862,1280,l),
(1006,1268,l),
(1004,1265,l),
(503,749,l),
(503,1250,l),
(651,1280,l),
(651,1456,l),
(56,1456,l),
(56,1280,l),
(211,1250,l),
(211,205,l),
(56,175,l),
(56,0,l),
(651,0,l),
(651,175,l),
(503,205,l),
(503,419,l),
(710,629,l),
(1031,187,l),
(1030,187,l),
(894,175,l),
(894,0,l),
(1513,0,l),
(1513,175,l),
(1370,200,l),
(903,825,l),
(1324,1253,l)
);
}
);
userData = {
assembly = "NPUSHB[ ]	/* 42 values pushed */
28 25 23 22 21 20 17 16 15 14 11 10 9 8 6 5 2 17 0 2 1 76 3 1 2 2 31 77 1 1 0 0 32 0 78 23 21 24 19 4 8 26 
CALL[ ]	/* CallFunction */";
};
width = 1545;
}
);
note = K;
unicode = 75;
},
{
glyphname = L;
layers = (
{
layerId = m01;
shapes = (
{
closed = 1;
nodes = (
(914,224,l),
(503,224,l),
(503,1250,l),
(679,1280,l),
(679,1456,l),
(56,1456,l),
(56,1280,l),
(211,1250,l),
(211,205,l),
(56,175,l),
(56,0,l),
(1151,0,l),
(1151,437,l),
(928,437,l)
);
}
);
userData = {
assembly = "NPUSHB[ ]	/* 14 values pushed */
10 9 6 5 4 3 1 4 3 2 0 2 2 76 
MPPEM[ ]	/* MeasurePixelPerEm */
PUSHB[ ]	/* 1 value pushed */
12 
LT[ ]	/* LessThan */
IF[ ]	/* If */
NPUSHB[ ]	/* 24 values pushed */
4 1 3 1 2 2 3 114 0 1 1 31 77 0 2 2 0 96 0 0 0 32 0 78 
ELSE[ ]	/* Else */
NPUSHB[ ]	/* 25 values pushed */
4 1 3 1 2 1 3 2 128 0 1 1 31 77 0 2 2 0 96 0 0 0 32 0 78 
EIF[ ]	/* EndIf */
NPUSHB[ ]	/* 12 values pushed */
0 0 0 13 0 13 19 21 17 5 8 25 
CALL[ ]	/* CallFunction */";
};
width = 1200;
}
);
note = L;
unicode = 76;
},
{
glyphname = M;
layers = (
{
layerId = m01;
shapes = (
{
closed = 1;
nodes = (
(487,514,l),
(470,1132,l),
(476,1133,l),
(921,20,l),
(1142,20,l),
(1577,1142,l),
(1583,1141,l),
(1578,484,l),
(1578,205,l),
(1415,175,l),
(1415,0,l),
(2018,0,l),
(2018,175,l),
(1862,205,l),
(1862,1250,l),
(2018,1280,l),
(2018,1456,l),
(1430,1456,l),
(1046,441,l),
(1040,441,l),
(643,1456,l),
(56,1456,l),
(56,1280,l),
(211,1250,l),
(211,205,l),
(56,175,l),
(56,0,l),
(659,0,l),
(659,175,l),
(487,205,l)
);
}
);
userData = {
assembly = "MPPEM[ ]	/* MeasurePixelPerEm */
PUSHB[ ]	/* 1 value pushed */
25 
LT[ ]	/* LessThan */
IF[ ]	/* If */
NPUSHB[ ]	/* 20 values pushed */
29 26 22 20 19 16 15 14 13 9 6 5 4 3 0 15 0 1 1 76 
ELSE[ ]	/* Else */
NPUSHB[ ]	/* 20 values pushed */
29 26 22 20 19 16 15 14 13 9 6 5 4 3 0 15 4 1 1 76 
EIF[ ]	/* EndIf */
MPPEM[ ]	/* MeasurePixelPerEm */
PUSHB[ ]	/* 1 value pushed */
25 
LT[ ]	/* LessThan */
IF[ ]	/* If */
NPUSHB[ ]	/* 14 values pushed */
2 1 1 1 31 77 4 3 2 0 0 32 0 78 
ELSE[ ]	/* Else */
NPUSHB[ ]	/* 18 values pushed */
2 1 1 1 31 77 0 4 4 32 77 3 1 0 0 32 0 78 
EIF[ ]	/* EndIf */
PUSHB[ ]	/* 8 values pushed */
22 21 19 21 17 5 8 27 
CALL[ ]	/* CallFunction */";
};
width = 2066;
}
);
note = M;
unicode = 77;
},
{
glyphname = N;
layers = (
{
layerId = m01;
shapes = (
{
closed = 1;
nodes = (
(472,999,l),
(478,1000,l),
(1126,0,l),
(1408,0,l),
(1408,1250,l),
(1564,1280,l),
(1564,1456,l),
(961,1456,l),
(961,1280,l),
(1147,1250,l),
(1147,447,l),
(1141,446,l),
(507,1456,l),
(56,1456,l),
(56,1280,l),
(211,1250,l),
(211,205,l),
(56,175,l),
(56,0,l),
(659,0,l),
(659,175,l),
(472,205,l)
);
}
);
userData = {
assembly = "NPUSHB[ ]	/* 37 values pushed */
21 19 16 15 12 11 9 6 5 4 3 0 12 0 1 1 76 2 1 1 1 31 77 3 1 0 0 32 0 78 19 21 21 17 4 8 26 
CALL[ ]	/* CallFunction */";
};
width = 1604;
}
);
note = N;
unicode = 78;
},
{
glyphname = O;
layers = (
{
layerId = m01;
shapes = (
{
closed = 1;
nodes = (
(1114,89,o),
(1290,288,o),
(1385,557,o),
(1385,717,qs),
(1385,739,ls),
(1385,898,o),
(1290,1167,o),
(1114,1367,o),
(870,1477,o),
(722,1477,qs),
(575,1477,o),
(333,1367,o),
(159,1167,o),
(65,898,o),
(65,739,qs),
(65,717,ls),
(65,557,o),
(159,288,o),
(334,89,o),
(576,-21,o),
(723,-21,qs),
(871,-21,o)
);
},
{
closed = 1;
nodes = (
(438,334,o),
(357,564,o),
(357,717,qs),
(357,741,ls),
(357,894,o),
(438,1122,o),
(600,1249,o),
(722,1249,qs),
(845,1249,o),
(1010,1121,o),
(1094,892,o),
(1094,741,qs),
(1094,717,ls),
(1094,564,o),
(1011,334,o),
(847,206,o),
(723,206,qs),
(601,206,o)
);
}
);
userData = {
assembly = "NPUSHB[ ]	/* 42 values pushed */
0 3 3 1 97 0 1 1 37 77 5 1 2 2 0 97 4 1 0 0 38 0 78 23 22 1 0 32 30 22 39 23 39 12 10 0 21 1 21 6 8 22 
CALL[ ]	/* CallFunction */";
};
width = 1446;
}
);
note = O;
unicode = 79;
},
{
glyphname = P;
layers = (
{
layerId = m01;
shapes = (
{
closed = 1;
nodes = (
(503,205,l),
(503,528,l),
(749,528,ls),
(916,528,o),
(1158,643,o),
(1288,852,o),
(1288,991,qs),
(1288,1130,o),
(1158,1339,o),
(916,1456,o),
(749,1456,qs),
(56,1456,l),
(56,1280,l),
(211,1250,l),
(211,205,l),
(56,175,l),
(56,0,l),
(659,0,l),
(659,175,l)
);
},
{
closed = 1;
nodes = (
(871,1231,o),
(996,1094,o),
(996,989,qs),
(996,886,o),
(871,753,o),
(749,753,qs),
(503,753,l),
(503,1231,l),
(749,1231,ls)
);
}
);
width = 1325;
}
);
note = P;
unicode = 80;
},
{
glyphname = Q;
layers = (
{
layerId = m01;
shapes = (
{
closed = 1;
nodes = (
(1250,213,o),
(1387,527,o),
(1387,717,qs),
(1387,739,ls),
(1387,898,o),
(1292,1168,o),
(1115,1367,o),
(872,1477,o),
(724,1477,qs),
(577,1477,o),
(335,1367,o),
(161,1168,o),
(67,898,o),
(67,739,qs),
(67,717,ls),
(67,557,o),
(161,287,o),
(335,89,o),
(578,-21,o),
(725,-21,qs),
(764,-21,o),
(843,-11,o),
(882,-3,q),
(1293,-281,l),
(1437,-79,l),
(1127,114,l)
);
},
{
closed = 1;
nodes = (
(440,334,o),
(359,564,o),
(359,717,qs),
(359,741,ls),
(359,894,o),
(439,1122,o),
(601,1249,o),
(724,1249,qs),
(847,1249,o),
(1012,1121,o),
(1096,892,o),
(1096,741,qs),
(1096,717,ls),
(1096,564,o),
(1014,334,o),
(849,206,o),
(725,206,qs),
(604,206,o)
);
}
);
userData = {
assembly = "NPUSHB[ ]	/* 45 values pushed */
25 1 0 2 1 76 1 1 0 73 0 3 3 1 97 0 1 1 37 77 4 1 2 2 0 97 0 0 0 38 0 78 27 26 36 34 26 43 27 43 41 36 5 8 24 
CALL[ ]	/* CallFunction */";
};
width = 1449;
}
);
note = Q;
unicode = 81;
},
{
glyphname = R;
layers = (
{
layerId = m01;
shapes = (
{
closed = 1;
nodes = (
(868,1231,o),
(992,1110,o),
(992,1009,qs),
(992,907,o),
(867,800,o),
(741,800,qs),
(503,800,l),
(503,1231,l),
(746,1231,ls)
);
},
{
closed = 1;
nodes = (
(1347,0,l),
(1347,175,l),
(1223,204,l),
(1038,632,l),
(1039,633,o),
(1041,634,qs),
(1155,692,o),
(1283,894,o),
(1283,1022,qs),
(1283,1158,o),
(1154,1352,o),
(914,1456,o),
(746,1456,qs),
(56,1456,l),
(56,1280,l),
(211,1250,l),
(211,205,l),
(56,175,l),
(56,0,l),
(659,0,l),
(659,175,l),
(503,205,l),
(503,575,l),
(769,575,l),
(993,0,l)
);
}
);
width = 1408;
}
);
note = R;
unicode = 82;
},
{
glyphname = S;
layers = (
{
layerId = m01;
shapes = (
{
closed = 1;
nodes = (
(1054,77,o),
(1188,258,o),
(1188,382,qs),
(1188,561,o),
(939,781,o),
(698,848,q),
(586,885,o),
(459,950,o),
(405,1023,o),
(405,1072,qs),
(405,1129,o),
(467,1209,o),
(574,1251,o),
(644,1251,qs),
(726,1251,o),
(855,1215,o),
(893,1191,q),
(931,991,l),
(1150,991,l),
(1150,1319,l),
(1056,1394,o),
(927,1436,qs),
(803,1476,o),
(644,1476,qs),
(629,1476,ls),
(477,1474,o),
(245,1370,o),
(114,1189,o),
(114,1071,qs),
(114,952,o),
(227,783,o),
(454,662,o),
(627,611,qs),
(727,580,o),
(844,513,o),
(895,432,o),
(895,380,qs),
(895,325,o),
(838,244,o),
(729,200,o),
(650,200,qs),
(557,200,o),
(399,247,o),
(354,285,q),
(323,492,l),
(97,492,l),
(97,140,l),
(225,51,o),
(489,-21,o),
(650,-21,qs),
(812,-21,o)
);
}
);
width = 1247;
}
);
note = S;
unicode = 83;
},
{
glyphname = T;
layers = (
{
layerId = m01;
shapes = (
{
closed = 1;
nodes = (
(839,1231,l),
(1106,1231,l),
(1122,1057,l),
(1344,1057,l),
(1344,1456,l),
(45,1456,l),
(45,1057,l),
(266,1057,l),
(282,1231,l),
(547,1231,l),
(547,205,l),
(391,175,l),
(391,0,l),
(996,0,l),
(996,175,l),
(839,205,l)
);
}
);
userData = {
assembly = "NPUSHB[ ]	/* 9 values pushed */
15 4 3 0 4 0 2 1 76 
MPPEM[ ]	/* MeasurePixelPerEm */
PUSHB[ ]	/* 1 value pushed */
14 
LT[ ]	/* LessThan */
IF[ ]	/* If */
NPUSHB[ ]	/* 25 values pushed */
4 1 2 1 0 1 2 114 5 1 1 1 3 95 0 3 3 31 77 0 0 0 32 0 78 
ELSE[ ]	/* Else */
NPUSHB[ ]	/* 26 values pushed */
4 1 2 1 0 1 2 0 128 5 1 1 1 3 95 0 3 3 31 77 0 0 0 32 0 78 
EIF[ ]	/* EndIf */
NPUSHB[ ]	/* 9 values pushed */
17 17 17 17 19 17 6 8 28 
CALL[ ]	/* CallFunction */";
};
width = 1389;
}
);
note = T;
unicode = 84;
},
{
glyphname = U;
layers = (
{
layerId = m01;
shapes = (
{
closed = 1;
nodes = (
(1214,98,o),
(1361,327,o),
(1361,490,qs),
(1361,1250,l),
(1517,1280,l),
(1517,1456,l),
(914,1456,l),
(914,1280,l),
(1069,1250,l),
(1069,490,ls),
(1069,394,o),
(999,266,o),
(868,203,o),
(776,203,qs),
(686,203,o),
(556,266,o),
(486,394,o),
(486,490,qs),
(486,1250,l),
(642,1280,l),
(642,1456,l),
(39,1456,l),
(39,1280,l),
(194,1250,l),
(194,490,ls),
(194,327,o),
(340,99,o),
(603,-21,o),
(776,-21,qs),
(951,-21,o)
);
}
);
userData = {
assembly = "NPUSHB[ ]	/* 46 values pushed */
25 24 21 20 10 9 6 5 8 2 1 1 76 3 1 1 1 31 77 0 2 2 0 98 4 1 0 0 38 0 78 1 0 23 22 16 14 8 7 0 29 1 29 5 8 22 
CALL[ ]	/* CallFunction */";
};
width = 1555;
}
);
note = U;
unicode = 85;
},
{
glyphname = V;
layers = (
{
layerId = m01;
shapes = (
{
closed = 1;
nodes = (
(1502,1456,l),
(950,1456,l),
(950,1280,l),
(1103,1260,l),
(817,399,l),
(796,321,l),
(790,321,l),
(768,401,l),
(482,1260,l),
(613,1280,l),
(613,1456,l),
(34,1456,l),
(34,1280,l),
(164,1264,l),
(632,0,l),
(931,0,l),
(1370,1264,l),
(1502,1280,l)
);
}
);
userData = {
assembly = "NPUSHB[ ]	/* 30 values pushed */
17 14 13 10 8 7 4 7 0 1 1 76 2 1 1 1 31 77 0 0 0 32 0 78 25 19 17 3 8 25 
CALL[ ]	/* CallFunction */";
};
width = 1535;
}
);
note = V;
unicode = 86;
},
{
glyphname = W;
layers = (
{
layerId = m01;
shapes = (
{
closed = 1;
nodes = (
(1111,971,l),
(1146,851,l),
(1422,0,l),
(1686,0,l),
(2028,1265,l),
(2167,1280,l),
(2167,1456,l),
(1592,1456,l),
(1592,1280,l),
(1758,1257,l),
(1581,524,l),
(1551,409,l),
(1545,409,l),
(1510,524,l),
(1211,1456,l),
(996,1456,l),
(708,549,l),
(671,419,l),
(665,419,l),
(634,549,l),
(463,1257,l),
(620,1280,l),
(620,1456,l),
(34,1456,l),
(34,1280,l),
(183,1265,l),
(521,0,l),
(787,0,l),
(1066,847,l),
(1105,971,l)
);
}
);
userData = {
assembly = "NPUSHB[ ]	/* 36 values pushed */
28 23 20 19 16 10 8 7 4 9 0 1 1 76 3 2 2 1 1 31 77 4 1 0 0 32 0 78 19 23 23 19 17 5 8 27 
CALL[ ]	/* CallFunction */";
};
width = 2202;
}
);
note = W;
unicode = 87;
},
{
glyphname = X;
layers = (
{
layerId = m01;
shapes = (
{
closed = 1;
nodes = (
(751,557,l),
(1021,187,l),
(896,175,l),
(896,0,l),
(1479,0,l),
(1479,175,l),
(1340,200,l),
(922,747,l),
(1295,1255,l),
(1424,1280,l),
(1424,1456,l),
(863,1456,l),
(863,1280,l),
(999,1267,l),
(749,917,l),
(499,1267,l),
(638,1280,l),
(638,1456,l),
(69,1456,l),
(69,1280,l),
(187,1255,l),
(575,721,l),
(163,199,l),
(36,175,l),
(36,0,l),
(597,0,l),
(597,175,l),
(475,187,l)
);
}
);
userData = {
assembly = "NPUSHB[ ]	/* 41 values pushed */
27 26 25 24 21 19 17 14 13 12 11 10 7 5 3 0 16 0 1 1 76 2 1 1 1 31 77 3 1 0 0 32 0 78 22 22 22 17 4 8 26 
CALL[ ]	/* CallFunction */";
};
width = 1514;
}
);
note = X;
unicode = 88;
},
{
glyphname = Y;
layers = (
{
layerId = m01;
shapes = (
{
closed = 1;
nodes = (
(899,522,l),
(1325,1260,l),
(1469,1280,l),
(1469,1456,l),
(899,1456,l),
(899,1280,l),
(1059,1263,l),
(790,796,l),
(768,752,l),
(762,751,l),
(740,798,l),
(498,1263,l),
(617,1280,l),
(617,1456,l),
(36,1456,l),
(36,1280,l),
(176,1260,l),
(608,499,l),
(608,205,l),
(452,175,l),
(452,0,l),
(1055,0,l),
(1055,175,l),
(899,205,l)
);
}
);
userData = {
assembly = "NPUSHB[ ]	/* 36 values pushed */
23 22 20 17 16 13 11 10 7 5 4 3 0 13 0 1 1 76 2 1 1 1 31 77 0 0 0 32 0 78 25 22 17 3 8 25 
CALL[ ]	/* CallFunction */";
};
width = 1508;
}
);
note = Y;
unicode = 89;
},
{
glyphname = Z;
layers = (
{
layerId = m01;
shapes = (
{
closed = 1;
nodes = (
(937,224,l),
(430,224,l),
(1143,1270,l),
(1143,1456,l),
(107,1456,l),
(95,1045,l),
(318,1045,l),
(341,1231,l),
(784,1231,l),
(74,192,l),
(74,0,l),
(1165,0,l),
(1183,410,l),
(961,410,l)
);
}
);
userData = {
assembly = "NPUSHB[ ]	/* 10 values pushed */
10 1 1 3 3 1 0 4 2 76 
MPPEM[ ]	/* MeasurePixelPerEm */
PUSHB[ ]	/* 1 value pushed */
14 
LT[ ]	/* LessThan */
IF[ ]	/* If */
NPUSHB[ ]	/* 35 values pushed */
0 2 1 5 1 2 114 6 1 5 4 4 5 112 0 1 1 3 95 0 3 3 31 77 0 4 4 0 96 0 0 0 32 0 78 
ELSE[ ]	/* Else */
NPUSHB[ ]	/* 37 values pushed */
0 2 1 5 1 2 5 128 6 1 5 4 1 5 4 126 0 1 1 3 95 0 3 3 31 77 0 4 4 0 96 0 0 0 32 0 78 
EIF[ ]	/* EndIf */
NPUSHB[ ]	/* 14 values pushed */
0 0 0 13 0 13 18 17 17 18 17 7 8 27 
CALL[ ]	/* CallFunction */";
};
width = 1226;
}
);
note = Z;
unicode = 90;
},
{
glyphname = a;
layers = (
{
layerId = m01;
shapes = (
{
closed = 1;
nodes = (
(661,58,o),
(713,124,q),
(718,92,o),
(740,28,o),
(751,0,q),
(1113,0,l),
(1113,175,l),
(1000,191,l),
(997,211,o),
(996,254,o),
(996,276,qs),
(996,722,ls),
(996,905,o),
(750,1102,o),
(538,1102,qs),
(416,1102,o),
(218,1042,o),
(133,994,q),
(137,713,l),
(347,713,l),
(370,856,l),
(400,877,o),
(475,900,o),
(522,900,qs),
(613,900,o),
(704,803,o),
(704,725,qs),
(704,645,l),
(561,645,ls),
(402,645,o),
(185,557,o),
(74,403,o),
(74,301,qs),
(74,152,o),
(264,-21,o),
(425,-21,qs),
(520,-21,o)
);
},
{
closed = 1;
nodes = (
(365,258,o),
(365,316,qs),
(365,378,o),
(464,466,o),
(560,466,qs),
(704,466,l),
(704,295,l),
(674,250,o),
(564,195,o),
(503,195,qs),
(438,195,o)
);
}
);
userData = {
assembly = "MPPEM[ ]	/* MeasurePixelPerEm */
PUSHB[ ]	/* 1 value pushed */
23 
LT[ ]	/* LessThan */
IF[ ]	/* If */
NPUSHB[ ]	/* 15 values pushed */
18 1 2 4 40 1 6 7 34 29 2 0 6 3 76 
ELSE[ ]	/* Else */
NPUSHB[ ]	/* 15 values pushed */
18 1 2 4 40 1 6 7 34 29 2 5 6 3 76 
EIF[ ]	/* EndIf */
MPPEM[ ]	/* MeasurePixelPerEm */
PUSHB[ ]	/* 1 value pushed */
23 
LT[ ]	/* LessThan */
IF[ ]	/* If */
NPUSHB[ ]	/* 40 values pushed */
0 3 2 1 2 3 1 128 0 1 0 7 6 1 7 105 0 2 2 4 97 0 4 4 40 77 9 1 6 6 0 97 5 8 2 0 0 38 0 78 
ELSE[ ]	/* Else */
NPUSHB[ ]	/* 44 values pushed */
0 3 2 1 2 3 1 128 0 1 0 7 6 1 7 105 0 2 2 4 97 0 4 4 40 77 0 5 5 32 77 9 1 6 6 0 97 8 1 0 0 38 0 78 
EIF[ ]	/* EndIf */
NPUSHB[ ]	/* 27 values pushed */
38 37 1 0 43 41 37 47 38 47 31 30 22 20 17 16 13 11 8 6 0 36 1 36 10 8 22 
CALL[ ]	/* CallFunction */";
};
width = 1154;
}
);
note = a;
unicode = 97;
},
{
glyphname = b;
layers = (
{
layerId = m01;
shapes = (
{
closed = 1;
nodes = (
(1013,111,o),
(1109,350,o),
(1109,511,qs),
(1109,532,ls),
(1109,705,o),
(1013,961,o),
(830,1102,o),
(699,1102,qs),
(608,1102,o),
(471,1032,o),
(424,967,q),
(424,1560,l),
(-22,1560,l),
(-22,1384,l),
(133,1354,l),
(133,0,l),
(385,0,l),
(406,133,l),
(454,58,o),
(596,-21,o),
(696,-21,qs),
(829,-21,o)
);
},
{
closed = 1;
nodes = (
(454,258,o),
(424,308,q),
(424,760,l),
(451,813,o),
(545,875,o),
(611,875,qs),
(684,875,o),
(775,791,o),
(818,638,o),
(818,532,qs),
(818,511,ls),
(818,365,o),
(720,206,o),
(608,206,qs),
(547,206,o)
);
}
);
userData = {
assembly = "MPPEM[ ]	/* MeasurePixelPerEm */
PUSHB[ ]	/* 1 value pushed */
23 
LT[ ]	/* LessThan */
IF[ ]	/* If */
NPUSHB[ ]	/* 20 values pushed */
7 6 2 3 2 10 1 5 3 34 33 2 4 5 3 1 0 4 4 76 
ELSE[ ]	/* Else */
NPUSHB[ ]	/* 20 values pushed */
7 6 2 3 2 10 1 5 3 34 33 2 4 5 3 1 1 4 4 76 
EIF[ ]	/* EndIf */
MPPEM[ ]	/* MeasurePixelPerEm */
PUSHB[ ]	/* 1 value pushed */
23 
LT[ ]	/* LessThan */
IF[ ]	/* If */
NPUSHB[ ]	/* 29 values pushed */
0 2 2 33 77 0 5 5 3 97 0 3 3 40 77 7 1 4 4 0 97 1 6 2 0 0 38 0 78 
ELSE[ ]	/* Else */
NPUSHB[ ]	/* 33 values pushed */
0 2 2 33 77 0 5 5 3 97 0 3 3 40 77 0 1 1 32 77 7 1 4 4 0 97 6 1 0 0 38 0 78 
EIF[ ]	/* EndIf */
NPUSHB[ ]	/* 23 values pushed */
23 22 1 0 31 29 22 36 23 36 14 12 9 8 5 4 0 21 1 21 8 8 22 
CALL[ ]	/* CallFunction */";
};
width = 1181;
}
);
note = b;
unicode = 98;
},
{
glyphname = c;
layers = (
{
layerId = m01;
shapes = (
{
closed = 1;
nodes = (
(896,69,o),
(997,237,o),
(1014,352,q),
(1011,358,l),
(762,358,l),
(744,284,o),
(651,203,o),
(574,203,qs),
(514,203,o),
(417,271,o),
(359,414,o),
(359,525,qs),
(359,555,ls),
(359,660,o),
(411,808,o),
(516,888,o),
(596,888,qs),
(634,888,o),
(708,858,o),
(732,834,q),
(771,641,l),
(991,641,l),
(993,951,l),
(927,1011,o),
(716,1102,o),
(570,1102,qs),
(417,1102,o),
(191,961,o),
(67,715,o),
(67,555,qs),
(67,525,ls),
(67,366,o),
(189,119,o),
(416,-21,o),
(572,-21,qs),
(713,-21,o)
);
}
);
userData = {
assembly = "NPUSHB[ ]	/* 62 values pushed */
12 1 3 1 1 76 0 2 3 5 3 2 5 128 0 5 4 3 5 4 126 0 3 3 1 97 0 1 1 40 77 0 4 4 0 97 6 1 0 0 38 0 78 1 0 31 30 28 26 19 17 14 13 10 8 0 35 1 35 7 8 22 
CALL[ ]	/* CallFunction */";
};
width = 1082;
}
);
note = c;
unicode = 99;
},
{
glyphname = d;
layers = (
{
layerId = m01;
shapes = (
{
closed = 1;
nodes = (
(716,57,o),
(767,132,q),
(789,0,l),
(1182,0,l),
(1182,175,l),
(1042,205,l),
(1042,1560,l),
(594,1560,l),
(594,1384,l),
(750,1354,l),
(750,966,l),
(701,1031,o),
(567,1102,o),
(478,1102,qs),
(350,1102,o),
(166,959,o),
(67,703,o),
(67,532,qs),
(67,511,ls),
(67,351,o),
(165,112,o),
(350,-21,o),
(479,-21,qs),
(575,-21,o)
);
},
{
closed = 1;
nodes = (
(359,369,o),
(359,511,qs),
(359,532,ls),
(359,634,o),
(402,788,o),
(495,875,o),
(568,875,qs),
(628,875,o),
(720,818,o),
(750,766,q),
(750,307,l),
(719,258,o),
(627,206,o),
(566,206,qs),
(455,206,o)
);
}
);
width = 1212;
}
);
note = d;
unicode = 100;
},
{
glyphname = e;
layers = (
{
layerId = m01;
shapes = (
{
closed = 1;
nodes = (
(915,50,o),
(982,104,q),
(903,284,l),
(837,244,o),
(698,203,o),
(618,203,qs),
(541,203,o),
(433,266,o),
(374,377,o),
(368,448,q),
(370,454,l),
(1006,454,l),
(1006,613,ls),
(1006,768,o),
(902,986,o),
(702,1102,o),
(555,1102,qs),
(551,1102,ls),
(404,1102,o),
(297,1032,qs),
(187,960,o),
(67,711,o),
(67,550,qs),
(67,510,ls),
(67,356,o),
(194,116,o),
(426,-21,o),
(581,-21,qs),
(712,-21,o)
);
},
{
closed = 1;
nodes = (
(422,825,o),
(502,886,o),
(560,886,qs),
(621,886,o),
(698,834,o),
(733,739,o),
(733,673,qs),
(733,647,l),
(372,647,l),
(369,652,l),
(377,719,o)
);
}
);
width = 1078;
}
);
note = e;
unicode = 101;
},
{
glyphname = f;
layers = (
{
layerId = m01;
shapes = (
{
closed = 1;
nodes = (
(512,205,l),
(512,877,l),
(757,877,l),
(757,1082,l),
(512,1082,l),
(512,1202,ls),
(512,1275,o),
(586,1353,o),
(662,1353,qs),
(694,1353,o),
(756,1346,o),
(780,1339,q),
(805,1556,l),
(768,1566,o),
(664,1581,o),
(617,1581,qs),
(429,1581,o),
(220,1384,o),
(220,1202,qs),
(220,1082,l),
(59,1082,l),
(59,877,l),
(220,877,l),
(220,205,l),
(79,175,l),
(79,0,l),
(703,0,l),
(703,175,l)
);
}
);
userData = {
assembly = "NPUSHB[ ]	/* 55 values pushed */
14 1 4 3 15 1 2 4 27 26 3 2 4 0 1 3 76 0 4 4 3 97 0 3 3 39 77 6 1 1 1 2 95 5 1 2 2 34 77 0 0 0 32 0 78 17 19 37 35 17 19 16 7 8 29 
CALL[ ]	/* CallFunction */";
};
width = 799;
}
);
note = f;
unicode = 102;
},
{
glyphname = g;
layers = (
{
layerId = m01;
shapes = (
{
closed = 1;
nodes = (
(923,-321,o),
(1044,-111,o),
(1044,32,qs),
(1044,1082,l),
(790,1082,l),
(769,946,l),
(720,1021,o),
(580,1102,o),
(483,1102,qs),
(353,1102,o),
(167,959,o),
(67,703,o),
(67,532,qs),
(67,511,ls),
(67,352,o),
(167,112,o),
(357,-21,o),
(489,-21,qs),
(573,-21,o),
(703,43,o),
(751,104,q),
(751,33,ls),
(751,-83,o),
(642,-213,o),
(525,-213,qs),
(457,-213,o),
(300,-178,o),
(230,-148,q),
(176,-356,l),
(254,-395,o),
(458,-437,o),
(540,-437,qs),
(697,-437,o)
);
},
{
closed = 1;
nodes = (
(359,369,o),
(359,511,qs),
(359,532,ls),
(359,635,o),
(403,788,o),
(497,875,o),
(572,875,qs),
(632,875,o),
(723,821,o),
(751,772,q),
(751,302,l),
(723,255,o),
(633,206,o),
(571,206,qs),
(457,206,o)
);
},
{
closed = 1;
nodes = (
(1007,871,l),
(1171,906,l),
(1171,1082,l),
(880,1082,l)
);
}
);
userData = {
assembly = "MPPEM[ ]	/* MeasurePixelPerEm */
PUSHB[ ]	/* 1 value pushed */
25 
LT[ ]	/* LessThan */
IF[ ]	/* If */
NPUSHB[ ]	/* 25 values pushed */
49 26 2 6 3 50 37 36 3 5 6 11 1 2 5 4 1 1 2 3 1 0 1 5 76 
ELSE[ ]	/* Else */
NPUSHB[ ]	/* 25 values pushed */
49 26 2 6 4 50 37 36 3 5 6 11 1 2 5 4 1 1 2 3 1 0 1 5 76 
EIF[ ]	/* EndIf */
MPPEM[ ]	/* MeasurePixelPerEm */
PUSHB[ ]	/* 1 value pushed */
25 
LT[ ]	/* LessThan */
IF[ ]	/* If */
NPUSHB[ ]	/* 36 values pushed */
0 6 6 3 95 10 7 4 3 3 3 34 77 9 1 5 5 2 97 0 2 2 38 77 0 1 1 0 97 8 1 0 0 42 0 78 
ELSE[ ]	/* Else */
NPUSHB[ ]	/* 40 values pushed */
10 7 2 4 4 34 77 0 6 6 3 97 0 3 3 40 77 9 1 5 5 2 97 0 2 2 38 77 0 1 1 0 97 8 1 0 0 42 0 78 
EIF[ ]	/* EndIf */
NPUSHB[ ]	/* 31 values pushed */
48 48 34 33 1 0 48 51 48 51 41 39 33 47 34 47 28 27 24 22 15 13 8 6 0 32 1 32 11 8 22 
CALL[ ]	/* CallFunction */";
};
width = 1198;
}
);
note = g;
unicode = 103;
},
{
glyphname = h;
layers = (
{
layerId = m01;
shapes = (
{
closed = 1;
nodes = (
(479,205,l),
(479,779,l),
(510,826,o),
(607,875,o),
(666,875,qs),
(751,875,o),
(839,777,o),
(839,660,qs),
(839,205,l),
(713,175,l),
(713,0,l),
(1271,0,l),
(1271,175,l),
(1131,205,l),
(1131,658,ls),
(1131,885,o),
(940,1102,o),
(777,1102,qs),
(681,1102,o),
(530,1019,o),
(479,944,q),
(479,1560,l),
(32,1560,l),
(32,1384,l),
(188,1354,l),
(188,205,l),
(47,175,l),
(47,0,l),
(605,0,l),
(605,175,l)
);
}
);
userData = {
assembly = "NPUSHB[ ]	/* 53 values pushed */
5 4 2 2 1 8 1 4 2 29 28 27 20 19 16 15 3 2 9 0 4 3 76 0 1 1 33 77 0 4 4 2 97 0 2 2 40 77 3 1 0 0 32 0 78 37 21 35 21 16 5 8 27 
CALL[ ]	/* CallFunction */";
};
width = 1302;
}
);
note = h;
unicode = 104;
},
{
glyphname = i;
layers = (
{
layerId = m01;
shapes = (
{
closed = 1;
nodes = (
(185,1311,l),
(487,1311,l),
(487,1560,l),
(185,1560,l)
);
},
{
closed = 1;
nodes = (
(487,1082,l),
(39,1082,l),
(39,906,l),
(195,876,l),
(195,205,l),
(54,175,l),
(54,0,l),
(627,0,l),
(627,175,l),
(487,205,l)
);
}
);
userData = {
assembly = "NPUSHB[ ]	/* 47 values pushed */
13 10 9 8 7 4 6 2 3 1 76 0 0 0 1 95 4 1 1 1 33 77 0 3 3 34 77 0 2 2 32 2 78 0 0 12 11 6 5 0 3 0 3 17 5 8 23 
CALL[ ]	/* CallFunction */";
};
width = 661;
}
);
note = i;
unicode = 105;
},
{
glyphname = j;
layers = (
{
layerId = m01;
shapes = (
{
closed = 1;
nodes = (
(486,-231,o),
(486,-40,qs),
(486,1082,l),
(39,1082,l),
(39,906,l),
(195,876,l),
(195,-40,ls),
(195,-122,o),
(131,-212,o),
(74,-212,qs),
(47,-212,o),
(-2,-205,o),
(-24,-199,q),
(-39,-420,l),
(-3,-429,o),
(64,-437,o),
(105,-437,qs),
(285,-437,o)
);
},
{
closed = 1;
nodes = (
(181,1311,l),
(483,1311,l),
(483,1560,l),
(181,1560,l)
);
}
);
userData = {
assembly = "NPUSHB[ ]	/* 61 values pushed */
12 11 4 3 1 2 3 1 0 1 2 76 0 3 3 4 95 6 1 4 4 33 77 0 2 2 34 77 0 1 1 0 98 5 1 0 0 42 0 78 18 18 1 0 18 21 18 21 20 19 14 13 8 6 0 17 1 17 7 8 22 
CALL[ ]	/* CallFunction */";
};
width = 600;
}
);
note = j;
unicode = 106;
},
{
glyphname = k;
layers = (
{
layerId = m01;
shapes = (
{
closed = 1;
nodes = (
(1232,906,l),
(1232,1082,l),
(669,1082,l),
(669,908,l),
(780,892,l),
(778,889,l),
(479,615,l),
(479,1560,l),
(32,1560,l),
(32,1384,l),
(188,1354,l),
(188,205,l),
(47,175,l),
(47,0,l),
(605,0,l),
(605,175,l),
(479,205,l),
(479,324,l),
(623,452,l),
(816,189,l),
(818,185,l),
(736,166,l),
(736,0,l),
(1277,0,l),
(1277,175,l),
(1143,206,l),
(820,629,l),
(1092,871,l)
);
}
);
userData = {
assembly = "NPUSHB[ ]	/* 47 values pushed */
17 16 2 3 2 26 23 21 20 15 14 11 10 9 8 6 5 2 13 0 3 2 76 0 2 2 33 77 0 3 3 34 77 1 1 0 0 32 0 78 21 21 24 19 4 8 26 
CALL[ ]	/* CallFunction */";
};
width = 1316;
}
);
note = k;
unicode = 107;
},
{
glyphname = l;
layers = (
{
layerId = m01;
shapes = (
{
closed = 1;
nodes = (
(480,1560,l),
(32,1560,l),
(32,1384,l),
(188,1354,l),
(188,205,l),
(47,175,l),
(47,0,l),
(621,0,l),
(621,175,l),
(480,205,l)
);
}
);
userData = {
assembly = "NPUSHB[ ]	/* 27 values pushed */
9 6 5 4 3 0 6 0 1 1 76 0 1 1 33 77 0 0 0 32 0 78 21 17 2 8 24 
CALL[ ]	/* CallFunction */";
};
width = 653;
}
);
note = l;
unicode = 108;
},
{
glyphname = m;
layers = (
{
layerId = m01;
shapes = (
{
closed = 1;
nodes = (
(484,205,l),
(484,778,l),
(513,825,o),
(603,875,o),
(665,875,qs),
(742,875,o),
(821,779,o),
(821,662,qs),
(821,205,l),
(703,175,l),
(703,0,l),
(1230,0,l),
(1230,175,l),
(1112,205,l),
(1112,735,l),
(1133,798,o),
(1227,875,o),
(1295,875,qs),
(1370,875,o),
(1449,782,o),
(1449,662,qs),
(1449,205,l),
(1323,175,l),
(1323,0,l),
(1882,0,l),
(1882,175,l),
(1741,205,l),
(1741,661,ls),
(1741,884,o),
(1556,1102,o),
(1396,1102,qs),
(1288,1102,o),
(1128,1004,o),
(1078,917,q),
(1041,1010,o),
(892,1102,o),
(788,1102,qs),
(685,1102,o),
(528,1017,o),
(476,939,q),
(464,1082,l),
(37,1082,l),
(37,906,l),
(193,876,l),
(193,205,l),
(52,175,l),
(52,0,l),
(610,0,l),
(610,175,l)
);
}
);
userData = {
assembly = "NPUSHB[ ]	/* 26 values pushed */
14 8 5 4 4 5 1 48 47 46 39 38 35 34 33 26 25 22 21 3 2 14 0 5 2 76 
MPPEM[ ]	/* MeasurePixelPerEm */
PUSHB[ ]	/* 1 value pushed */
25 
LT[ ]	/* LessThan */
IF[ ]	/* If */
NPUSHB[ ]	/* 21 values pushed */
7 1 5 5 1 97 3 2 2 1 1 34 77 6 4 2 0 0 32 0 78 
ELSE[ ]	/* Else */
NPUSHB[ ]	/* 25 values pushed */
0 1 1 34 77 7 1 5 5 2 97 3 1 2 2 40 77 6 4 2 0 0 32 0 78 
EIF[ ]	/* EndIf */
NPUSHB[ ]	/* 11 values pushed */
37 21 37 21 36 35 21 16 8 8 30 
CALL[ ]	/* CallFunction */";
};
width = 1917;
}
);
note = m;
unicode = 109;
},
{
glyphname = n;
layers = (
{
layerId = m01;
shapes = (
{
closed = 1;
nodes = (
(484,205,l),
(484,773,l),
(515,822,o),
(608,875,o),
(671,875,qs),
(756,875,o),
(842,784,o),
(842,675,qs),
(842,205,l),
(717,175,l),
(717,0,l),
(1275,0,l),
(1275,175,l),
(1135,205,l),
(1135,676,ls),
(1135,896,o),
(953,1102,o),
(792,1102,qs),
(690,1102,o),
(531,1010,o),
(477,927,q),
(464,1082,l),
(37,1082,l),
(37,906,l),
(192,876,l),
(192,205,l),
(52,175,l),
(52,0,l),
(602,0,l),
(602,175,l)
);
}
);
userData = {
assembly = "NPUSHB[ ]	/* 20 values pushed */
8 5 4 3 4 1 29 28 27 20 19 16 15 3 2 9 0 4 2 76 
MPPEM[ ]	/* MeasurePixelPerEm */
PUSHB[ ]	/* 1 value pushed */
25 
LT[ ]	/* LessThan */
IF[ ]	/* If */
NPUSHB[ ]	/* 18 values pushed */
0 4 4 1 97 2 1 1 1 34 77 3 1 0 0 32 0 78 
ELSE[ ]	/* Else */
NPUSHB[ ]	/* 22 values pushed */
0 1 1 34 77 0 4 4 2 97 0 2 2 40 77 3 1 0 0 32 0 78 
EIF[ ]	/* EndIf */
PUSHB[ ]	/* 8 values pushed */
37 21 35 21 16 5 8 27 
CALL[ ]	/* CallFunction */";
};
width = 1307;
}
);
note = n;
unicode = 110;
},
{
glyphname = o;
layers = (
{
layerId = m01;
shapes = (
{
closed = 1;
nodes = (
(966,119,o),
(1088,368,o),
(1088,530,qs),
(1088,551,ls),
(1088,713,o),
(966,961,o),
(738,1102,o),
(577,1102,qs),
(418,1102,o),
(189,961,o),
(67,712,o),
(67,551,qs),
(67,530,ls),
(67,368,o),
(189,119,o),
(419,-21,o),
(579,-21,qs),
(738,-21,o)
);
},
{
closed = 1;
nodes = (
(404,284,o),
(359,432,o),
(359,530,qs),
(359,551,ls),
(359,647,o),
(404,794,o),
(502,877,o),
(577,877,qs),
(654,877,o),
(751,794,o),
(797,647,o),
(797,551,qs),
(797,530,ls),
(797,432,o),
(751,285,o),
(655,203,o),
(579,203,qs),
(502,203,o)
);
}
);
userData = {
assembly = "NPUSHB[ ]	/* 42 values pushed */
0 3 3 1 97 0 1 1 40 77 5 1 2 2 0 97 4 1 0 0 38 0 78 19 18 1 0 28 26 18 35 19 35 10 8 0 17 1 17 6 8 22 
CALL[ ]	/* CallFunction */";
};
width = 1155;
}
);
note = o;
unicode = 111;
},
{
glyphname = p;
layers = (
{
layerId = m01;
shapes = (
{
closed = 1;
nodes = (
(488,-210,l),
(488,103,l),
(535,42,o),
(668,-21,o),
(755,-21,qs),
(887,-21,o),
(1074,112,o),
(1173,351,o),
(1173,511,qs),
(1173,532,ls),
(1173,703,o),
(1074,959,o),
(888,1102,o),
(757,1102,qs),
(663,1102,o),
(527,1026,o),
(479,956,q),
(465,1082,l),
(41,1082,l),
(41,906,l),
(197,876,l),
(197,-210,l),
(56,-240,l),
(56,-416,l),
(629,-416,l),
(629,-240,l)
);
},
{
closed = 1;
nodes = (
(515,251,o),
(488,297,q),
(488,771,l),
(515,821,o),
(606,875,o),
(666,875,qs),
(740,875,o),
(835,788,o),
(881,635,o),
(881,532,qs),
(881,511,ls),
(881,369,o),
(780,203,o),
(668,203,qs),
(606,203,o)
);
}
);
userData = {
assembly = "NPUSHB[ ]	/* 24 values pushed */
8 5 4 3 5 1 38 37 2 4 5 23 1 3 4 25 24 3 2 4 0 3 4 76 
MPPEM[ ]	/* MeasurePixelPerEm */
PUSHB[ ]	/* 1 value pushed */
25 
LT[ ]	/* LessThan */
IF[ ]	/* If */
NPUSHB[ ]	/* 28 values pushed */
0 5 5 1 97 2 1 1 1 34 77 6 1 4 4 3 97 0 3 3 38 77 0 0 0 36 0 78 
ELSE[ ]	/* Else */
NPUSHB[ ]	/* 32 values pushed */
0 1 1 34 77 0 5 5 2 97 0 2 2 40 77 6 1 4 4 3 97 0 3 3 38 77 0 0 0 36 0 78 
EIF[ ]	/* EndIf */
NPUSHB[ ]	/* 15 values pushed */
27 26 35 33 26 40 27 40 39 35 21 16 7 8 26 
CALL[ ]	/* CallFunction */";
};
width = 1240;
}
);
note = p;
unicode = 112;
},
{
glyphname = q;
layers = (
{
layerId = m01;
shapes = (
{
closed = 1;
nodes = (
(1039,-210,l),
(1039,1082,l),
(785,1082,l),
(763,952,l),
(714,1024,o),
(577,1102,o),
(482,1102,qs),
(352,1102,o),
(166,959,o),
(67,703,o),
(67,532,qs),
(67,511,ls),
(67,351,o),
(166,112,o),
(352,-21,o),
(483,-21,qs),
(569,-21,o),
(698,40,o),
(747,100,q),
(747,-210,l),
(576,-244,l),
(576,-416,l),
(1170,-416,l),
(1170,-239,l)
);
},
{
closed = 1;
nodes = (
(359,368,o),
(359,511,qs),
(359,532,ls),
(359,635,o),
(402,791,o),
(496,877,o),
(570,877,qs),
(629,877,o),
(718,825,o),
(747,777,q),
(747,296,l),
(718,250,o),
(627,203,o),
(568,203,qs),
(455,203,o)
);
}
);
userData = {
assembly = "MPPEM[ ]	/* MeasurePixelPerEm */
PUSHB[ ]	/* 1 value pushed */
25 
LT[ ]	/* LessThan */
IF[ ]	/* If */
NPUSHB[ ]	/* 22 values pushed */
19 1 5 2 28 27 2 4 5 4 1 1 4 23 22 3 2 4 0 1 4 76 
ELSE[ ]	/* Else */
NPUSHB[ ]	/* 22 values pushed */
19 1 5 3 28 27 2 4 5 4 1 1 4 23 22 3 2 4 0 1 4 76 
EIF[ ]	/* EndIf */
MPPEM[ ]	/* MeasurePixelPerEm */
PUSHB[ ]	/* 1 value pushed */
25 
LT[ ]	/* LessThan */
IF[ ]	/* If */
NPUSHB[ ]	/* 28 values pushed */
0 5 5 2 97 3 1 2 2 40 77 6 1 4 4 1 97 0 1 1 38 77 0 0 0 36 0 78 
ELSE[ ]	/* Else */
NPUSHB[ ]	/* 32 values pushed */
0 3 3 34 77 0 5 5 2 97 0 2 2 40 77 6 1 4 4 1 97 0 1 1 38 77 0 0 0 36 0 78 
EIF[ ]	/* EndIf */
NPUSHB[ ]	/* 15 values pushed */
25 24 32 30 24 38 25 38 19 39 37 16 7 8 26 
CALL[ ]	/* CallFunction */";
};
width = 1156;
}
);
note = q;
unicode = 113;
},
{
glyphname = r;
layers = (
{
layerId = m01;
shapes = (
{
closed = 1;
nodes = (
(517,205,l),
(517,735,l),
(547,780,o),
(586,804,qs),
(620,825,o),
(672,825,qs),
(686,825,l),
(831,817,l),
(862,1086,l),
(838,1093,o),
(776,1102,o),
(750,1102,qs),
(668,1102,o),
(550,1012,o),
(510,924,q),
(508,948,l),
(497,1082,l),
(70,1082,l),
(70,906,l),
(225,876,l),
(225,205,l),
(85,175,l),
(85,0,l),
(657,0,l),
(657,175,l)
);
}
);
width = 886;
}
);
note = r;
unicode = 114;
},
{
glyphname = s;
layers = (
{
layerId = m01;
shapes = (
{
closed = 1;
nodes = (
(964,165,o),
(964,316,qs),
(964,454,o),
(780,607,o),
(579,653,qs),
(497,672,o),
(411,714,o),
(382,762,o),
(382,790,qs),
(382,839,o),
(464,901,o),
(541,901,qs),
(587,901,o),
(660,881,o),
(687,861,q),
(718,719,l),
(920,719,l),
(917,1015,l),
(848,1053,o),
(645,1100,o),
(523,1100,qs),
(377,1100,o),
(190,1010,o),
(99,862,o),
(99,772,qs),
(99,641,o),
(281,473,o),
(473,433,qs),
(600,407,o),
(685,338,o),
(685,293,qs),
(685,245,o),
(605,181,o),
(507,181,qs),
(455,181,o),
(374,201,o),
(340,218,q),
(301,374,l),
(98,374,l),
(101,68,l),
(197,25,o),
(406,-21,o),
(527,-21,qs),
(745,-21,o)
);
}
);
userData = {
assembly = "NPUSHB[ ]	/* 66 values pushed */
25 1 5 3 3 1 0 2 2 76 0 4 5 1 5 4 1 128 0 1 2 5 1 2 126 0 5 5 3 97 0 3 3 40 77 0 2 2 0 97 6 1 0 0 38 0 78 1 0 32 30 27 26 23 21 10 8 5 4 0 43 1 43 7 8 22 
CALL[ ]	/* CallFunction */";
};
width = 1034;
}
);
note = s;
unicode = 115;
},
{
glyphname = t;
layers = (
{
layerId = m01;
shapes = (
{
closed = 1;
nodes = (
(644,-4,o),
(689,9,q),
(664,220,l),
(644,216,o),
(588,209,o),
(564,209,qs),
(518,209,o),
(465,263,o),
(465,326,qs),
(465,877,l),
(664,877,l),
(664,1082,l),
(465,1082,l),
(465,1347,l),
(174,1347,l),
(174,1082,l),
(25,1082,l),
(25,877,l),
(174,877,l),
(174,325,ls),
(174,145,o),
(337,-21,o),
(488,-21,qs),
(539,-21,o)
);
}
);
userData = {
assembly = "NPUSHB[ ]	/* 60 values pushed */
20 1 6 1 21 1 0 6 2 76 0 3 2 3 133 5 1 1 1 2 95 4 1 2 2 34 77 0 6 6 0 98 7 1 0 0 38 0 78 1 0 18 16 13 12 11 10 9 8 7 6 5 4 0 23 1 23 8 8 22 
CALL[ ]	/* CallFunction */";
};
width = 735;
}
);
note = t;
unicode = 116;
},
{
glyphname = u;
layers = (
{
layerId = m01;
shapes = (
{
closed = 1;
nodes = (
(773,61,o),
(824,137,q),
(844,0,l),
(1230,0,l),
(1230,175,l),
(1100,205,l),
(1100,1082,l),
(679,1082,l),
(679,906,l),
(808,876,l),
(808,304,l),
(776,257,o),
(676,206,o),
(611,206,qs),
(529,206,o),
(448,307,o),
(448,423,qs),
(448,1082,l),
(37,1082,l),
(37,906,l),
(156,876,l),
(156,425,ls),
(156,196,o),
(351,-21,o),
(522,-21,qs),
(619,-21,o)
);
}
);
width = 1275;
}
);
note = u;
unicode = 117;
},
{
glyphname = v;
layers = (
{
layerId = m01;
shapes = (
{
closed = 1;
nodes = (
(1225,1082,l),
(701,1082,l),
(701,907,l),
(834,886,l),
(655,396,l),
(627,312,l),
(621,312,l),
(596,396,l),
(433,887,l),
(547,907,l),
(547,1082,l),
(22,1082,l),
(22,906,l),
(139,888,l),
(466,0,l),
(763,0,l),
(1105,886,l),
(1225,906,l)
);
}
);
userData = {
assembly = "NPUSHB[ ]	/* 30 values pushed */
17 14 13 10 8 7 4 7 0 1 1 76 2 1 1 1 34 77 0 0 0 32 0 78 25 19 17 3 8 25 
CALL[ ]	/* CallFunction */";
};
width = 1247;
}
);
note = v;
unicode = 118;
},
{
glyphname = w;
layers = (
{
layerId = m01;
shapes = (
{
closed = 1;
nodes = (
(912,655,l),
(947,536,l),
(1145,0,l),
(1391,0,l),
(1666,882,l),
(1792,906,l),
(1792,1082,l),
(1280,1082,l),
(1280,907,l),
(1406,884,l),
(1288,456,l),
(1262,368,l),
(1256,368,l),
(1228,456,l),
(1013,1082,l),
(817,1082,l),
(595,464,l),
(568,381,l),
(562,381,l),
(542,464,l),
(442,885,l),
(556,907,l),
(556,1082,l),
(33,1082,l),
(33,906,l),
(165,882,l),
(417,0,l),
(676,0,l),
(871,535,l),
(906,655,l)
);
}
);
userData = {
assembly = "NPUSHB[ ]	/* 36 values pushed */
28 23 20 19 16 10 8 7 4 9 0 1 1 76 3 2 2 1 1 34 77 4 1 0 0 32 0 78 19 23 23 19 17 5 8 27 
CALL[ ]	/* CallFunction */";
};
width = 1822;
}
);
note = w;
unicode = 119;
},
{
glyphname = x;
layers = (
{
layerId = m01;
shapes = (
{
closed = 1;
nodes = (
(661,387,l),
(828,180,l),
(734,167,l),
(734,0,l),
(1289,0,l),
(1289,175,l),
(1156,193,l),
(847,554,l),
(1124,889,l),
(1245,906,l),
(1245,1082,l),
(728,1082,l),
(728,914,l),
(821,901,l),
(664,695,l),
(507,901,l),
(591,914,l),
(591,1082,l),
(55,1082,l),
(55,906,l),
(186,889,l),
(479,542,l),
(169,193,l),
(30,175,l),
(30,0,l),
(590,0,l),
(590,167,l),
(498,179,l)
);
}
);
userData = {
assembly = "NPUSHB[ ]	/* 41 values pushed */
27 26 25 24 21 19 17 14 13 12 11 10 7 5 3 0 16 0 1 1 76 2 1 1 1 34 77 3 1 0 0 32 0 78 22 22 22 17 4 8 26 
CALL[ ]	/* CallFunction */";
};
width = 1319;
}
);
note = x;
unicode = 120;
},
{
glyphname = y;
layers = (
{
layerId = m01;
shapes = (
{
closed = 1;
nodes = (
(610,-361,o),
(703,-236,o),
(733,-161,qs),
(1146,889,l),
(1268,906,l),
(1268,1082,l),
(733,1082,l),
(733,906,l),
(862,888,l),
(661,350,l),
(655,350,l),
(634,409,l),
(464,886,l),
(596,906,l),
(596,1082,l),
(22,1082,l),
(22,906,l),
(155,887,l),
(517,-12,l),
(493,-79,ls),
(472,-141,o),
(380,-207,o),
(317,-207,qs),
(300,-207,o),
(254,-203,o),
(235,-199,q),
(202,-413,l),
(240,-424,o),
(325,-437,o),
(363,-437,qs),
(467,-437,o)
);
}
);
userData = {
assembly = "NPUSHB[ ]	/* 50 values pushed */
25 22 21 19 17 16 13 11 8 1 2 3 1 0 1 2 76 3 1 2 2 34 77 0 1 1 0 98 4 1 0 0 42 0 78 1 0 24 23 15 14 8 6 0 30 1 30 5 8 22 
CALL[ ]	/* CallFunction */";
};
width = 1285;
}
);
note = y;
unicode = 121;
},
{
glyphname = z;
layers = (
{
layerId = m01;
shapes = (
{
closed = 1;
nodes = (
(776,209,l),
(470,209,l),
(1001,895,l),
(1001,1082,l),
(112,1082,l),
(112,693,l),
(326,693,l),
(359,878,l),
(651,878,l),
(88,172,l),
(88,0,l),
(1024,0,l),
(1024,408,l),
(819,408,l)
);
}
);
userData = {
assembly = "NPUSHB[ ]	/* 10 values pushed */
10 1 1 3 3 1 0 4 2 76 
MPPEM[ ]	/* MeasurePixelPerEm */
PUSHB[ ]	/* 1 value pushed */
12 
LT[ ]	/* LessThan */
IF[ ]	/* If */
NPUSHB[ ]	/* 35 values pushed */
0 2 1 5 1 2 114 6 1 5 4 4 5 112 0 1 1 3 95 0 3 3 34 77 0 4 4 0 96 0 0 0 32 0 78 
ELSE[ ]	/* Else */
MPPEM[ ]	/* MeasurePixelPerEm */
PUSHB[ ]	/* 1 value pushed */
14 
LT[ ]	/* LessThan */
IF[ ]	/* If */
NPUSHB[ ]	/* 36 values pushed */
0 2 1 5 1 2 114 6 1 5 4 1 5 4 126 0 1 1 3 95 0 3 3 34 77 0 4 4 0 96 0 0 0 32 0 78 
ELSE[ ]	/* Else */
NPUSHB[ ]	/* 37 values pushed */
0 2 1 5 1 2 5 128 6 1 5 4 1 5 4 126 0 1 1 3 95 0 3 3 34 77 0 4 4 0 96 0 0 0 32 0 78 
EIF[ ]	/* EndIf */
EIF[ ]	/* EndIf */
NPUSHB[ ]	/* 14 values pushed */
0 0 0 13 0 13 18 17 17 18 17 7 8 27 
CALL[ ]	/* CallFunction */";
};
width = 1107;
}
);
note = z;
unicode = 122;
},
{
glyphname = uni1780;
layers = (
{
layerId = m01;
shapes = (
{
closed = 1;
nodes = (
(1213,931,o),
(791,931,qs),
(651,931,ls),
(229,931,o),
(229,668,qs),
(229,0,l),
(492,0,l),
(492,668,ls),
(492,788,o),
(651,788,qs),
(791,788,ls),
(951,788,o),
(951,668,qs),
(951,0,l),
(1213,0,l),
(1213,668,ls)
);
},
{
closed = 1;
nodes = (
(1178,994,qs),
(1253,994,o),
(1306,1165,q),
(1253,1165,ls),
(1206,1165,o),
(1165,1190,qs),
(980,1303,l),
(893,1303,l),
(749,1178,l),
(550,1303,l),
(453,1303,l),
(136,1117,l),
(136,1065,l),
(239,976,l),
(270,952,o),
(361,952,qs),
(363,952,ls),
(395,952,o),
(443,1025,q),
(331,1105,l),
(406,1150,l),
(636,1004,l),
(716,1004,l),
(843,1124,l),
(1010,1032,ls),
(1073,994,o)
);
}
);
userData = {
assembly = "NPUSHB[ ]	/* 15 values pushed */
32 1 8 6 29 28 22 21 20 17 6 4 8 2 76 
MPPEM[ ]	/* MeasurePixelPerEm */
PUSHB[ ]	/* 1 value pushed */
50 
LT[ ]	/* LessThan */
IF[ ]	/* If */
NPUSHB[ ]	/* 38 values pushed */
0 5 4 3 4 5 3 128 0 8 9 1 4 5 8 4 105 0 3 0 1 0 3 1 106 7 1 6 6 17 77 2 1 0 0 19 0 78 
ELSE[ ]	/* Else */
NPUSHB[ ]	/* 45 values pushed */
0 4 8 9 8 4 9 128 0 5 9 3 9 5 3 128 0 8 0 9 5 8 9 105 0 3 0 1 0 3 1 106 7 1 6 6 17 77 2 1 0 0 19 0 78 
EIF[ ]	/* EndIf */
NPUSHB[ ]	/* 14 values pushed */
41 39 34 18 20 52 20 50 18 50 16 10 7 31 
CALL[ ]	/* CallFunction */";
};
width = 1442;
}
);
note = uni1780;
unicode = 6016;
},
{
glyphname = uni1781;
layers = (
{
layerId = m01;
shapes = (
{
closed = 1;
nodes = (
(526,902,qs),
(538,896,o),
(538,884,qs),
(538,862,o),
(526,850,qs),
(515,839,o),
(492,839,q),
(492,908,l),
(515,908,o)
);
},
{
closed = 1;
nodes = (
(869,777,o),
(788,734,qs),
(229,442,l),
(229,263,ls),
(229,0,o),
(651,0,qs),
(791,0,ls),
(1213,0,o),
(1213,263,qs),
(1213,565,l),
(951,478,l),
(951,263,ls),
(951,143,o),
(791,143,qs),
(651,143,ls),
(492,143,o),
(492,263,qs),
(492,423,l),
(812,591,ls),
(1131,758,o),
(1213,861,o),
(1213,931,qs),
(1213,1051,ls),
(1213,1303,o),
(791,1303,qs),
(651,1303,ls),
(229,1303,o),
(229,1051,qs),
(229,838,ls),
(229,791,o),
(270,768,qs),
(311,745,o),
(362,745,qs),
(492,745,ls),
(562,745,o),
(597,780,qs),
(632,815,o),
(632,884,qs),
(632,942,o),
(597,972,qs),
(562,1001,o),
(492,1001,q),
(492,1051,ls),
(492,1160,o),
(651,1160,qs),
(791,1160,ls),
(951,1160,o),
(951,1051,qs),
(951,931,ls),
(950,872,o)
);
}
);
userData = {
assembly = "NPUSHB[ ]	/* 14 values pushed */
5 0 2 0 2 55 48 47 40 4 5 3 2 76 
MPPEM[ ]	/* MeasurePixelPerEm */
PUSHB[ ]	/* 1 value pushed */
17 
LT[ ]	/* LessThan */
IF[ ]	/* If */
NPUSHB[ ]	/* 36 values pushed */
0 2 1 0 0 2 114 0 0 0 3 5 0 3 106 0 1 1 4 97 0 4 4 17 77 0 5 5 6 97 0 6 6 19 6 78 
ELSE[ ]	/* Else */
NPUSHB[ ]	/* 37 values pushed */
0 2 1 0 1 2 0 128 0 0 0 3 5 0 3 106 0 1 1 4 97 0 4 4 17 77 0 5 5 6 97 0 6 6 19 6 78 
EIF[ ]	/* EndIf */
NPUSHB[ ]	/* 10 values pushed */
53 56 53 54 18 57 17 7 7 29 
CALL[ ]	/* CallFunction */";
};
width = 1442;
}
);
note = uni1781;
unicode = 6017;
},
{
glyphname = uni1782;
layers = (
{
layerId = m01;
shapes = (
{
closed = 1;
nodes = (
(1178,994,qs),
(1253,994,o),
(1306,1165,q),
(1253,1165,ls),
(1206,1165,o),
(1165,1190,qs),
(980,1303,l),
(893,1303,l),
(749,1178,l),
(550,1303,l),
(453,1303,l),
(136,1117,l),
(136,1065,l),
(239,976,l),
(270,952,o),
(361,952,qs),
(363,952,ls),
(395,952,o),
(443,1025,q),
(331,1105,l),
(406,1150,l),
(636,1004,l),
(716,1004,l),
(843,1124,l),
(1010,1032,ls),
(1073,994,o)
);
},
{
closed = 1;
nodes = (
(651,788,qs),
(791,788,ls),
(951,788,o),
(951,668,qs),
(951,0,l),
(1213,0,l),
(1213,668,ls),
(1213,931,o),
(791,931,qs),
(651,931,ls),
(229,931,o),
(229,668,qs),
(229,0,l),
(492,0,l),
(492,97,l),
(547,172,ls),
(582,220,o),
(616,242,qs),
(650,262,o),
(714,262,qs),
(778,262,o),
(801,306,qs),
(811,324,o),
(811,369,qs),
(811,413,o),
(790,432,qs),
(755,465,o),
(698,466,qs),
(651,466,o),
(605,443,qs),
(569,426,o),
(492,303,q),
(492,668,ls),
(492,788,o)
);
}
);
userData = {
assembly = "NPUSHB[ ]	/* 23 values pushed */
16 1 4 2 13 12 6 5 4 1 6 0 4 27 1 7 6 44 1 8 7 4 76 
MPPEM[ ]	/* MeasurePixelPerEm */
PUSHB[ ]	/* 1 value pushed */
50 
LT[ ]	/* LessThan */
IF[ ]	/* If */
NPUSHB[ ]	/* 46 values pushed */
0 1 0 9 0 1 9 128 0 4 5 1 0 1 4 0 105 0 9 0 11 6 9 11 106 0 6 0 7 8 6 7 105 3 1 2 2 17 77 10 1 8 8 19 8 78 
ELSE[ ]	/* Else */
NPUSHB[ ]	/* 53 values pushed */
0 0 4 5 4 0 5 128 0 1 5 9 5 1 9 128 0 4 0 5 1 4 5 105 0 9 0 11 6 9 11 106 0 6 0 7 8 6 7 105 3 1 2 2 17 77 10 1 8 8 19 8 78 
EIF[ ]	/* EndIf */
NPUSHB[ ]	/* 18 values pushed */
59 56 54 53 51 48 21 38 37 33 34 18 20 52 18 12 7 31 
CALL[ ]	/* CallFunction */";
};
width = 1442;
}
);
note = uni1782;
unicode = 6018;
},
{
glyphname = uni1783;
layers = (
{
layerId = m01;
shapes = (
{
closed = 1;
nodes = (
(179,969,qs),
(156,982,o),
(156,1014,qs),
(156,1035,o),
(179,1072,qs),
(203,1110,o),
(229,1133,q),
(229,954,l),
(203,954,o)
);
},
{
closed = 1;
nodes = (
(675,0,qs),
(768,0,ls),
(971,0,o),
(1082,55,q),
(1192,0,o),
(1396,0,qs),
(1489,0,ls),
(1934,0,o),
(1934,263,qs),
(1934,869,l),
(1694,1009,l),
(1744,1085,l),
(1878,997,o),
(1923,997,qs),
(2020,997,o),
(2057,1187,q),
(1982,1187,o),
(1928,1216,qs),
(1765,1303,l),
(1558,1025,l),
(1558,935,l),
(1671,862,l),
(1671,263,ls),
(1671,143,o),
(1489,143,qs),
(1396,143,ls),
(1213,143,o),
(1213,263,qs),
(1213,869,l),
(973,1009,l),
(1023,1085,l),
(1157,997,o),
(1202,997,qs),
(1299,997,o),
(1336,1187,q),
(1261,1187,o),
(1207,1216,qs),
(1044,1303,l),
(837,1025,l),
(837,935,l),
(950,862,l),
(950,263,ls),
(950,143,o),
(768,143,qs),
(675,143,ls),
(492,143,o),
(492,263,qs),
(492,1303,l),
(229,1303,l),
(110,1145,o),
(86,1098,qs),
(63,1052,o),
(63,1013,qs),
(63,933,o),
(110,897,qs),
(156,861,o),
(229,861,q),
(229,263,ls),
(229,0,o)
);
}
);
userData = {
assembly = "NPUSHB[ ]	/* 96 values pushed */
56 55 47 37 36 28 1 7 5 4 57 46 45 38 27 26 6 1 0 63 1 9 3 3 76 48 29 2 2 74 7 1 4 8 1 5 0 4 5 105 11 1 0 0 1 3 0 1 105 0 2 2 17 77 6 1 3 3 9 98 10 1 9 9 19 9 78 0 0 67 64 62 59 54 52 51 50 43 40 35 33 32 31 24 21 19 18 11 10 0 8 0 8 12 7 22 
CALL[ ]	/* CallFunction */";
};
width = 2164;
}
);
note = uni1783;
unicode = 6019;
},
{
glyphname = uni1784;
layers = (
{
layerId = m01;
shapes = (
{
closed = 1;
nodes = (
(824,1184,qs),
(839,1197,o),
(868,1198,qs),
(897,1197,o),
(911,1184,qs),
(924,1171,o),
(924,1147,qs),
(924,1121,o),
(911,1108,qs),
(897,1094,o),
(868,1094,qs),
(839,1094,o),
(824,1108,qs),
(810,1121,o),
(810,1145,qs),
(810,1170,o)
);
},
{
closed = 1;
nodes = (
(197,564,qs),
(179,570,o),
(179,582,qs),
(179,601,o),
(197,631,qs),
(214,661,o),
(229,669,q),
(229,559,l),
(214,559,o)
);
},
{
closed = 1;
nodes = (
(1069,1143,qs),
(1069,1223,o),
(1026,1263,qs),
(983,1303,o),
(848,1303,qs),
(762,1303,o),
(719,1263,qs),
(675,1223,o),
(675,1146,qs),
(675,1112,o),
(690,1094,q),
(558,1094,ls),
(492,1094,o),
(492,1164,qs),
(492,1304,ls),
(492,1489,o),
(302,1489,qs),
(194,1489,o),
(165,1461,qs),
(136,1432,o),
(136,1373,q),
(182,1373,o),
(206,1355,qs),
(229,1338,o),
(229,1304,qs),
(229,1164,ls),
(229,951,o),
(558,951,qs),
(807,951,l),
(950,861,l),
(950,181,l),
(721,360,l),
(492,181,l),
(492,838,l),
(229,838,l),
(132,707,o),
(108,664,qs),
(86,620,o),
(86,581,qs),
(86,523,o),
(127,494,qs),
(167,465,o),
(229,465,q),
(229,0,l),
(492,0,l),
(721,180,l),
(950,0,l),
(1213,0,l),
(1213,946,l),
(1014,1039,l),
(1069,1093,o)
);
}
);
userData = {
assembly = "NPUSHB[ ]	/* 83 values pushed */
45 26 2 5 6 17 1 4 5 44 43 42 29 4 2 4 3 76 0 8 7 8 133 0 7 10 7 133 0 4 5 2 5 4 2 128 9 1 0 0 6 5 0 6 104 0 1 1 10 97 0 10 10 17 77 0 5 5 2 95 3 1 2 2 19 2 78 71 69 64 62 35 21 37 23 17 18 30 38 35 11 7 31 
CALL[ ]	/* CallFunction */";
};
width = 1442;
}
);
note = uni1784;
unicode = 6020;
},
{
glyphname = uni1785;
layers = (
{
layerId = m01;
shapes = (
{
closed = 1;
nodes = (
(898,587,q),
(881,594,o),
(881,605,qs),
(881,626,o),
(898,654,qs),
(916,683,o),
(951,722,q),
(951,582,l),
(916,582,o)
);
},
{
closed = 1;
nodes = (
(651,0,qs),
(791,0,ls),
(1213,0,o),
(1213,263,qs),
(1213,861,l),
(951,861,l),
(878,781,ls),
(832,732,o),
(810,687,qs),
(788,642,o),
(788,604,qs),
(788,546,o),
(829,518,qs),
(870,489,o),
(951,489,q),
(951,263,ls),
(951,143,o),
(791,143,qs),
(651,143,ls),
(492,143,o),
(492,263,qs),
(492,975,l),
(331,1105,l),
(406,1150,l),
(636,1004,l),
(716,1004,l),
(843,1124,l),
(1010,1032,ls),
(1073,994,o),
(1178,994,qs),
(1253,994,o),
(1306,1165,q),
(1253,1165,ls),
(1206,1165,o),
(1165,1190,qs),
(980,1303,l),
(893,1303,l),
(749,1178,l),
(550,1303,l),
(453,1303,l),
(136,1117,l),
(136,1005,l),
(229,921,l),
(229,263,ls),
(229,0,o)
);
}
);
userData = {
assembly = "MPPEM[ ]	/* MeasurePixelPerEm */
PUSHB[ ]	/* 1 value pushed */
50 
LT[ ]	/* LessThan */
IF[ ]	/* If */
NPUSHB[ ]	/* 24 values pushed */
15 1 3 1 30 29 26 12 11 5 4 3 31 10 2 8 4 5 1 2 0 8 4 76 
ELSE[ ]	/* Else */
NPUSHB[ ]	/* 24 values pushed */
15 1 3 1 30 29 26 12 11 5 5 3 31 10 2 8 4 5 1 2 0 8 4 76 
EIF[ ]	/* EndIf */
MPPEM[ ]	/* MeasurePixelPerEm */
PUSHB[ ]	/* 1 value pushed */
50 
LT[ ]	/* LessThan */
IF[ ]	/* If */
NPUSHB[ ]	/* 43 values pushed */
0 8 4 0 4 8 0 128 0 3 5 1 4 8 3 4 105 10 1 0 0 7 6 0 7 106 2 1 1 1 17 77 0 6 6 9 98 0 9 9 19 9 78 
ELSE[ ]	/* Else */
NPUSHB[ ]	/* 50 values pushed */
0 5 3 4 3 5 4 128 0 8 4 0 4 8 0 128 0 3 0 4 8 3 4 105 10 1 0 0 7 6 0 7 106 2 1 1 1 17 77 0 6 6 9 98 0 9 9 19 9 78 
EIF[ ]	/* EndIf */
NPUSHB[ ]	/* 27 values pushed */
0 0 53 50 48 47 39 38 36 33 28 27 24 22 21 19 17 16 14 13 0 8 0 8 11 7 22 
CALL[ ]	/* CallFunction */";
};
width = 1442;
}
);
note = uni1785;
unicode = 6021;
},
{
glyphname = uni1786;
layers = (
{
layerId = m01;
shapes = (
{
closed = 1;
nodes = (
(898,587,q),
(881,594,o),
(881,605,qs),
(881,626,o),
(898,654,qs),
(916,683,o),
(951,722,q),
(951,582,l),
(916,582,o)
);
},
{
closed = 1;
nodes = (
(631,306,o),
(631,217,qs),
(631,0,o),
(884,0,qs),
(1213,0,o),
(1213,233,qs),
(1213,861,l),
(951,861,l),
(878,781,ls),
(832,732,o),
(810,687,qs),
(788,642,o),
(788,604,qs),
(788,546,o),
(829,518,qs),
(870,489,o),
(951,489,q),
(951,461,l),
(950,461,l),
(950,233,ls),
(950,143,o),
(884,143,qs),
(774,143,o),
(774,217,qs),
(774,449,o),
(531,449,qs),
(492,449,l),
(492,975,l),
(331,1105,l),
(406,1150,l),
(636,1004,l),
(716,1004,l),
(843,1124,l),
(1010,1032,ls),
(1073,994,o),
(1178,994,qs),
(1253,994,o),
(1306,1165,q),
(1253,1165,ls),
(1206,1165,o),
(1165,1190,qs),
(980,1303,l),
(893,1303,l),
(749,1178,l),
(550,1303,l),
(453,1303,l),
(136,1117,l),
(136,1005,l),
(229,921,l),
(229,449,l),
(179,449,o),
(109,337,o),
(109,256,qs),
(109,194,o),
(127,146,qs),
(144,99,o),
(229,0,q),
(492,0,l),
(492,306,l),
(531,306,ls)
);
}
);
userData = {
assembly = "MPPEM[ ]	/* MeasurePixelPerEm */
PUSHB[ ]	/* 1 value pushed */
50 
LT[ ]	/* LessThan */
IF[ ]	/* If */
NPUSHB[ ]	/* 24 values pushed */
24 1 5 3 39 38 35 21 20 5 6 5 40 19 2 11 6 5 1 2 0 11 4 76 
ELSE[ ]	/* Else */
NPUSHB[ ]	/* 24 values pushed */
24 1 5 3 39 38 35 21 20 5 7 5 40 19 2 11 6 5 1 2 0 11 4 76 
EIF[ ]	/* EndIf */
MPPEM[ ]	/* MeasurePixelPerEm */
PUSHB[ ]	/* 1 value pushed */
50 
LT[ ]	/* LessThan */
IF[ ]	/* If */
NPUSHB[ ]	/* 54 values pushed */
0 11 6 0 6 11 0 128 0 5 7 1 6 11 5 6 105 14 1 0 0 10 2 0 10 106 8 1 2 15 1 13 9 2 13 106 4 1 3 3 17 77 0 9 9 1 98 12 1 1 1 19 1 78 
ELSE[ ]	/* Else */
NPUSHB[ ]	/* 61 values pushed */
0 7 5 6 5 7 6 128 0 11 6 0 6 11 0 128 0 5 0 6 11 5 6 105 14 1 0 0 10 2 0 10 106 8 1 2 15 1 13 9 2 13 106 4 1 3 3 17 77 0 9 9 1 98 12 1 1 1 19 1 78 
EIF[ ]	/* EndIf */
NPUSHB[ ]	/* 39 values pushed */
9 9 0 0 9 68 9 67 65 63 61 60 52 51 47 45 43 41 37 36 33 31 30 28 26 25 23 22 18 17 11 10 0 8 0 8 16 7 22 
CALL[ ]	/* CallFunction */";
};
width = 1442;
}
);
note = uni1786;
unicode = 6022;
},
{
glyphname = uni1787;
layers = (
{
layerId = m01;
shapes = (
{
closed = 1;
nodes = (
(721,180,l),
(950,0,l),
(1213,0,l),
(1213,861,l),
(950,861,l),
(950,181,l),
(721,360,l),
(492,181,l),
(492,936,l),
(318,1060,l),
(393,1118,l),
(612,971,l),
(838,971,ls),
(1213,971,o),
(1213,1210,qs),
(1213,1443,o),
(997,1443,qs),
(911,1443,o),
(882,1421,qs),
(854,1397,o),
(854,1350,q),
(950,1350,o),
(951,1210,qs),
(950,1114,o),
(848,1114,qs),
(805,1114,l),
(505,1303,l),
(403,1303,l),
(136,1110,l),
(136,959,l),
(229,886,l),
(229,0,l),
(492,0,l)
);
}
);
userData = {
assembly = "NPUSHB[ ]	/* 74 values pushed */
21 1 1 0 22 3 2 4 1 23 2 1 3 5 4 31 26 25 24 4 6 5 4 76 0 3 0 2 0 3 2 105 0 1 0 4 5 1 4 103 0 0 0 17 77 0 5 5 6 95 8 7 2 6 6 19 6 78 0 0 0 32 0 32 17 23 34 35 18 33 20 9 7 29 
CALL[ ]	/* CallFunction */";
};
width = 1442;
}
);
note = uni1787;
unicode = 6023;
},
{
glyphname = uni1788;
layers = (
{
layerId = m01;
shapes = (
{
closed = 1;
nodes = (
(561,337,qs),
(578,326,o),
(578,303,qs),
(578,275,o),
(564,247,qs),
(550,220,o),
(492,151,q),
(492,349,l),
(519,349,ls),
(543,349,o)
);
},
{
closed = 1;
nodes = (
(2117,0,qs),
(2210,0,ls),
(2655,0,o),
(2655,263,qs),
(2655,869,l),
(2415,1009,l),
(2465,1085,l),
(2599,997,o),
(2644,997,qs),
(2741,997,o),
(2778,1187,q),
(2703,1187,o),
(2649,1216,qs),
(2486,1303,l),
(2279,1025,l),
(2279,935,l),
(2392,862,l),
(2392,263,ls),
(2392,143,o),
(2210,143,qs),
(2117,143,ls),
(1934,143,o),
(1934,263,qs),
(1934,869,l),
(1694,1009,l),
(1744,1085,l),
(1878,997,o),
(1923,997,qs),
(2020,997,o),
(2057,1187,q),
(1982,1187,o),
(1928,1216,qs),
(1765,1303,l),
(1558,1025,l),
(1558,935,l),
(1671,862,l),
(1671,263,ls),
(1671,143,o),
(1489,143,qs),
(1396,143,ls),
(1213,143,o),
(1213,263,qs),
(1213,1103,l),
(721,1303,l),
(229,1104,l),
(229,0,l),
(492,0,l),
(614,119,o),
(681,235,o),
(681,303,qs),
(681,372,o),
(640,408,qs),
(600,442,o),
(519,442,qs),
(492,442,l),
(492,1055,l),
(601,1105,l),
(950,964,l),
(950,263,ls),
(950,0,o),
(1396,0,qs),
(1489,0,ls),
(1692,0,o),
(1803,55,q),
(1913,0,o)
);
}
);
userData = {
assembly = "NPUSHB[ ]	/* 97 values pushed */
68 67 59 49 48 40 31 29 18 17 10 6 5 69 58 57 50 39 38 16 7 2 6 2 1 4 0 3 76 60 41 30 3 5 74 8 1 5 9 1 6 2 5 6 105 0 2 11 1 0 4 2 0 105 7 1 4 4 1 97 10 3 2 1 1 19 1 78 1 0 74 71 66 64 63 62 55 52 47 45 44 43 36 33 28 27 21 19 14 11 0 9 1 9 12 7 22 
CALL[ ]	/* CallFunction */";
};
width = 2885;
}
);
note = uni1788;
unicode = 6024;
},
{
glyphname = uni1789;
layers = (
{
layerId = m01;
shapes = (
{
closed = 1;
nodes = (
(561,337,qs),
(578,326,o),
(578,303,qs),
(578,275,o),
(564,247,qs),
(550,220,o),
(492,151,q),
(492,349,l),
(519,349,ls),
(543,349,o)
);
},
{
closed = 1;
nodes = (
(1723,-93,qs),
(1634,-93,o),
(1556,-170,o),
(1556,-216,q),
(1673,-216,o),
(1673,-279,qs),
(1673,-435,o),
(1522,-435,qs),
(1414,-435,o),
(929,-140,o),
(611,-140,qs),
(415,-140,o),
(229,-223,o),
(229,-270,qs),
(229,-347,l),
(298,-305,o),
(455,-263,o),
(551,-263,qs),
(681,-263,o),
(1146,-559,o),
(1522,-559,qs),
(1769,-559,o),
(1852,-489,qs),
(1935,-419,o),
(1935,-279,qs),
(1935,-93,o)
);
},
{
closed = 1;
nodes = (
(515,1303,l),
(229,1056,l),
(229,0,l),
(492,0,l),
(614,119,o),
(681,235,o),
(681,303,qs),
(681,372,o),
(640,408,qs),
(600,442,o),
(519,442,qs),
(492,442,l),
(492,1056,l),
(533,1103,l),
(722,957,l),
(911,1103,l),
(950,1055,l),
(950,0,l),
(1213,0,l),
(1213,1014,l),
(1373,1095,l),
(1672,941,l),
(1672,0,l),
(1935,0,l),
(1935,1054,l),
(1443,1303,l),
(1129,1126,l),
(928,1303,l),
(722,1140,l)
);
}
);
userData = {
assembly = "NPUSHB[ ]	/* 27 values pushed */
2 1 7 0 20 1 4 2 2 76 64 63 62 51 50 49 48 47 44 43 42 39 38 37 14 9 74 
MPPEM[ ]	/* MeasurePixelPerEm */
PUSHB[ ]	/* 1 value pushed */
9 
LT[ ]	/* LessThan */
IF[ ]	/* If */
NPUSHB[ ]	/* 43 values pushed */
0 9 11 1 0 7 9 0 105 0 6 0 5 2 6 5 105 0 3 0 2 4 3 2 105 10 8 2 7 7 19 77 0 4 4 1 97 0 1 1 20 1 78 
ELSE[ ]	/* Else */
MPPEM[ ]	/* MeasurePixelPerEm */
PUSHB[ ]	/* 1 value pushed */
10 
LT[ ]	/* LessThan */
IF[ ]	/* If */
NPUSHB[ ]	/* 40 values pushed */
0 9 11 1 0 7 9 0 105 0 6 0 5 2 6 5 105 0 3 0 2 4 3 2 105 0 4 0 1 4 1 101 10 8 2 7 7 19 7 78 
ELSE[ ]	/* Else */
MPPEM[ ]	/* MeasurePixelPerEm */
PUSHB[ ]	/* 1 value pushed */
12 
LT[ ]	/* LessThan */
IF[ ]	/* If */
NPUSHB[ ]	/* 43 values pushed */
0 9 11 1 0 7 9 0 105 0 6 0 5 2 6 5 105 0 3 0 2 4 3 2 105 10 8 2 7 7 19 77 0 4 4 1 97 0 1 1 20 1 78 
ELSE[ ]	/* Else */
MPPEM[ ]	/* MeasurePixelPerEm */
PUSHB[ ]	/* 1 value pushed */
13 
LT[ ]	/* LessThan */
IF[ ]	/* If */
NPUSHB[ ]	/* 44 values pushed */
0 9 11 1 0 7 9 0 105 0 4 0 1 4 1 101 10 8 2 7 7 19 77 0 5 5 6 97 0 6 6 18 77 0 2 2 3 97 0 3 3 18 2 78 
ELSE[ ]	/* Else */
MPPEM[ ]	/* MeasurePixelPerEm */
PUSHB[ ]	/* 1 value pushed */
15 
LT[ ]	/* LessThan */
IF[ ]	/* If */
NPUSHB[ ]	/* 47 values pushed */
0 9 11 1 0 7 9 0 105 10 8 2 7 7 19 77 0 5 5 6 97 0 6 6 18 77 0 2 2 3 97 0 3 3 18 77 0 4 4 1 97 0 1 1 20 1 78 
ELSE[ ]	/* Else */
MPPEM[ ]	/* MeasurePixelPerEm */
PUSHB[ ]	/* 1 value pushed */
17 
LT[ ]	/* LessThan */
IF[ ]	/* If */
NPUSHB[ ]	/* 44 values pushed */
0 9 11 1 0 7 9 0 105 0 4 0 1 4 1 101 10 8 2 7 7 19 77 0 5 5 6 97 0 6 6 18 77 0 2 2 3 97 0 3 3 18 2 78 
ELSE[ ]	/* Else */
MPPEM[ ]	/* MeasurePixelPerEm */
PUSHB[ ]	/* 1 value pushed */
20 
LT[ ]	/* LessThan */
IF[ ]	/* If */
NPUSHB[ ]	/* 47 values pushed */
0 9 11 1 0 7 9 0 105 10 8 2 7 7 19 77 0 5 5 6 97 0 6 6 18 77 0 2 2 3 97 0 3 3 18 77 0 4 4 1 97 0 1 1 20 1 78 
ELSE[ ]	/* Else */
MPPEM[ ]	/* MeasurePixelPerEm */
PUSHB[ ]	/* 1 value pushed */
22 
LT[ ]	/* LessThan */
IF[ ]	/* If */
NPUSHB[ ]	/* 44 values pushed */
0 9 11 1 0 7 9 0 105 0 4 0 1 4 1 101 10 8 2 7 7 19 77 0 5 5 6 97 0 6 6 18 77 0 2 2 3 97 0 3 3 18 2 78 
ELSE[ ]	/* Else */
NPUSHB[ ]	/* 42 values pushed */
0 9 11 1 0 7 9 0 105 0 3 0 2 4 3 2 105 0 4 0 1 4 1 101 10 8 2 7 7 19 77 0 5 5 6 97 0 6 6 18 5 78 
EIF[ ]	/* EndIf */
EIF[ ]	/* EndIf */
EIF[ ]	/* EndIf */
EIF[ ]	/* EndIf */
EIF[ ]	/* EndIf */
EIF[ ]	/* EndIf */
EIF[ ]	/* EndIf */
EIF[ ]	/* EndIf */
NPUSHB[ ]	/* 29 values pushed */
1 0 61 60 54 52 46 45 41 40 35 33 31 30 28 26 25 23 18 16 15 13 0 9 1 9 12 7 22 
CALL[ ]	/* CallFunction */";
};
width = 2164;
}
);
note = uni1789;
unicode = 6025;
},
{
glyphname = uni178A;
layers = (
{
layerId = m01;
shapes = (
{
closed = 1;
nodes = (
(492,1144,qs),
(492,1170,o),
(516,1170,qs),
(539,1170,o),
(539,1144,q),
(586,1144,o),
(608,1161,qs),
(632,1179,o),
(632,1213,qs),
(632,1303,o),
(464,1303,qs),
(229,1303,o),
(229,1144,qs),
(229,951,o),
(675,951,qs),
(768,951,ls),
(1213,951,o),
(1213,1221,qs),
(1213,1443,o),
(977,1443,qs),
(881,1443,o),
(857,1420,qs),
(834,1396,o),
(834,1350,q),
(950,1350,o),
(950,1221,qs),
(950,1094,o),
(768,1094,qs),
(675,1094,ls),
(492,1094,o)
);
},
{
closed = 1;
nodes = (
(950,0,l),
(1213,0,l),
(1213,841,l),
(950,841,l),
(950,181,l),
(721,360,l),
(492,181,l),
(492,841,l),
(229,841,l),
(229,0,l),
(492,0,l),
(721,180,l)
);
}
);
userData = {
assembly = "NPUSHB[ ]	/* 9 values pushed */
41 36 35 34 4 7 8 1 76 
MPPEM[ ]	/* MeasurePixelPerEm */
PUSHB[ ]	/* 1 value pushed */
20 
LT[ ]	/* LessThan */
IF[ ]	/* If */
NPUSHB[ ]	/* 41 values pushed */
0 2 0 1 4 2 1 105 11 1 0 0 3 8 0 3 105 6 1 5 5 4 97 0 4 4 17 77 9 1 8 8 7 95 10 1 7 7 19 7 78 
ELSE[ ]	/* Else */
NPUSHB[ ]	/* 47 values pushed */
0 5 6 0 6 5 114 0 2 0 1 4 2 1 105 11 1 0 0 3 8 0 3 105 0 6 6 4 97 0 4 4 17 77 9 1 8 8 7 95 10 1 7 7 19 7 78 
EIF[ ]	/* EndIf */
NPUSHB[ ]	/* 29 values pushed */
2 0 40 39 38 37 33 32 31 30 27 25 24 23 19 17 15 12 10 8 5 4 0 29 2 29 12 7 22 
CALL[ ]	/* CallFunction */";
};
width = 1442;
}
);
note = uni178A;
unicode = 6026;
},
{
glyphname = uni178B;
layers = (
{
layerId = m01;
shapes = (
{
closed = 1;
nodes = (
(179,969,qs),
(156,982,o),
(156,1014,qs),
(156,1035,o),
(179,1072,qs),
(203,1110,o),
(229,1133,q),
(229,954,l),
(203,954,o)
);
},
{
closed = 1;
nodes = (
(982,1075,l),
(1156,997,o),
(1202,997,qs),
(1255,997,o),
(1335,1147,o),
(1335,1290,qs),
(1335,1395,o),
(1300,1447,qs),
(1266,1499,o),
(1146,1499,qs),
(1099,1499,o),
(1076,1476,qs),
(1053,1453,o),
(1053,1386,q),
(1123,1386,o),
(1157,1358,qs),
(1192,1329,o),
(1192,1290,qs),
(1192,1256,o),
(1184,1238,qs),
(1181,1231,o),
(1177,1227,q),
(984,1303,l),
(817,1025,l),
(817,945,l),
(950,862,l),
(950,263,ls),
(950,143,o),
(768,143,qs),
(675,143,ls),
(492,143,o),
(492,263,qs),
(492,1303,l),
(229,1303,l),
(110,1145,o),
(86,1098,qs),
(63,1052,o),
(63,1013,qs),
(63,933,o),
(110,897,qs),
(156,861,o),
(229,861,q),
(229,263,ls),
(229,0,o),
(675,0,qs),
(768,0,ls),
(1213,0,o),
(1213,263,qs),
(1213,869,l),
(952,1009,l)
);
}
);
userData = {
assembly = "NPUSHB[ ]	/* 85 values pushed */
58 57 36 34 1 5 7 3 33 32 9 3 2 0 2 76 35 1 3 1 75 0 7 3 0 3 7 0 128 0 6 0 5 3 6 5 105 8 1 0 0 2 4 0 2 105 0 3 3 17 77 0 4 4 1 98 0 1 1 19 1 78 0 0 56 54 49 47 44 43 30 27 25 24 17 16 14 11 0 8 0 8 9 7 22 
CALL[ ]	/* CallFunction */";
};
width = 1442;
}
);
note = uni178B;
unicode = 6027;
},
{
glyphname = uni178C;
layers = (
{
layerId = m01;
shapes = (
{
closed = 1;
nodes = (
(526,902,qs),
(538,896,o),
(538,884,qs),
(538,862,o),
(526,850,qs),
(515,839,o),
(492,839,q),
(492,908,l),
(515,908,o)
);
},
{
closed = 1;
nodes = (
(492,263,qs),
(492,423,l),
(812,591,ls),
(1131,758,o),
(1213,861,o),
(1213,931,qs),
(1213,1056,l),
(928,1303,l),
(722,1140,l),
(515,1303,l),
(229,1056,l),
(229,838,ls),
(229,791,o),
(270,768,qs),
(311,745,o),
(362,745,qs),
(492,745,ls),
(562,745,o),
(597,780,qs),
(632,815,o),
(632,884,qs),
(632,942,o),
(597,972,qs),
(562,1001,o),
(492,1001,q),
(492,1056,l),
(533,1103,l),
(722,957,l),
(911,1103,l),
(951,1056,l),
(951,931,ls),
(950,872,o),
(869,777,o),
(788,734,qs),
(229,442,l),
(229,263,ls),
(229,0,o),
(570,0,q),
(570,1,l),
(604,1,l),
(951,220,l),
(951,117,ls),
(951,93,o),
(922,82,qs),
(893,70,o),
(834,70,q),
(834,11,o),
(864,-18,qs),
(893,-47,o),
(1001,-47,qs),
(1132,-47,o),
(1172,-6,qs),
(1213,34,o),
(1213,115,qs),
(1213,535,l),
(951,535,l),
(951,387,l),
(570,144,l),
(570,143,l),
(492,143,o)
);
}
);
userData = {
assembly = "NPUSHB[ ]	/* 27 values pushed */
40 5 0 3 0 5 66 33 27 11 4 7 1 2 76 61 60 59 58 57 42 41 39 38 9 5 74 
MPPEM[ ]	/* MeasurePixelPerEm */
PUSHB[ ]	/* 1 value pushed */
17 
LT[ ]	/* LessThan */
IF[ ]	/* If */
NPUSHB[ ]	/* 44 values pushed */
0 5 0 0 5 112 0 3 7 4 7 3 4 128 0 0 0 6 1 0 6 106 8 1 7 7 4 97 0 4 4 19 77 0 1 1 2 97 0 2 2 19 2 78 
ELSE[ ]	/* Else */
MPPEM[ ]	/* MeasurePixelPerEm */
PUSHB[ ]	/* 1 value pushed */
22 
LT[ ]	/* LessThan */
IF[ ]	/* If */
NPUSHB[ ]	/* 43 values pushed */
0 5 0 5 133 0 3 7 4 7 3 4 128 0 0 0 6 1 0 6 106 8 1 7 7 4 97 0 4 4 19 77 0 1 1 2 97 0 2 2 19 2 78 
ELSE[ ]	/* Else */
NPUSHB[ ]	/* 40 values pushed */
0 5 0 5 133 0 3 7 4 7 3 4 128 0 0 0 6 1 0 6 106 0 1 0 2 1 2 101 8 1 7 7 4 97 0 4 4 19 4 78 
EIF[ ]	/* EndIf */
EIF[ ]	/* EndIf */
NPUSHB[ ]	/* 16 values pushed */
9 9 9 68 9 68 54 28 53 19 36 26 17 9 7 29 
CALL[ ]	/* CallFunction */";
};
width = 1442;
}
);
note = uni178C;
unicode = 6028;
},
{
glyphname = uni178D;
layers = (
{
layerId = m01;
shapes = (
{
closed = 1;
nodes = (
(561,337,qs),
(578,326,o),
(578,303,qs),
(578,275,o),
(564,247,qs),
(550,220,o),
(492,151,q),
(492,349,l),
(519,349,ls),
(543,349,o)
);
},
{
closed = 1;
nodes = (
(1744,1085,l),
(1878,997,o),
(1923,997,qs),
(2020,997,o),
(2057,1187,q),
(1982,1187,o),
(1928,1216,qs),
(1765,1303,l),
(1558,1025,l),
(1558,935,l),
(1671,862,l),
(1671,233,ls),
(1671,143,o),
(1605,143,qs),
(1495,143,o),
(1495,217,qs),
(1495,449,o),
(1252,449,qs),
(1213,449,l),
(1213,1052,l),
(928,1303,l),
(722,1140,l),
(515,1303,l),
(229,1056,l),
(229,0,l),
(492,0,l),
(614,119,o),
(681,235,o),
(681,303,qs),
(681,372,o),
(640,408,qs),
(600,442,o),
(519,442,qs),
(492,442,l),
(492,1056,l),
(533,1103,l),
(722,957,l),
(911,1103,l),
(950,1055,l),
(950,449,l),
(900,449,o),
(830,337,o),
(830,256,qs),
(830,194,o),
(848,146,qs),
(865,99,o),
(950,0,q),
(1213,0,l),
(1213,306,l),
(1252,306,ls),
(1352,306,o),
(1352,217,qs),
(1352,0,o),
(1605,0,qs),
(1934,0,o),
(1934,233,qs),
(1934,869,l),
(1694,1009,l)
);
}
);
userData = {
assembly = "NPUSHB[ ]	/* 99 values pushed */
67 66 58 47 45 43 32 31 29 28 10 10 9 57 56 30 10 4 4 10 2 1 8 2 3 76 59 46 44 3 9 74 0 9 0 10 4 9 10 105 11 1 0 2 4 0 89 7 5 2 4 0 2 8 4 2 105 0 8 8 1 95 6 3 2 1 1 19 1 78 1 0 65 63 62 61 54 52 50 48 42 41 35 33 27 26 20 19 18 16 14 12 0 9 1 9 12 7 22 
CALL[ ]	/* CallFunction */";
};
width = 2164;
}
);
note = uni178D;
unicode = 6029;
},
{
glyphname = uni178E;
layers = (
{
layerId = m01;
shapes = (
{
closed = 1;
nodes = (
(561,337,qs),
(578,326,o),
(578,303,qs),
(578,275,o),
(564,247,qs),
(550,220,o),
(492,151,q),
(492,349,l),
(519,349,ls),
(543,349,o)
);
},
{
closed = 1;
nodes = (
(1443,180,l),
(1672,0,l),
(1935,0,l),
(1935,1055,l),
(2044,1105,l),
(2393,964,l),
(2393,0,l),
(2656,0,l),
(2656,1103,l),
(2164,1303,l),
(1672,1104,l),
(1672,181,l),
(1443,360,l),
(1214,181,l),
(1214,1103,l),
(721,1303,l),
(229,1104,l),
(229,0,l),
(492,0,l),
(614,119,o),
(681,235,o),
(681,303,qs),
(681,372,o),
(640,408,qs),
(600,442,o),
(519,442,qs),
(492,442,l),
(492,1055,l),
(601,1105,l),
(951,964,l),
(951,0,l),
(1214,0,l)
);
}
);
userData = {
assembly = "NPUSHB[ ]	/* 70 values pushed */
28 1 0 1 40 29 27 2 4 2 0 2 76 37 36 35 32 31 30 26 25 24 13 12 11 12 1 74 0 1 6 1 0 2 1 0 105 7 5 4 3 4 2 2 19 2 78 10 10 1 0 10 41 10 41 39 38 34 33 23 22 16 14 0 9 1 9 8 7 22 
CALL[ ]	/* CallFunction */";
};
width = 2885;
}
);
note = uni178E;
unicode = 6030;
},
{
glyphname = uni178F;
layers = (
{
layerId = m01;
shapes = (
{
closed = 1;
nodes = (
(561,337,qs),
(578,326,o),
(578,303,qs),
(578,275,o),
(564,247,qs),
(550,220,o),
(492,151,q),
(492,349,l),
(519,349,ls),
(543,349,o)
);
},
{
closed = 1;
nodes = (
(1178,994,qs),
(1253,994,o),
(1306,1165,q),
(1253,1165,ls),
(1206,1165,o),
(1165,1190,qs),
(980,1303,l),
(893,1303,l),
(749,1178,l),
(550,1303,l),
(453,1303,l),
(136,1117,l),
(136,1065,l),
(239,976,l),
(270,952,o),
(361,952,qs),
(363,952,ls),
(395,952,o),
(443,1025,q),
(331,1105,l),
(406,1150,l),
(636,1004,l),
(716,1004,l),
(843,1124,l),
(1010,1032,ls),
(1073,994,o)
);
},
{
closed = 1;
nodes = (
(651,788,qs),
(791,788,ls),
(951,788,o),
(951,668,qs),
(951,0,l),
(1213,0,l),
(1213,668,ls),
(1213,931,o),
(791,931,qs),
(651,931,ls),
(229,931,o),
(229,668,qs),
(229,0,l),
(492,0,l),
(614,119,o),
(681,235,o),
(681,303,qs),
(681,372,o),
(640,408,qs),
(600,442,o),
(519,442,qs),
(492,442,l),
(492,668,ls),
(492,788,o)
);
}
);
userData = {
assembly = "NPUSHB[ ]	/* 19 values pushed */
26 1 5 3 23 22 16 15 14 11 6 1 5 2 1 8 0 3 76 
MPPEM[ ]	/* MeasurePixelPerEm */
PUSHB[ ]	/* 1 value pushed */
50 
LT[ ]	/* LessThan */
IF[ ]	/* If */
NPUSHB[ ]	/* 47 values pushed */
0 2 1 9 1 2 9 128 0 5 6 1 1 2 5 1 105 0 9 0 11 7 9 11 106 0 7 12 1 0 8 7 0 105 4 1 3 3 17 77 10 1 8 8 19 8 78 
ELSE[ ]	/* Else */
NPUSHB[ ]	/* 54 values pushed */
0 1 5 6 5 1 6 128 0 2 6 9 6 2 9 128 0 5 0 6 2 5 6 105 0 9 0 11 7 9 11 106 0 7 12 1 0 8 7 0 105 4 1 3 3 17 77 10 1 8 8 19 8 78 
EIF[ ]	/* EndIf */
NPUSHB[ ]	/* 31 values pushed */
1 0 59 56 54 53 51 48 46 45 39 37 35 33 32 30 28 27 25 24 20 17 13 12 0 9 1 9 13 7 22 
CALL[ ]	/* CallFunction */";
};
width = 1442;
}
);
note = uni178F;
unicode = 6031;
},
{
glyphname = uni1790;
layers = (
{
layerId = m01;
shapes = (
{
closed = 1;
nodes = (
(898,587,q),
(881,594,o),
(881,605,qs),
(881,626,o),
(898,654,qs),
(916,683,o),
(951,722,q),
(951,582,l),
(916,582,o)
);
},
{
closed = 1;
nodes = (
(393,1118,l),
(612,971,l),
(838,971,ls),
(1213,971,o),
(1213,1210,qs),
(1213,1443,o),
(997,1443,qs),
(911,1443,o),
(882,1421,qs),
(854,1397,o),
(854,1350,q),
(950,1350,o),
(951,1210,qs),
(950,1114,o),
(848,1114,qs),
(805,1114,l),
(505,1303,l),
(403,1303,l),
(136,1110,l),
(136,959,l),
(229,886,l),
(229,263,ls),
(229,0,o),
(651,0,qs),
(791,0,ls),
(1213,0,o),
(1213,263,qs),
(1213,861,l),
(951,861,l),
(878,781,ls),
(832,732,o),
(810,687,qs),
(788,642,o),
(788,604,qs),
(788,546,o),
(829,518,qs),
(870,489,o),
(951,489,q),
(951,263,ls),
(951,143,o),
(791,143,qs),
(651,143,ls),
(492,143,o),
(492,263,qs),
(492,936,l),
(318,1060,l)
);
}
);
userData = {
assembly = "NPUSHB[ ]	/* 98 values pushed */
53 1 6 5 54 35 2 9 6 34 33 9 3 3 9 5 1 2 0 3 4 76 0 3 9 0 9 3 0 128 0 8 0 7 5 8 7 105 0 6 0 9 3 6 9 103 10 1 0 0 2 1 0 2 105 0 5 5 17 77 0 1 1 4 98 0 4 4 19 4 78 0 0 52 50 48 46 43 42 40 38 37 36 31 28 26 25 17 16 14 11 0 8 0 8 11 7 22 
CALL[ ]	/* CallFunction */";
};
width = 1442;
}
);
note = uni1790;
unicode = 6032;
},
{
glyphname = uni1791;
layers = (
{
layerId = m01;
shapes = (
{
closed = 1;
nodes = (
(1110,665,qs),
(1110,637,o),
(1068,637,qs),
(1042,637,l),
(1042,692,o),
(1068,692,qs),
(1110,692,o)
);
},
{
closed = 1;
nodes = (
(916,998,qs),
(881,998,o),
(881,1024,q),
(788,1024,o),
(788,954,qs),
(788,884,o),
(920,884,qs),
(1213,884,o),
(1213,1031,qs),
(1213,1303,o),
(721,1303,qs),
(229,1303,o),
(229,1031,qs),
(229,815,ls),
(229,494,o),
(722,494,qs),
(779,494,l),
(779,280,ls),
(779,144,o),
(707,144,qs),
(635,144,o),
(635,183,qs),
(635,280,ls),
(635,420,o),
(499,420,qs),
(323,420,o),
(323,327,q),
(372,327,o),
(372,280,qs),
(372,183,ls),
(372,0,o),
(707,0,qs),
(1042,0,o),
(1042,281,qs),
(1042,494,l),
(1068,494,ls),
(1213,494,o),
(1213,666,qs),
(1213,786,o),
(1038,786,qs),
(779,786,o),
(779,637,q),
(722,637,ls),
(492,637,o),
(492,815,qs),
(492,1031,ls),
(492,1160,o),
(721,1160,qs),
(951,1160,o),
(951,1031,qs),
(951,998,o)
);
}
);
userData = {
assembly = "MPPEM[ ]	/* MeasurePixelPerEm */
PUSHB[ ]	/* 1 value pushed */
20 
LT[ ]	/* LessThan */
IF[ ]	/* If */
NPUSHB[ ]	/* 57 values pushed */
14 1 13 0 12 4 13 12 105 0 4 15 1 0 1 4 0 105 3 1 1 10 1 5 8 1 5 105 0 8 0 7 9 8 7 105 0 2 2 11 97 0 11 11 17 77 0 9 9 6 97 0 6 6 19 6 78 
ELSE[ ]	/* Else */
NPUSHB[ ]	/* 63 values pushed */
0 14 13 12 13 14 114 0 13 0 12 4 13 12 105 0 4 15 1 0 1 4 0 105 3 1 1 10 1 5 8 1 5 105 0 8 0 7 9 8 7 105 0 2 2 11 97 0 11 11 17 77 0 9 9 6 97 0 6 6 19 6 78 
EIF[ ]	/* EndIf */
NPUSHB[ ]	/* 37 values pushed */
1 0 57 55 54 53 51 49 47 45 42 40 38 36 33 31 30 29 26 24 22 20 18 16 15 13 10 8 4 2 0 6 1 6 16 7 22 
CALL[ ]	/* CallFunction */";
};
width = 1442;
}
);
note = uni1791;
unicode = 6033;
},
{
glyphname = uni1792;
layers = (
{
layerId = m01;
shapes = (
{
closed = 1;
nodes = (
(492,181,l),
(492,975,l),
(331,1105,l),
(406,1150,l),
(636,1004,l),
(716,1004,l),
(843,1124,l),
(1010,1032,ls),
(1073,994,o),
(1178,994,qs),
(1253,994,o),
(1306,1165,q),
(1253,1165,ls),
(1206,1165,o),
(1165,1190,qs),
(980,1303,l),
(893,1303,l),
(749,1178,l),
(550,1303,l),
(453,1303,l),
(136,1117,l),
(136,1005,l),
(229,921,l),
(229,0,l),
(492,0,l),
(721,180,l),
(951,0,l),
(1213,0,l),
(1213,861,l),
(951,861,l),
(878,781,ls),
(832,732,o),
(810,687,qs),
(788,642,o),
(788,604,qs),
(788,546,o),
(829,518,qs),
(870,489,o),
(951,489,q),
(951,181,l),
(721,360,l)
);
},
{
closed = 1;
nodes = (
(898,587,q),
(881,594,o),
(881,605,qs),
(881,626,o),
(898,654,qs),
(916,683,o),
(951,722,q),
(951,582,l),
(916,582,o)
);
}
);
userData = {
assembly = "MPPEM[ ]	/* MeasurePixelPerEm */
PUSHB[ ]	/* 1 value pushed */
50 
LT[ ]	/* LessThan */
IF[ ]	/* If */
NPUSHB[ ]	/* 31 values pushed */
22 1 6 4 37 36 33 19 18 5 7 6 38 17 2 1 7 46 42 2 9 1 40 39 14 0 4 2 0 5 76 
ELSE[ ]	/* Else */
NPUSHB[ ]	/* 31 values pushed */
22 1 6 4 37 36 33 19 18 5 8 6 38 17 2 1 7 46 42 2 9 1 40 39 14 0 4 2 0 5 76 
EIF[ ]	/* EndIf */
MPPEM[ ]	/* MeasurePixelPerEm */
PUSHB[ ]	/* 1 value pushed */
50 
LT[ ]	/* LessThan */
IF[ ]	/* If */
NPUSHB[ ]	/* 36 values pushed */
0 6 8 1 7 1 6 7 105 10 1 9 0 0 2 9 0 106 5 1 4 4 17 77 0 1 1 2 95 3 1 2 2 19 2 78 
ELSE[ ]	/* Else */
NPUSHB[ ]	/* 43 values pushed */
0 8 6 7 6 8 7 128 0 6 0 7 1 6 7 105 10 1 9 0 0 2 9 0 106 5 1 4 4 17 77 0 1 1 2 95 3 1 2 2 19 2 78 
EIF[ ]	/* EndIf */
NPUSHB[ ]	/* 18 values pushed */
41 41 41 49 41 49 19 33 34 18 20 18 17 24 17 11 7 31 
CALL[ ]	/* CallFunction */";
};
width = 1442;
}
);
note = uni1792;
unicode = 6034;
},
{
glyphname = uni1793;
layers = (
{
layerId = m01;
shapes = (
{
closed = 1;
nodes = (
(950,908,q),
(950,839,l),
(927,839,o),
(916,850,qs),
(904,862,o),
(904,884,qs),
(904,896,o),
(916,902,qs),
(927,908,o)
);
},
{
closed = 1;
nodes = (
(573,777,o),
(492,872,o),
(491,931,qs),
(491,1051,ls),
(491,1160,o),
(651,1160,qs),
(791,1160,ls),
(950,1160,o),
(950,1051,qs),
(950,1001,l),
(880,1001,o),
(845,972,qs),
(810,942,o),
(810,884,qs),
(810,815,o),
(845,780,qs),
(880,745,o),
(950,745,qs),
(1080,745,ls),
(1131,745,o),
(1172,768,qs),
(1213,791,o),
(1213,838,qs),
(1213,1051,ls),
(1213,1303,o),
(791,1303,qs),
(651,1303,ls),
(229,1303,o),
(229,1051,qs),
(229,931,ls),
(229,861,o),
(311,758,o),
(630,591,qs),
(951,423,l),
(951,217,ls),
(951,144,o),
(887,144,qs),
(802,144,o),
(596,356,o),
(492,356,q),
(492,543,l),
(229,543,l),
(229,0,l),
(492,0,l),
(492,213,l),
(569,213,o),
(774,0,o),
(887,0,qs),
(1213,0,o),
(1213,217,qs),
(1213,442,l),
(654,734,ls)
);
}
);
userData = {
assembly = "NPUSHB[ ]	/* 82 values pushed */
26 9 2 6 5 1 76 0 10 0 1 0 10 1 105 0 0 0 9 5 0 9 105 0 6 0 3 7 6 3 105 0 11 11 8 97 0 8 8 17 77 0 5 5 2 97 4 1 2 2 19 77 0 7 7 2 97 4 1 2 2 19 2 78 55 52 50 49 43 40 56 33 17 17 17 17 35 17 21 12 7 31 
CALL[ ]	/* CallFunction */";
};
width = 1442;
}
);
note = uni1793;
unicode = 6035;
},
{
glyphname = uni1794;
layers = (
{
layerId = m01;
shapes = (
{
closed = 1;
nodes = (
(1213,263,qs),
(1213,869,l),
(973,1009,l),
(1023,1085,l),
(1157,997,o),
(1202,997,qs),
(1299,997,o),
(1336,1187,q),
(1261,1187,o),
(1207,1216,qs),
(1044,1303,l),
(837,1025,l),
(837,935,l),
(950,862,l),
(950,263,ls),
(950,143,o),
(768,143,qs),
(675,143,ls),
(492,143,o),
(492,263,qs),
(492,869,l),
(231,1009,l),
(281,1075,l),
(435,997,o),
(481,997,qs),
(547,997,o),
(605,1187,q),
(539,1187,o),
(483,1216,qs),
(313,1303,l),
(96,1025,l),
(96,945,l),
(229,862,l),
(229,263,ls),
(229,0,o),
(675,0,qs),
(768,0,ls),
(1213,0,o)
);
}
);
userData = {
assembly = "NPUSHB[ ]	/* 66 values pushed */
34 33 25 15 14 6 6 2 1 35 24 23 16 5 4 6 3 2 2 76 26 7 2 1 74 4 1 1 5 1 2 3 1 2 105 0 3 3 0 97 6 1 0 0 19 0 78 2 0 32 30 29 28 21 18 13 11 10 9 0 37 2 37 7 7 22 
CALL[ ]	/* CallFunction */";
};
width = 1442;
}
);
note = uni1794;
unicode = 6036;
},
{
glyphname = uni1795;
layers = (
{
layerId = m01;
shapes = (
{
closed = 1;
nodes = (
(898,587,q),
(881,594,o),
(881,605,qs),
(881,626,o),
(898,654,qs),
(916,683,o),
(950,722,q),
(950,582,l),
(916,582,o)
);
},
{
closed = 1;
nodes = (
(492,181,l),
(492,936,l),
(318,1060,l),
(393,1118,l),
(612,971,l),
(838,971,ls),
(1213,971,o),
(1213,1210,qs),
(1213,1443,o),
(997,1443,qs),
(911,1443,o),
(882,1421,qs),
(854,1397,o),
(854,1350,q),
(950,1350,o),
(951,1210,qs),
(950,1114,o),
(848,1114,qs),
(805,1114,l),
(505,1303,l),
(403,1303,l),
(136,1110,l),
(136,959,l),
(229,886,l),
(229,0,l),
(492,0,l),
(721,180,l),
(950,0,l),
(1213,0,l),
(1213,861,l),
(951,861,l),
(878,781,ls),
(832,732,o),
(810,687,qs),
(788,642,o),
(788,604,qs),
(788,546,o),
(829,518,qs),
(870,489,o),
(950,489,q),
(950,181,l),
(721,360,l)
);
}
);
userData = {
assembly = "NPUSHB[ ]	/* 98 values pushed */
46 1 6 5 47 28 2 9 6 48 27 26 3 2 9 5 1 2 0 2 50 49 23 9 4 3 1 5 76 0 8 0 7 5 8 7 105 0 6 0 9 2 6 9 103 10 1 0 0 1 3 0 1 105 0 5 5 17 77 0 2 2 3 95 4 1 3 3 19 3 78 0 0 45 43 41 39 36 35 33 31 30 29 25 24 22 21 20 19 11 10 0 8 0 8 11 7 22 
CALL[ ]	/* CallFunction */";
};
width = 1442;
}
);
note = uni1795;
unicode = 6037;
},
{
glyphname = uni1796;
layers = (
{
layerId = m01;
shapes = (
{
closed = 1;
nodes = (
(561,337,qs),
(578,326,o),
(578,303,qs),
(578,275,o),
(564,247,qs),
(550,220,o),
(492,151,q),
(492,349,l),
(519,349,ls),
(543,349,o)
);
},
{
closed = 1;
nodes = (
(614,119,o),
(681,235,o),
(681,303,qs),
(681,372,o),
(640,408,qs),
(600,442,o),
(519,442,qs),
(492,442,l),
(492,1056,l),
(533,1103,l),
(722,957,l),
(911,1103,l),
(950,1055,l),
(950,0,l),
(1213,0,l),
(1213,1052,l),
(928,1303,l),
(722,1140,l),
(515,1303,l),
(229,1056,l),
(229,0,l),
(492,0,l)
);
}
);
userData = {
assembly = "NPUSHB[ ]	/* 55 values pushed */
2 1 1 0 1 76 22 21 20 19 18 15 14 13 12 11 10 2 74 0 2 4 1 0 1 2 0 105 5 3 2 1 1 19 1 78 10 10 1 0 10 31 10 31 25 23 17 16 0 9 1 9 6 7 22 
CALL[ ]	/* CallFunction */";
};
width = 1442;
}
);
note = uni1796;
unicode = 6038;
},
{
glyphname = uni1797;
layers = (
{
layerId = m01;
shapes = (
{
closed = 1;
nodes = (
(197,248,qs),
(179,283,o),
(179,303,qs),
(179,326,o),
(190,337,qs),
(202,349,o),
(229,349,q),
(229,192,l),
(214,212,o)
);
},
{
closed = 1;
nodes = (
(1178,994,qs),
(1253,994,o),
(1306,1165,q),
(1253,1165,ls),
(1206,1165,o),
(1165,1190,qs),
(980,1303,l),
(893,1303,l),
(749,1178,l),
(550,1303,l),
(453,1303,l),
(136,1117,l),
(136,1065,l),
(239,976,l),
(270,952,o),
(361,952,qs),
(363,952,ls),
(395,952,o),
(443,1025,q),
(331,1105,l),
(406,1150,l),
(636,1004,l),
(716,1004,l),
(843,1124,l),
(1010,1032,ls),
(1073,994,o)
);
},
{
closed = 1;
nodes = (
(651,788,qs),
(791,788,ls),
(951,788,o),
(951,668,qs),
(951,0,l),
(1213,0,l),
(1213,668,ls),
(1213,931,o),
(791,931,qs),
(651,931,ls),
(229,931,o),
(229,668,qs),
(229,442,l),
(156,442,o),
(121,408,qs),
(86,372,o),
(86,303,qs),
(86,268,o),
(106,222,qs),
(127,176,o),
(167,117,q),
(229,0,l),
(492,0,l),
(492,668,ls),
(492,788,o)
);
}
);
userData = {
assembly = "NPUSHB[ ]	/* 19 values pushed */
25 1 5 3 22 21 15 14 13 10 6 1 5 0 1 7 0 3 76 
MPPEM[ ]	/* MeasurePixelPerEm */
PUSHB[ ]	/* 1 value pushed */
50 
LT[ ]	/* LessThan */
IF[ ]	/* If */
NPUSHB[ ]	/* 46 values pushed */
0 2 1 9 1 2 9 128 0 5 6 1 1 2 5 1 105 0 9 0 11 8 9 11 106 0 8 0 0 7 8 0 105 4 1 3 3 17 77 10 1 7 7 19 7 78 
ELSE[ ]	/* Else */
NPUSHB[ ]	/* 53 values pushed */
0 1 5 6 5 1 6 128 0 2 6 9 6 2 9 128 0 5 0 6 2 5 6 105 0 9 0 11 8 9 11 106 0 8 0 0 7 8 0 105 4 1 3 3 17 77 10 1 7 7 19 7 78 
EIF[ ]	/* EndIf */
NPUSHB[ ]	/* 18 values pushed */
59 56 54 53 51 48 24 18 33 34 18 20 52 25 17 12 7 31 
CALL[ ]	/* CallFunction */";
};
width = 1442;
}
);
note = uni1797;
unicode = 6039;
},
{
glyphname = uni1798;
layers = (
{
layerId = m01;
shapes = (
{
closed = 1;
nodes = (
(950,143,o),
(768,143,qs),
(675,143,ls),
(492,143,o),
(492,263,qs),
(492,534,l),
(950,534,l),
(950,263,ls)
);
},
{
closed = 1;
nodes = (
(281,1075,l),
(435,997,o),
(481,997,qs),
(547,997,o),
(605,1187,q),
(539,1187,o),
(483,1216,qs),
(313,1303,l),
(96,1025,l),
(96,945,l),
(229,862,l),
(229,263,ls),
(229,0,o),
(675,0,qs),
(768,0,ls),
(1213,0,o),
(1213,263,qs),
(1213,869,l),
(973,1009,l),
(1023,1085,l),
(1157,997,o),
(1202,997,qs),
(1299,997,o),
(1336,1187,q),
(1261,1187,o),
(1207,1216,qs),
(1044,1303,l),
(837,1025,l),
(837,935,l),
(950,862,l),
(950,677,l),
(492,677,l),
(492,869,l),
(231,1009,l)
);
}
);
userData = {
assembly = "NPUSHB[ ]	/* 65 values pushed */
41 40 32 22 21 13 6 4 3 31 30 23 12 11 8 6 2 4 2 76 33 14 2 3 74 6 1 3 7 1 4 2 3 4 105 0 2 0 0 1 2 0 103 0 1 1 5 97 0 5 5 19 5 78 33 23 53 33 22 19 50 16 8 7 30 
CALL[ ]	/* CallFunction */";
};
width = 1442;
}
);
note = uni1798;
unicode = 6040;
},
{
glyphname = uni1799;
layers = (
{
layerId = m01;
shapes = (
{
closed = 1;
nodes = (
(542,1072,qs),
(565,1035,o),
(565,1014,qs),
(565,982,o),
(542,969,qs),
(518,954,o),
(492,954,q),
(492,1143,l),
(518,1110,o)
);
},
{
closed = 1;
nodes = (
(675,0,qs),
(768,0,ls),
(971,0,o),
(1082,55,q),
(1192,0,o),
(1396,0,qs),
(1489,0,ls),
(1934,0,o),
(1934,263,qs),
(1934,869,l),
(1694,1009,l),
(1744,1085,l),
(1878,997,o),
(1923,997,qs),
(2020,997,o),
(2057,1187,q),
(1982,1187,o),
(1928,1216,qs),
(1765,1303,l),
(1558,1025,l),
(1558,935,l),
(1671,862,l),
(1671,263,ls),
(1671,143,o),
(1489,143,qs),
(1396,143,ls),
(1213,143,o),
(1213,263,qs),
(1213,869,l),
(973,1009,l),
(1023,1085,l),
(1157,997,o),
(1202,997,qs),
(1299,997,o),
(1336,1187,q),
(1261,1187,o),
(1207,1216,qs),
(1044,1303,l),
(837,1025,l),
(837,935,l),
(950,862,l),
(950,263,ls),
(950,143,o),
(768,143,qs),
(675,143,ls),
(492,143,o),
(492,263,qs),
(492,861,l),
(565,861,o),
(612,897,qs),
(658,933,o),
(658,1013,qs),
(658,1052,o),
(635,1098,qs),
(612,1145,o),
(492,1303,q),
(229,1303,l),
(229,263,ls),
(229,0,o)
);
}
);
userData = {
assembly = "NPUSHB[ ]	/* 82 values pushed */
56 55 47 37 36 28 0 7 5 4 57 46 45 38 27 26 6 2 0 63 1 9 3 3 76 48 29 2 1 74 7 1 4 8 1 5 0 4 5 105 0 0 0 2 3 0 2 105 0 1 1 17 77 6 1 3 3 9 98 10 1 9 9 19 9 78 67 64 62 59 33 23 53 33 23 50 23 24 17 11 7 31 
CALL[ ]	/* CallFunction */";
};
width = 2164;
}
);
note = uni1799;
unicode = 6041;
},
{
glyphname = uni179A;
layers = (
{
layerId = m01;
shapes = (
{
closed = 1;
nodes = (
(197,248,qs),
(179,283,o),
(179,303,qs),
(179,326,o),
(190,337,qs),
(202,349,o),
(229,349,q),
(229,192,l),
(214,212,o)
);
},
{
closed = 1;
nodes = (
(281,1075,l),
(435,997,o),
(481,997,qs),
(547,997,o),
(605,1187,q),
(539,1187,o),
(483,1216,qs),
(313,1303,l),
(96,1025,l),
(96,945,l),
(229,862,l),
(229,442,l),
(156,442,o),
(121,408,qs),
(86,372,o),
(86,303,qs),
(86,268,o),
(106,222,qs),
(127,176,o),
(167,117,q),
(229,0,l),
(492,0,l),
(492,869,l),
(231,1009,l)
);
}
);
userData = {
assembly = "NPUSHB[ ]	/* 52 values pushed */
32 31 23 3 4 3 22 21 9 3 2 4 0 1 1 0 3 76 24 1 3 74 0 3 0 4 2 3 4 105 0 2 0 0 1 2 0 105 0 1 1 19 1 78 33 22 24 24 17 5 7 27 
CALL[ ]	/* CallFunction */";
};
width = 721;
}
);
note = uni179A;
unicode = 6042;
},
{
glyphname = uni179B;
layers = (
{
layerId = m01;
shapes = (
{
closed = 1;
nodes = (
(561,337,qs),
(578,326,o),
(578,303,qs),
(578,275,o),
(564,247,qs),
(550,220,o),
(492,151,q),
(492,349,l),
(519,349,ls),
(543,349,o)
);
},
{
closed = 1;
nodes = (
(1396,0,qs),
(1489,0,ls),
(1934,0,o),
(1934,263,qs),
(1934,869,l),
(1694,1009,l),
(1744,1085,l),
(1878,997,o),
(1923,997,qs),
(2020,997,o),
(2057,1187,q),
(1982,1187,o),
(1928,1216,qs),
(1765,1303,l),
(1558,1025,l),
(1558,935,l),
(1671,862,l),
(1671,263,ls),
(1671,143,o),
(1489,143,qs),
(1396,143,ls),
(1213,143,o),
(1213,263,qs),
(1213,1103,l),
(721,1303,l),
(229,1104,l),
(229,0,l),
(492,0,l),
(614,119,o),
(681,235,o),
(681,303,qs),
(681,372,o),
(640,408,qs),
(600,442,o),
(519,442,qs),
(492,442,l),
(492,1055,l),
(601,1105,l),
(950,964,l),
(950,263,ls),
(950,0,o)
);
}
);
userData = {
assembly = "NPUSHB[ ]	/* 78 values pushed */
44 43 35 26 24 13 12 7 5 4 45 34 33 11 4 1 5 2 1 3 0 3 76 36 25 2 4 74 0 4 0 5 1 4 5 105 0 1 7 1 0 3 1 0 105 0 3 3 2 97 6 1 2 2 19 2 78 1 0 50 47 42 40 39 38 31 28 23 22 16 14 0 9 1 9 8 7 22 
CALL[ ]	/* CallFunction */";
};
width = 2164;
}
);
note = uni179B;
unicode = 6043;
},
{
glyphname = uni179C;
layers = (
{
layerId = m01;
shapes = (
{
closed = 1;
nodes = (
(197,248,qs),
(179,283,o),
(179,303,qs),
(179,326,o),
(190,337,qs),
(202,349,o),
(229,349,q),
(229,192,l),
(214,212,o)
);
},
{
closed = 1;
nodes = (
(96,945,l),
(229,862,l),
(229,442,l),
(156,442,o),
(121,408,qs),
(86,372,o),
(86,303,qs),
(86,268,o),
(106,222,qs),
(127,176,o),
(167,117,q),
(229,0,l),
(492,0,l),
(492,869,l),
(231,1009,l),
(261,1075,l),
(435,997,o),
(481,997,qs),
(534,997,o),
(614,1147,o),
(614,1290,qs),
(614,1395,o),
(579,1447,qs),
(545,1499,o),
(425,1499,qs),
(378,1499,o),
(355,1476,qs),
(332,1453,o),
(332,1386,q),
(402,1386,o),
(436,1358,qs),
(471,1329,o),
(471,1290,qs),
(471,1256,o),
(463,1238,qs),
(460,1231,o),
(456,1227,q),
(263,1303,l),
(96,1025,l)
);
}
);
userData = {
assembly = "NPUSHB[ ]	/* 58 values pushed */
47 32 31 10 4 3 1 46 45 33 3 5 3 0 1 4 0 3 76 0 3 1 5 1 3 5 128 0 2 0 1 3 2 1 105 0 5 0 0 4 5 0 105 0 4 4 19 4 78 24 20 37 35 31 17 6 7 28 
CALL[ ]	/* CallFunction */";
};
width = 721;
}
);
note = uni179C;
unicode = 6044;
},
{
glyphname = uni179D;
layers = (
{
layerId = m01;
shapes = (
{
closed = 1;
nodes = (
(1178,994,qs),
(1253,994,o),
(1306,1165,q),
(1253,1165,ls),
(1206,1165,o),
(1165,1190,qs),
(980,1303,l),
(893,1303,l),
(749,1178,l),
(550,1303,l),
(453,1303,l),
(136,1117,l),
(136,1065,l),
(239,976,l),
(270,952,o),
(361,952,qs),
(363,952,ls),
(395,952,o),
(443,1025,q),
(331,1105,l),
(406,1150,l),
(636,1004,l),
(716,1004,l),
(843,1124,l),
(1010,1032,ls),
(1073,994,o)
);
},
{
closed = 1;
nodes = (
(791,931,qs),
(651,931,ls),
(229,931,o),
(229,668,qs),
(229,0,l),
(492,0,l),
(492,97,l),
(547,172,ls),
(582,220,o),
(616,242,qs),
(650,262,o),
(714,262,qs),
(778,262,o),
(801,306,qs),
(811,324,o),
(811,369,qs),
(811,413,o),
(790,432,qs),
(755,465,o),
(698,466,qs),
(651,466,o),
(605,443,qs),
(569,426,o),
(492,303,q),
(492,668,ls),
(492,788,o),
(651,788,qs),
(791,788,ls),
(951,788,o),
(951,668,qs),
(951,449,l),
(851,449,l),
(851,306,l),
(951,306,l),
(951,0,l),
(1213,0,l),
(1213,306,l),
(1230,306,ls),
(1277,306,o),
(1300,341,qs),
(1323,376,o),
(1323,495,q),
(1300,449,o),
(1230,449,qs),
(1213,449,l),
(1213,668,ls),
(1213,931,o)
);
}
);
userData = {
assembly = "MPPEM[ ]	/* MeasurePixelPerEm */
PUSHB[ ]	/* 1 value pushed */
31 
LT[ ]	/* LessThan */
IF[ ]	/* If */
NPUSHB[ ]	/* 27 values pushed */
16 1 4 2 13 12 6 5 4 1 6 0 4 30 1 6 11 48 1 13 7 65 1 8 13 5 76 
ELSE[ ]	/* Else */
NPUSHB[ ]	/* 27 values pushed */
16 1 4 2 13 12 6 5 4 1 6 0 4 30 1 12 11 48 1 13 7 65 1 8 13 5 76 
EIF[ ]	/* EndIf */
MPPEM[ ]	/* MeasurePixelPerEm */
PUSHB[ ]	/* 1 value pushed */
31 
LT[ ]	/* LessThan */
IF[ ]	/* If */
NPUSHB[ ]	/* 55 values pushed */
0 1 0 15 0 1 15 128 0 4 5 1 0 1 4 0 105 0 15 0 11 6 15 11 106 9 1 7 13 6 7 89 12 10 2 6 0 13 8 6 13 105 3 1 2 2 17 77 14 1 8 8 19 8 78 
ELSE[ ]	/* Else */
MPPEM[ ]	/* MeasurePixelPerEm */
PUSHB[ ]	/* 1 value pushed */
50 
LT[ ]	/* LessThan */
IF[ ]	/* If */
NPUSHB[ ]	/* 56 values pushed */
0 1 0 15 0 1 15 128 0 4 5 1 0 1 4 0 105 0 15 0 11 12 15 11 106 10 1 6 9 1 7 13 6 7 105 0 12 0 13 8 12 13 105 3 1 2 2 17 77 14 1 8 8 19 8 78 
ELSE[ ]	/* Else */
NPUSHB[ ]	/* 63 values pushed */
0 0 4 5 4 0 5 128 0 1 5 15 5 1 15 128 0 4 0 5 1 4 5 105 0 15 0 11 12 15 11 106 10 1 6 9 1 7 13 6 7 105 0 12 0 13 8 12 13 105 3 1 2 2 17 77 14 1 8 8 19 8 78 
EIF[ ]	/* EndIf */
EIF[ ]	/* EndIf */
NPUSHB[ ]	/* 26 values pushed */
72 69 67 66 61 59 53 51 46 43 41 40 39 38 18 20 34 33 34 18 20 52 18 16 7 31 
CALL[ ]	/* CallFunction */";
};
width = 1442;
}
);
note = uni179D;
unicode = 6045;
},
{
glyphname = uni179E;
layers = (
{
layerId = m01;
shapes = (
{
closed = 1;
nodes = (
(768,143,qs),
(675,143,ls),
(492,143,o),
(492,263,qs),
(492,869,l),
(231,1009,l),
(281,1075,l),
(435,997,o),
(481,997,qs),
(547,997,o),
(605,1187,q),
(539,1187,o),
(483,1216,qs),
(313,1303,l),
(96,1025,l),
(96,945,l),
(229,862,l),
(229,263,ls),
(229,0,o),
(675,0,qs),
(768,0,ls),
(1213,0,o),
(1213,263,qs),
(1213,529,l),
(1250,529,ls),
(1296,529,o),
(1320,564,qs),
(1343,598,o),
(1343,718,q),
(1320,672,o),
(1250,672,qs),
(1213,672,l),
(1213,869,l),
(973,1009,l),
(1023,1085,l),
(1157,997,o),
(1202,997,qs),
(1299,997,o),
(1336,1187,q),
(1261,1187,o),
(1207,1216,qs),
(1044,1303,l),
(837,1025,l),
(837,935,l),
(950,862,l),
(950,672,l),
(823,672,l),
(823,529,l),
(950,529,l),
(950,263,ls),
(950,143,o)
);
}
);
userData = {
assembly = "NPUSHB[ ]	/* 71 values pushed */
44 43 35 16 15 7 6 3 2 45 34 33 21 17 6 5 7 1 3 2 76 36 8 2 2 74 7 1 2 8 1 3 1 2 3 105 4 1 1 5 1 0 9 1 0 105 0 9 9 6 97 0 6 6 19 6 78 50 47 33 23 50 36 36 33 22 17 17 10 7 31 
CALL[ ]	/* CallFunction */";
};
width = 1442;
}
);
note = uni179E;
unicode = 6046;
},
{
glyphname = uni179F;
layers = (
{
layerId = m01;
shapes = (
{
closed = 1;
nodes = (
(561,337,qs),
(578,326,o),
(578,303,qs),
(578,275,o),
(564,247,qs),
(550,220,o),
(492,151,q),
(492,349,l),
(519,349,ls),
(543,349,o)
);
},
{
closed = 1;
nodes = (
(698,997,o),
(774,997,qs),
(895,997,o),
(931,1187,q),
(827,1187,o),
(760,1216,qs),
(556,1303,l),
(298,1055,l),
(298,965,l),
(412,900,l),
(229,841,o),
(229,668,qs),
(229,0,l),
(492,0,l),
(614,119,o),
(681,235,o),
(681,303,qs),
(681,372,o),
(640,408,qs),
(600,442,o),
(519,442,qs),
(492,442,l),
(492,668,ls),
(492,788,o),
(651,788,qs),
(791,788,ls),
(950,788,o),
(950,668,qs),
(950,263,ls),
(950,0,o),
(1396,0,qs),
(1489,0,ls),
(1934,0,o),
(1934,263,qs),
(1934,869,l),
(1694,1009,l),
(1744,1085,l),
(1878,997,o),
(1923,997,qs),
(2020,997,o),
(2057,1187,q),
(1982,1187,o),
(1928,1216,qs),
(1765,1303,l),
(1558,1025,l),
(1558,935,l),
(1671,862,l),
(1671,263,ls),
(1671,143,o),
(1489,143,qs),
(1396,143,ls),
(1213,143,o),
(1213,263,qs),
(1213,668,ls),
(1213,931,o),
(791,931,qs),
(654,931,l),
(458,1039,l),
(520,1095,l)
);
}
);
userData = {
assembly = "NPUSHB[ ]	/* 98 values pushed */
68 60 32 31 23 5 4 3 59 22 2 1 4 58 33 21 3 6 1 2 1 2 0 4 76 61 24 2 3 74 9 1 3 10 1 4 1 3 4 105 0 1 0 6 7 1 6 105 0 7 11 1 0 2 7 0 105 0 2 2 5 97 8 1 5 5 19 5 78 1 0 67 65 64 63 55 54 48 46 44 41 38 35 30 28 27 26 19 16 13 11 0 9 1 9 12 7 22 
CALL[ ]	/* CallFunction */";
};
width = 2164;
}
);
note = uni179F;
unicode = 6047;
},
{
glyphname = uni17A0;
layers = (
{
layerId = m01;
shapes = (
{
closed = 1;
nodes = (
(1672,0,l),
(1935,0,l),
(1935,1083,l),
(1294,1303,l),
(837,1025,l),
(837,935,l),
(950,862,l),
(950,263,ls),
(950,143,o),
(768,143,qs),
(675,143,ls),
(492,143,o),
(492,263,qs),
(492,869,l),
(231,1009,l),
(281,1075,l),
(435,997,o),
(481,997,qs),
(547,997,o),
(605,1187,q),
(539,1187,o),
(483,1216,qs),
(313,1303,l),
(96,1025,l),
(96,945,l),
(229,862,l),
(229,263,ls),
(229,0,o),
(675,0,qs),
(768,0,ls),
(1213,0,o),
(1213,263,qs),
(1213,869,l),
(1036,972,l),
(1242,1082,l),
(1672,944,l)
);
}
);
userData = {
assembly = "NPUSHB[ ]	/* 54 values pushed */
32 30 20 19 11 5 2 1 35 29 28 21 10 9 2 1 8 3 2 2 76 31 12 2 1 74 0 1 0 2 3 1 2 105 0 3 3 0 97 4 1 0 0 19 0 78 23 53 33 23 52 5 7 27 
CALL[ ]	/* CallFunction */";
};
width = 2164;
}
);
note = uni17A0;
unicode = 6048;
},
{
glyphname = uni17A1;
layers = (
{
layerId = m01;
shapes = (
{
closed = 1;
nodes = (
(1110,665,qs),
(1110,637,o),
(1068,637,qs),
(1042,637,l),
(1042,692,o),
(1068,692,qs),
(1110,692,o)
);
},
{
closed = 1;
nodes = (
(916,998,qs),
(881,998,o),
(881,1024,q),
(788,1024,o),
(788,954,qs),
(788,884,o),
(920,884,qs),
(1213,884,o),
(1213,1031,qs),
(1213,1303,o),
(721,1303,qs),
(229,1303,o),
(229,1031,qs),
(229,815,ls),
(229,494,o),
(722,494,qs),
(779,494,l),
(779,280,ls),
(779,144,o),
(707,144,qs),
(635,144,o),
(635,183,qs),
(635,280,ls),
(635,420,o),
(499,420,qs),
(323,420,o),
(323,327,q),
(372,327,o),
(372,280,qs),
(372,183,ls),
(372,0,o),
(707,0,qs),
(1042,0,o),
(1042,281,qs),
(1042,494,l),
(1068,494,ls),
(1213,494,o),
(1213,666,qs),
(1213,786,o),
(1038,786,qs),
(779,786,o),
(779,637,q),
(722,637,ls),
(492,637,o),
(492,815,qs),
(492,1031,ls),
(492,1160,o),
(721,1160,qs),
(951,1160,o),
(951,1031,qs),
(951,998,o)
);
},
{
closed = 1;
nodes = (
(1745,1085,l),
(1879,997,o),
(1924,997,qs),
(2021,997,o),
(2058,1187,q),
(1983,1187,o),
(1929,1216,qs),
(1766,1303,l),
(1559,1025,l),
(1559,935,l),
(1672,862,l),
(1672,-480,l),
(1443,-328,l),
(1213,-490,l),
(1213,-93,l),
(950,-93,l),
(881,-161,ls),
(845,-195,o),
(829,-228,qs),
(811,-262,o),
(811,-294,qs),
(811,-328,o),
(846,-345,qs),
(879,-360,o),
(944,-360,qs),
(950,-360,l),
(950,-673,l),
(1213,-673,l),
(1443,-501,l),
(1672,-673,l),
(1935,-673,l),
(1935,869,l),
(1695,1009,l)
);
}
);
userData = {
assembly = "MPPEM[ ]	/* MeasurePixelPerEm */
PUSHB[ ]	/* 1 value pushed */
20 
LT[ ]	/* LessThan */
IF[ ]	/* If */
NPUSHB[ ]	/* 34 values pushed */
89 81 2 13 2 90 1 20 13 80 1 12 20 79 58 2 4 12 77 1 17 18 78 76 61 3 15 17 6 76 82 1 11 74 
ELSE[ ]	/* Else */
NPUSHB[ ]	/* 34 values pushed */
89 81 2 13 2 90 1 14 13 80 1 12 20 79 58 2 4 12 77 1 17 18 78 76 61 3 15 17 6 76 82 1 11 74 
EIF[ ]	/* EndIf */
MPPEM[ ]	/* MeasurePixelPerEm */
PUSHB[ ]	/* 1 value pushed */
12 
LT[ ]	/* LessThan */
IF[ ]	/* If */
NPUSHB[ ]	/* 81 values pushed */
0 17 18 15 18 17 15 128 0 19 0 20 12 19 20 105 14 1 13 0 12 4 13 12 105 0 4 21 1 0 1 4 0 105 3 1 1 10 1 5 8 1 5 105 0 8 0 7 9 8 7 105 0 18 16 1 15 18 15 99 0 2 2 11 97 0 11 11 17 77 0 9 9 6 97 0 6 6 19 6 78 
ELSE[ ]	/* Else */
MPPEM[ ]	/* MeasurePixelPerEm */
PUSHB[ ]	/* 1 value pushed */
20 
LT[ ]	/* LessThan */
IF[ ]	/* If */
NPUSHB[ ]	/* 84 values pushed */
0 17 18 15 18 17 15 128 0 19 0 20 12 19 20 105 14 1 13 0 12 4 13 12 105 0 4 21 1 0 1 4 0 105 3 1 1 10 1 5 8 1 5 105 0 8 0 7 9 8 7 105 0 2 2 11 97 0 11 11 17 77 0 9 9 6 97 0 6 6 19 77 16 1 15 15 18 95 0 18 18 18 15 78 
ELSE[ ]	/* Else */
NPUSHB[ ]	/* 90 values pushed */
0 14 13 20 13 14 114 0 17 18 15 18 17 15 128 0 19 0 20 12 19 20 105 0 13 0 12 4 13 12 105 0 4 21 1 0 1 4 0 105 3 1 1 10 1 5 8 1 5 105 0 8 0 7 9 8 7 105 0 2 2 11 97 0 11 11 17 77 0 9 9 6 97 0 6 6 19 77 16 1 15 15 18 95 0 18 18 18 15 78 
EIF[ ]	/* EndIf */
EIF[ ]	/* EndIf */
NPUSHB[ ]	/* 49 values pushed */
1 0 88 86 85 84 75 74 66 64 63 62 60 59 57 55 54 53 51 49 47 45 42 40 38 36 33 31 30 29 26 24 22 20 18 16 15 13 10 8 4 2 0 6 1 6 22 7 22 
CALL[ ]	/* CallFunction */";
};
width = 2164;
}
);
note = uni17A1;
unicode = 6049;
},
{
glyphname = uni17A2;
layers = (
{
layerId = m01;
shapes = (
{
closed = 1;
nodes = (
(197,248,qs),
(179,283,o),
(179,303,qs),
(179,326,o),
(190,337,qs),
(202,349,o),
(229,349,q),
(229,192,l),
(214,212,o)
);
},
{
closed = 1;
nodes = (
(928,248,qs),
(910,283,o),
(910,303,qs),
(910,326,o),
(921,337,qs),
(933,349,o),
(960,349,q),
(960,192,l),
(945,212,o)
);
},
{
closed = 1;
nodes = (
(887,442,o),
(852,408,qs),
(817,372,o),
(817,303,qs),
(817,268,o),
(837,222,qs),
(858,176,o),
(898,117,q),
(960,0,l),
(1223,0,l),
(1223,869,l),
(962,1009,l),
(1012,1075,l),
(1166,997,o),
(1212,997,qs),
(1278,997,o),
(1336,1187,q),
(1270,1187,o),
(1214,1216,qs),
(1044,1303,l),
(827,1025,l),
(827,945,l),
(960,862,l),
(960,677,l),
(492,677,l),
(492,869,l),
(231,1009,l),
(281,1075,l),
(435,997,o),
(481,997,qs),
(547,997,o),
(605,1187,q),
(539,1187,o),
(483,1216,qs),
(313,1303,l),
(96,1025,l),
(96,945,l),
(229,862,l),
(229,442,l),
(156,442,o),
(121,408,qs),
(86,372,o),
(86,303,qs),
(86,268,o),
(106,222,qs),
(127,176,o),
(167,117,q),
(229,0,l),
(492,0,l),
(492,534,l),
(960,534,l),
(960,442,l)
);
}
);
userData = {
assembly = "NPUSHB[ ]	/* 83 values pushed */
57 56 48 42 41 33 6 6 5 58 47 46 43 32 31 6 7 6 9 0 2 3 0 3 76 49 34 2 5 74 8 1 5 9 1 6 7 5 6 105 0 7 0 2 4 7 2 103 11 1 4 1 1 0 3 4 0 105 10 1 3 3 19 3 78 69 68 60 59 55 53 22 20 33 22 24 17 23 24 17 12 7 31 
CALL[ ]	/* CallFunction */";
};
width = 1442;
}
);
note = uni17A2;
unicode = 6050;
},
{
glyphname = uni17A5;
layers = (
{
layerId = m01;
shapes = (
{
closed = 1;
nodes = (
(561,337,qs),
(578,326,o),
(578,303,qs),
(578,275,o),
(564,247,qs),
(550,220,o),
(492,151,q),
(492,349,l),
(519,349,ls),
(543,349,o)
);
},
{
closed = 1;
nodes = (
(651,738,qs),
(791,738,ls),
(951,738,o),
(951,618,qs),
(951,0,l),
(1213,0,l),
(1213,618,ls),
(1213,881,o),
(791,881,qs),
(651,881,ls),
(229,881,o),
(229,618,qs),
(229,0,l),
(492,0,l),
(614,119,o),
(681,235,o),
(681,303,qs),
(681,372,o),
(640,408,qs),
(600,442,o),
(519,442,qs),
(492,442,l),
(492,618,ls),
(492,738,o)
);
},
{
closed = 1;
nodes = (
(393,1118,l),
(612,971,l),
(838,971,ls),
(1213,971,o),
(1213,1210,qs),
(1213,1443,o),
(997,1443,qs),
(911,1443,o),
(882,1421,qs),
(854,1397,o),
(854,1350,q),
(950,1350,o),
(951,1210,qs),
(950,1114,o),
(848,1114,qs),
(805,1114,l),
(505,1303,l),
(403,1303,l),
(136,1110,l),
(136,959,l),
(229,886,l),
(492,936,l),
(318,1060,l)
);
}
);
userData = {
assembly = "NPUSHB[ ]	/* 94 values pushed */
55 1 7 6 56 37 2 10 7 36 35 2 3 10 2 1 2 0 4 76 0 9 0 8 6 9 8 105 0 7 0 10 3 7 10 103 0 3 0 5 1 3 5 106 0 1 11 1 0 2 1 0 105 0 6 6 17 77 4 1 2 2 19 2 78 1 0 54 52 50 48 45 44 42 40 39 38 33 30 28 27 25 22 20 19 13 11 0 9 1 9 12 7 22 
CALL[ ]	/* CallFunction */";
};
width = 1442;
}
);
note = uni17A5;
unicode = 6053;
},
{
glyphname = uni17A6;
layers = (
{
layerId = m01;
shapes = (
{
closed = 1;
nodes = (
(561,337,qs),
(578,326,o),
(578,303,qs),
(578,275,o),
(564,247,qs),
(550,220,o),
(492,151,q),
(492,349,l),
(519,349,ls),
(543,349,o)
);
},
{
closed = 1;
nodes = (
(535,-469,qs),
(535,-502,o),
(489,-545,q),
(489,-450,l),
(535,-450,o)
);
},
{
closed = 1;
nodes = (
(1213,1103,l),
(721,1303,l),
(229,1104,l),
(229,0,l),
(492,0,l),
(614,119,o),
(681,235,o),
(681,303,qs),
(681,372,o),
(640,408,qs),
(600,442,o),
(519,442,qs),
(492,442,l),
(492,1055,l),
(601,1105,l),
(950,964,l),
(950,0,l),
(1213,0,l)
);
},
{
closed = 1;
nodes = (
(1703,1075,l),
(1877,997,o),
(1923,997,qs),
(1976,997,o),
(2056,1147,o),
(2056,1290,qs),
(2056,1395,o),
(2021,1447,qs),
(1987,1499,o),
(1867,1499,qs),
(1820,1499,o),
(1797,1476,qs),
(1774,1453,o),
(1774,1386,q),
(1844,1386,o),
(1878,1358,qs),
(1913,1329,o),
(1913,1290,qs),
(1913,1256,o),
(1905,1238,qs),
(1902,1231,o),
(1898,1227,q),
(1705,1303,l),
(1538,1025,l),
(1538,945,l),
(1671,862,l),
(1671,-445,ls),
(1671,-555,o),
(1433,-555,qs),
(1194,-555,o),
(1194,-445,qs),
(1194,-302,ls),
(1194,-93,o),
(722,-93,qs),
(249,-93,o),
(249,-302,qs),
(249,-673,l),
(489,-673,l),
(559,-606,ls),
(628,-539,o),
(628,-468,qs),
(628,-414,o),
(594,-388,qs),
(559,-361,o),
(489,-361,q),
(489,-302,ls),
(489,-212,o),
(722,-212,qs),
(954,-212,o),
(954,-302,qs),
(954,-445,ls),
(954,-673,o),
(1433,-673,qs),
(1934,-673,o),
(1934,-445,qs),
(1934,869,l),
(1673,1009,l)
);
}
);
userData = {
assembly = "NPUSHB[ ]	/* 32 values pushed */
89 88 67 66 65 31 30 29 18 17 10 12 10 64 63 33 16 4 1 12 2 1 2 0 13 11 10 3 9 6 4 76 
MPPEM[ ]	/* MeasurePixelPerEm */
PUSHB[ ]	/* 1 value pushed */
12 
LT[ ]	/* LessThan */
IF[ ]	/* If */
NPUSHB[ ]	/* 60 values pushed */
0 12 10 1 10 12 1 128 0 6 5 9 5 6 9 128 0 11 0 10 12 11 10 105 0 1 13 1 0 2 1 0 105 0 8 0 5 6 8 5 105 14 3 2 2 2 19 77 0 9 9 4 97 7 1 4 4 25 4 78 
ELSE[ ]	/* Else */
MPPEM[ ]	/* MeasurePixelPerEm */
PUSHB[ ]	/* 1 value pushed */
31 
LT[ ]	/* LessThan */
IF[ ]	/* If */
NPUSHB[ ]	/* 62 values pushed */
0 12 10 1 10 12 1 128 0 6 5 9 5 6 9 128 0 11 0 10 12 11 10 105 0 1 13 1 0 2 1 0 105 14 3 2 2 2 19 77 0 5 5 8 97 0 8 8 18 77 0 9 9 4 97 7 1 4 4 25 4 78 
ELSE[ ]	/* Else */
NPUSHB[ ]	/* 59 values pushed */
0 12 10 1 10 12 1 128 0 6 5 9 5 6 9 128 0 11 0 10 12 11 10 105 0 1 13 1 0 2 1 0 105 0 9 7 1 4 9 4 101 14 3 2 2 2 19 77 0 5 5 8 97 0 8 8 18 5 78 
EIF[ ]	/* EndIf */
EIF[ ]	/* EndIf */
NPUSHB[ ]	/* 37 values pushed */
15 15 1 0 87 85 80 78 75 74 61 59 56 54 52 51 45 44 42 40 37 35 15 32 15 32 28 27 21 19 0 9 1 9 15 7 22 
CALL[ ]	/* CallFunction */";
};
width = 2164;
}
);
note = uni17A6;
unicode = 6054;
},
{
glyphname = uni17A7;
layers = (
{
layerId = m01;
shapes = (
{
closed = 1;
nodes = (
(526,902,qs),
(538,896,o),
(538,884,qs),
(538,862,o),
(526,850,qs),
(515,839,o),
(492,839,q),
(492,908,l),
(515,908,o)
);
},
{
closed = 1;
nodes = (
(492,263,qs),
(492,423,l),
(812,591,ls),
(1131,758,o),
(1213,861,o),
(1213,931,qs),
(1213,1051,ls),
(1213,1303,o),
(791,1303,qs),
(651,1303,ls),
(229,1303,o),
(229,1051,qs),
(229,838,ls),
(229,791,o),
(270,768,qs),
(311,745,o),
(362,745,qs),
(492,745,ls),
(562,745,o),
(597,780,qs),
(632,815,o),
(632,884,qs),
(632,942,o),
(597,972,qs),
(562,1001,o),
(492,1001,q),
(492,1051,ls),
(492,1160,o),
(651,1160,qs),
(791,1160,ls),
(951,1160,o),
(951,1051,qs),
(951,931,ls),
(950,872,o),
(869,777,o),
(788,734,qs),
(229,442,l),
(229,263,ls),
(229,0,o),
(570,0,q),
(570,1,l),
(604,1,l),
(951,220,l),
(951,117,ls),
(951,93,o),
(922,82,qs),
(893,70,o),
(834,70,q),
(834,11,o),
(864,-18,qs),
(893,-47,o),
(1001,-47,qs),
(1132,-47,o),
(1172,-6,qs),
(1213,34,o),
(1213,115,qs),
(1213,535,l),
(951,535,l),
(951,387,l),
(570,144,l),
(570,143,l),
(492,143,o)
);
}
);
userData = {
assembly = "NPUSHB[ ]	/* 14 values pushed */
5 0 2 0 6 68 33 27 11 4 9 1 2 76 
MPPEM[ ]	/* MeasurePixelPerEm */
PUSHB[ ]	/* 1 value pushed */
17 
LT[ ]	/* LessThan */
IF[ ]	/* If */
NPUSHB[ ]	/* 55 values pushed */
0 6 5 0 0 6 114 0 3 9 4 9 3 4 128 0 0 0 7 1 0 7 106 0 5 5 8 97 0 8 8 17 77 10 1 9 9 4 97 0 4 4 19 77 0 1 1 2 97 0 2 2 19 2 78 
ELSE[ ]	/* Else */
MPPEM[ ]	/* MeasurePixelPerEm */
PUSHB[ ]	/* 1 value pushed */
22 
LT[ ]	/* LessThan */
IF[ ]	/* If */
NPUSHB[ ]	/* 56 values pushed */
0 6 5 0 5 6 0 128 0 3 9 4 9 3 4 128 0 0 0 7 1 0 7 106 0 5 5 8 97 0 8 8 17 77 10 1 9 9 4 97 0 4 4 19 77 0 1 1 2 97 0 2 2 19 2 78 
ELSE[ ]	/* Else */
NPUSHB[ ]	/* 53 values pushed */
0 6 5 0 5 6 0 128 0 3 9 4 9 3 4 128 0 0 0 7 1 0 7 106 0 1 0 2 1 2 101 0 5 5 8 97 0 8 8 17 77 10 1 9 9 4 97 0 4 4 19 4 78 
EIF[ ]	/* EndIf */
EIF[ ]	/* EndIf */
NPUSHB[ ]	/* 18 values pushed */
9 9 9 70 9 70 53 54 18 56 53 19 36 26 17 11 7 31 
CALL[ ]	/* CallFunction */";
};
width = 1442;
}
);
note = uni17A7;
unicode = 6055;
},
{
glyphname = uni17A8;
layers = (
{
layerId = m01;
shapes = (
{
closed = 1;
nodes = (
(526,902,qs),
(538,896,o),
(538,884,qs),
(538,862,o),
(526,850,qs),
(515,839,o),
(492,839,q),
(492,908,l),
(515,908,o)
);
},
{
closed = 1;
nodes = (
(492,263,qs),
(492,423,l),
(812,591,ls),
(1131,758,o),
(1213,861,o),
(1213,931,qs),
(1213,1051,ls),
(1213,1303,o),
(791,1303,qs),
(651,1303,ls),
(229,1303,o),
(229,1051,qs),
(229,838,ls),
(229,791,o),
(270,768,qs),
(311,745,o),
(362,745,qs),
(492,745,ls),
(562,745,o),
(597,780,qs),
(632,815,o),
(632,884,qs),
(632,942,o),
(597,972,qs),
(562,1001,o),
(492,1001,q),
(492,1051,ls),
(492,1160,o),
(651,1160,qs),
(791,1160,ls),
(951,1160,o),
(951,1051,qs),
(951,931,ls),
(950,872,o),
(869,777,o),
(788,734,qs),
(229,442,l),
(229,263,ls),
(229,0,o),
(570,0,q),
(570,1,l),
(604,1,l),
(951,220,l),
(951,117,ls),
(951,93,o),
(922,82,qs),
(893,70,o),
(834,70,q),
(834,11,o),
(864,-18,qs),
(893,-47,o),
(1001,-47,qs),
(1132,-47,o),
(1172,-6,qs),
(1213,34,o),
(1213,115,qs),
(1213,535,l),
(951,535,l),
(951,387,l),
(570,144,l),
(570,143,l),
(492,143,o)
);
},
{
closed = 1;
nodes = (
(1178,1364,qs),
(1253,1364,o),
(1306,1535,q),
(1253,1535,ls),
(1206,1535,o),
(1165,1560,qs),
(980,1673,l),
(893,1673,l),
(749,1548,l),
(550,1673,l),
(453,1673,l),
(136,1487,l),
(136,1435,l),
(239,1346,l),
(270,1322,o),
(361,1322,qs),
(363,1322,ls),
(395,1322,o),
(443,1395,q),
(331,1475,l),
(406,1520,l),
(636,1374,l),
(716,1374,l),
(843,1494,l),
(1010,1402,ls),
(1073,1364,o)
);
}
);
userData = {
assembly = "NPUSHB[ ]	/* 27 values pushed */
87 1 14 12 84 83 77 76 75 72 6 10 14 5 0 2 0 6 68 33 27 11 4 9 1 4 76 
MPPEM[ ]	/* MeasurePixelPerEm */
PUSHB[ ]	/* 1 value pushed */
17 
LT[ ]	/* LessThan */
IF[ ]	/* If */
NPUSHB[ ]	/* 78 values pushed */
13 1 12 14 12 133 0 11 10 8 10 11 8 128 0 6 5 0 0 6 114 0 3 9 4 9 3 4 128 0 14 15 1 10 11 14 10 105 0 0 0 7 1 0 7 106 0 5 5 8 97 0 8 8 17 77 16 1 9 9 4 97 0 4 4 19 77 0 1 1 2 97 0 2 2 19 2 78 
ELSE[ ]	/* Else */
MPPEM[ ]	/* MeasurePixelPerEm */
PUSHB[ ]	/* 1 value pushed */
22 
LT[ ]	/* LessThan */
IF[ ]	/* If */
NPUSHB[ ]	/* 79 values pushed */
13 1 12 14 12 133 0 11 10 8 10 11 8 128 0 6 5 0 5 6 0 128 0 3 9 4 9 3 4 128 0 14 15 1 10 11 14 10 105 0 0 0 7 1 0 7 106 0 5 5 8 97 0 8 8 17 77 16 1 9 9 4 97 0 4 4 19 77 0 1 1 2 97 0 2 2 19 2 78 
ELSE[ ]	/* Else */
MPPEM[ ]	/* MeasurePixelPerEm */
PUSHB[ ]	/* 1 value pushed */
50 
LT[ ]	/* LessThan */
IF[ ]	/* If */
NPUSHB[ ]	/* 76 values pushed */
13 1 12 14 12 133 0 11 10 8 10 11 8 128 0 6 5 0 5 6 0 128 0 3 9 4 9 3 4 128 0 14 15 1 10 11 14 10 105 0 0 0 7 1 0 7 106 0 1 0 2 1 2 101 0 5 5 8 97 0 8 8 17 77 16 1 9 9 4 97 0 4 4 19 4 78 
ELSE[ ]	/* Else */
NPUSHB[ ]	/* 83 values pushed */
13 1 12 14 12 133 0 10 14 15 14 10 15 128 0 11 15 8 15 11 8 128 0 6 5 0 5 6 0 128 0 3 9 4 9 3 4 128 0 14 0 15 11 14 15 105 0 0 0 7 1 0 7 106 0 1 0 2 1 2 101 0 5 5 8 97 0 8 8 17 77 16 1 9 9 4 97 0 4 4 19 4 78 
EIF[ ]	/* EndIf */
EIF[ ]	/* EndIf */
EIF[ ]	/* EndIf */
NPUSHB[ ]	/* 30 values pushed */
9 9 96 94 93 91 89 88 86 85 81 78 74 73 9 70 9 70 53 54 18 56 53 19 36 26 17 17 7 31 
CALL[ ]	/* CallFunction */";
};
width = 1442;
}
);
note = uni17A8;
unicode = 6056;
},
{
glyphname = uni17A9;
layers = (
{
layerId = m01;
shapes = (
{
closed = 1;
nodes = (
(1229,-6,qs),
(1212,-47,o),
(1177,-47,q),
(1177,-70,o),
(1212,-93,o),
(1327,-93,qs),
(1403,-93,o),
(1426,-46,qs),
(1450,2,o),
(1450,97,qs),
(1450,535,l),
(1247,535,l),
(1247,99,ls),
(1247,35,o)
);
},
{
closed = 1;
nodes = (
(526,902,qs),
(538,896,o),
(538,884,qs),
(538,862,o),
(526,850,qs),
(515,839,o),
(492,839,q),
(492,908,l),
(515,908,o)
);
},
{
closed = 1;
nodes = (
(492,263,qs),
(492,423,l),
(812,591,ls),
(1131,758,o),
(1213,861,o),
(1213,931,qs),
(1213,1051,ls),
(1213,1303,o),
(791,1303,qs),
(651,1303,ls),
(229,1303,o),
(229,1051,qs),
(229,838,ls),
(229,791,o),
(270,768,qs),
(311,745,o),
(362,745,qs),
(492,745,ls),
(562,745,o),
(597,780,qs),
(632,815,o),
(632,884,qs),
(632,942,o),
(597,972,qs),
(562,1001,o),
(492,1001,q),
(492,1051,ls),
(492,1160,o),
(651,1160,qs),
(791,1160,ls),
(951,1160,o),
(951,1051,qs),
(951,931,ls),
(950,872,o),
(869,777,o),
(788,734,qs),
(229,442,l),
(229,263,ls),
(229,0,o),
(570,0,q),
(570,1,l),
(604,1,l),
(951,220,l),
(951,117,ls),
(951,93,o),
(922,82,qs),
(893,70,o),
(834,70,q),
(834,11,o),
(864,-18,qs),
(893,-47,o),
(1001,-47,qs),
(1082,-47,o),
(1122,-6,qs),
(1163,34,o),
(1163,115,qs),
(1163,535,l),
(951,535,l),
(951,387,l),
(570,144,l),
(570,143,l),
(492,143,o)
);
}
);
userData = {
assembly = "NPUSHB[ ]	/* 14 values pushed */
19 14 2 3 9 82 47 41 25 4 12 0 2 76 
MPPEM[ ]	/* MeasurePixelPerEm */
PUSHB[ ]	/* 1 value pushed */
12 
LT[ ]	/* LessThan */
IF[ ]	/* If */
NPUSHB[ ]	/* 69 values pushed */
0 9 8 3 3 9 114 0 6 12 7 12 6 7 128 0 2 5 1 5 2 1 128 0 3 0 10 0 3 10 106 0 1 0 1 85 0 8 8 11 97 0 11 11 17 77 13 1 12 12 7 97 0 7 7 19 77 4 1 0 0 5 97 0 5 5 19 5 78 
ELSE[ ]	/* Else */
MPPEM[ ]	/* MeasurePixelPerEm */
PUSHB[ ]	/* 1 value pushed */
17 
LT[ ]	/* LessThan */
IF[ ]	/* If */
NPUSHB[ ]	/* 66 values pushed */
0 9 8 3 3 9 114 0 6 12 7 12 6 7 128 0 3 0 10 0 3 10 106 0 1 0 1 85 0 8 8 11 97 0 11 11 17 77 13 1 12 12 7 97 0 7 7 19 77 4 1 0 0 5 97 0 5 5 19 77 0 2 2 18 2 78 
ELSE[ ]	/* Else */
MPPEM[ ]	/* MeasurePixelPerEm */
PUSHB[ ]	/* 1 value pushed */
22 
LT[ ]	/* LessThan */
IF[ ]	/* If */
NPUSHB[ ]	/* 67 values pushed */
0 9 8 3 8 9 3 128 0 6 12 7 12 6 7 128 0 3 0 10 0 3 10 106 0 1 0 1 85 0 8 8 11 97 0 11 11 17 77 13 1 12 12 7 97 0 7 7 19 77 4 1 0 0 5 97 0 5 5 19 77 0 2 2 18 2 78 
ELSE[ ]	/* Else */
NPUSHB[ ]	/* 68 values pushed */
0 9 8 3 8 9 3 128 0 6 12 7 12 6 7 128 0 2 5 1 5 2 1 128 0 3 0 10 0 3 10 106 0 5 2 0 5 89 4 1 0 0 1 0 1 101 0 8 8 11 97 0 11 11 17 77 13 1 12 12 7 97 0 7 7 19 7 78 
EIF[ ]	/* EndIf */
EIF[ ]	/* EndIf */
EIF[ ]	/* EndIf */
NPUSHB[ ]	/* 24 values pushed */
23 23 23 84 23 84 76 73 68 65 59 58 56 53 19 36 26 20 18 36 17 14 7 31 
CALL[ ]	/* CallFunction */";
};
width = 1442;
}
);
note = uni17A9;
unicode = 6057;
},
{
glyphname = uni17AA;
layers = (
{
layerId = m01;
shapes = (
{
closed = 1;
nodes = (
(526,902,qs),
(538,896,o),
(538,884,qs),
(538,862,o),
(526,850,qs),
(515,839,o),
(492,839,q),
(492,908,l),
(515,908,o)
);
},
{
closed = 1;
nodes = (
(492,263,qs),
(492,423,l),
(812,591,ls),
(1131,758,o),
(1213,861,o),
(1213,931,qs),
(1213,1051,ls),
(1213,1303,o),
(791,1303,qs),
(651,1303,ls),
(229,1303,o),
(229,1051,qs),
(229,838,ls),
(229,791,o),
(270,768,qs),
(311,745,o),
(362,745,qs),
(492,745,ls),
(562,745,o),
(597,780,qs),
(632,815,o),
(632,884,qs),
(632,942,o),
(597,972,qs),
(562,1001,o),
(492,1001,q),
(492,1051,ls),
(492,1160,o),
(651,1160,qs),
(791,1160,ls),
(951,1160,o),
(951,1051,qs),
(951,931,ls),
(950,872,o),
(869,777,o),
(788,734,qs),
(229,442,l),
(229,263,ls),
(229,0,o),
(570,0,q),
(570,1,l),
(604,1,l),
(951,220,l),
(951,117,ls),
(951,93,o),
(922,82,qs),
(893,70,o),
(834,70,q),
(834,11,o),
(864,-18,qs),
(893,-47,o),
(1001,-47,qs),
(1132,-47,o),
(1172,-6,qs),
(1213,34,o),
(1213,115,qs),
(1213,535,l),
(951,535,l),
(951,387,l),
(570,144,l),
(570,143,l),
(492,143,o)
);
},
{
closed = 1;
nodes = (
(393,1558,l),
(612,1411,l),
(838,1411,ls),
(1213,1411,o),
(1213,1650,qs),
(1213,1883,o),
(997,1883,qs),
(911,1883,o),
(882,1861,qs),
(854,1837,o),
(854,1790,q),
(950,1790,o),
(951,1650,qs),
(950,1554,o),
(848,1554,qs),
(805,1554,l),
(505,1743,l),
(403,1743,l),
(136,1550,l),
(136,1399,l),
(229,1326,l),
(492,1376,l),
(318,1500,l)
);
}
);
userData = {
assembly = "NPUSHB[ ]	/* 28 values pushed */
92 1 11 10 93 74 2 14 11 73 72 2 8 14 5 0 2 0 6 68 33 27 11 4 9 1 5 76 
MPPEM[ ]	/* MeasurePixelPerEm */
PUSHB[ ]	/* 1 value pushed */
17 
LT[ ]	/* LessThan */
IF[ ]	/* If */
NPUSHB[ ]	/* 79 values pushed */
0 10 12 11 12 10 11 128 0 6 5 0 0 6 114 0 3 9 4 9 3 4 128 0 13 0 12 10 13 12 105 0 11 0 14 8 11 14 103 0 0 0 7 1 0 7 106 0 5 5 8 97 0 8 8 17 77 15 1 9 9 4 97 0 4 4 19 77 0 1 1 2 97 0 2 2 19 2 78 
ELSE[ ]	/* Else */
MPPEM[ ]	/* MeasurePixelPerEm */
PUSHB[ ]	/* 1 value pushed */
22 
LT[ ]	/* LessThan */
IF[ ]	/* If */
NPUSHB[ ]	/* 80 values pushed */
0 10 12 11 12 10 11 128 0 6 5 0 5 6 0 128 0 3 9 4 9 3 4 128 0 13 0 12 10 13 12 105 0 11 0 14 8 11 14 103 0 0 0 7 1 0 7 106 0 5 5 8 97 0 8 8 17 77 15 1 9 9 4 97 0 4 4 19 77 0 1 1 2 97 0 2 2 19 2 78 
ELSE[ ]	/* Else */
NPUSHB[ ]	/* 77 values pushed */
0 10 12 11 12 10 11 128 0 6 5 0 5 6 0 128 0 3 9 4 9 3 4 128 0 13 0 12 10 13 12 105 0 11 0 14 8 11 14 103 0 0 0 7 1 0 7 106 0 1 0 2 1 2 101 0 5 5 8 97 0 8 8 17 77 15 1 9 9 4 97 0 4 4 19 4 78 
EIF[ ]	/* EndIf */
EIF[ ]	/* EndIf */
NPUSHB[ ]	/* 28 values pushed */
9 9 91 89 87 85 82 81 79 77 76 75 9 70 9 70 53 54 18 56 53 19 36 26 17 16 7 31 
CALL[ ]	/* CallFunction */";
};
width = 1442;
}
);
note = uni17AA;
unicode = 6058;
},
{
glyphname = uni17AB;
layers = (
{
layerId = m01;
shapes = (
{
closed = 1;
nodes = (
(1047,-93,qs),
(881,-93,o),
(881,-186,q),
(950,-186,o),
(950,-233,qs),
(950,-429,o),
(589,-429,qs),
(259,-429,o),
(136,-391,q),
(193,-481,o),
(444,-572,o),
(588,-572,qs),
(1213,-572,o),
(1213,-233,qs),
(1213,-93,o)
);
},
{
closed = 1;
nodes = (
(1213,263,qs),
(1213,869,l),
(973,1009,l),
(1023,1085,l),
(1157,997,o),
(1202,997,qs),
(1299,997,o),
(1336,1187,q),
(1261,1187,o),
(1207,1216,qs),
(1044,1303,l),
(837,1025,l),
(837,935,l),
(950,862,l),
(950,263,ls),
(950,143,o),
(768,143,qs),
(675,143,ls),
(492,143,o),
(492,263,qs),
(492,869,l),
(231,1009,l),
(281,1075,l),
(435,997,o),
(481,997,qs),
(547,997,o),
(605,1187,q),
(539,1187,o),
(483,1216,qs),
(313,1303,l),
(96,1025,l),
(96,945,l),
(229,862,l),
(229,263,ls),
(229,0,o),
(675,0,qs),
(768,0,ls),
(1213,0,o)
);
}
);
userData = {
assembly = "NPUSHB[ ]	/* 29 values pushed */
49 48 40 30 29 21 6 6 5 50 39 38 31 20 19 6 7 6 5 1 1 2 3 76 41 22 2 5 74 
MPPEM[ ]	/* MeasurePixelPerEm */
PUSHB[ ]	/* 1 value pushed */
12 
LT[ ]	/* LessThan */
IF[ ]	/* If */
NPUSHB[ ]	/* 40 values pushed */
8 1 5 9 1 6 7 5 6 105 0 3 0 2 1 3 2 105 0 7 7 4 97 10 1 4 4 19 77 0 1 1 0 97 0 0 0 20 0 78 
ELSE[ ]	/* Else */
MPPEM[ ]	/* MeasurePixelPerEm */
PUSHB[ ]	/* 1 value pushed */
28 
LT[ ]	/* LessThan */
IF[ ]	/* If */
NPUSHB[ ]	/* 42 values pushed */
8 1 5 9 1 6 7 5 6 105 0 7 7 4 97 10 1 4 4 19 77 0 2 2 3 97 0 3 3 18 77 0 1 1 0 97 0 0 0 20 0 78 
ELSE[ ]	/* Else */
NPUSHB[ ]	/* 39 values pushed */
8 1 5 9 1 6 7 5 6 105 0 1 0 0 1 0 101 0 7 7 4 97 10 1 4 4 19 77 0 2 2 3 97 0 3 3 18 2 78 
EIF[ ]	/* EndIf */
EIF[ ]	/* EndIf */
NPUSHB[ ]	/* 23 values pushed */
17 15 47 45 44 43 36 33 28 26 25 24 15 52 17 52 33 18 35 33 11 7 26 
CALL[ ]	/* CallFunction */";
};
width = 1442;
}
);
note = uni17AB;
unicode = 6059;
},
{
glyphname = uni17AC;
layers = (
{
layerId = m01;
shapes = (
{
closed = 1;
nodes = (
(1213,-233,qs),
(1213,-93,o),
(1047,-93,qs),
(881,-93,o),
(881,-186,q),
(950,-186,o),
(950,-233,qs),
(950,-429,o),
(589,-429,qs),
(259,-429,o),
(136,-391,q),
(193,-481,o),
(444,-572,o),
(588,-572,qs),
(830,-572,o),
(978,-521,q),
(1008,-544,o),
(1041,-557,qs),
(1081,-572,o),
(1161,-572,qs),
(1241,-572,o),
(1326,-495,o),
(1326,-430,q),
(1240,-430,o),
(1197,-412,qs),
(1181,-405,o),
(1164,-396,q),
(1213,-328,o)
);
},
{
closed = 1;
nodes = (
(1213,263,qs),
(1213,869,l),
(973,1009,l),
(1023,1085,l),
(1157,997,o),
(1202,997,qs),
(1299,997,o),
(1336,1187,q),
(1261,1187,o),
(1207,1216,qs),
(1044,1303,l),
(837,1025,l),
(837,935,l),
(950,862,l),
(950,263,ls),
(950,143,o),
(768,143,qs),
(675,143,ls),
(492,143,o),
(492,263,qs),
(492,869,l),
(231,1009,l),
(281,1075,l),
(435,997,o),
(481,997,qs),
(547,997,o),
(605,1187,q),
(539,1187,o),
(483,1216,qs),
(313,1303,l),
(96,1025,l),
(96,945,l),
(229,862,l),
(229,263,ls),
(229,0,o),
(675,0,qs),
(768,0,ls),
(1213,0,o)
);
}
);
userData = {
assembly = "NPUSHB[ ]	/* 33 values pushed */
62 61 53 43 42 34 6 8 7 63 52 51 44 33 32 6 9 8 16 1 0 4 11 1 1 0 4 76 54 35 2 7 74 
MPPEM[ ]	/* MeasurePixelPerEm */
PUSHB[ ]	/* 1 value pushed */
12 
LT[ ]	/* LessThan */
IF[ ]	/* If */
NPUSHB[ ]	/* 42 values pushed */
10 1 7 11 1 8 9 7 8 105 0 5 0 4 0 5 4 105 0 9 9 6 97 12 1 6 6 19 77 3 1 0 0 1 97 2 1 1 1 20 1 78 
ELSE[ ]	/* Else */
MPPEM[ ]	/* MeasurePixelPerEm */
PUSHB[ ]	/* 1 value pushed */
28 
LT[ ]	/* LessThan */
IF[ ]	/* If */
NPUSHB[ ]	/* 44 values pushed */
10 1 7 11 1 8 9 7 8 105 0 9 9 6 97 12 1 6 6 19 77 0 4 4 5 97 0 5 5 18 77 3 1 0 0 1 97 2 1 1 1 20 1 78 
ELSE[ ]	/* Else */
NPUSHB[ ]	/* 41 values pushed */
10 1 7 11 1 8 9 7 8 105 3 1 0 2 1 1 0 1 101 0 9 9 6 97 12 1 6 6 19 77 0 4 4 5 97 0 5 5 18 4 78 
EIF[ ]	/* EndIf */
EIF[ ]	/* EndIf */
NPUSHB[ ]	/* 25 values pushed */
30 28 60 58 57 56 49 46 41 39 38 37 28 65 30 65 33 18 35 36 34 19 13 7 28 
CALL[ ]	/* CallFunction */";
};
width = 1442;
}
);
note = uni17AC;
unicode = 6060;
},
{
glyphname = uni17AD;
layers = (
{
layerId = m01;
shapes = (
{
closed = 1;
nodes = (
(1047,-93,qs),
(881,-93,o),
(881,-186,q),
(950,-186,o),
(950,-233,qs),
(950,-429,o),
(589,-429,qs),
(259,-429,o),
(136,-391,q),
(193,-481,o),
(444,-572,o),
(588,-572,qs),
(1213,-572,o),
(1213,-233,qs),
(1213,-93,o)
);
},
{
closed = 1;
nodes = (
(561,337,qs),
(578,326,o),
(578,303,qs),
(578,275,o),
(564,247,qs),
(550,220,o),
(492,151,q),
(492,349,l),
(519,349,ls),
(543,349,o)
);
},
{
closed = 1;
nodes = (
(614,119,o),
(681,235,o),
(681,303,qs),
(681,372,o),
(640,408,qs),
(600,442,o),
(519,442,qs),
(492,442,l),
(492,1056,l),
(533,1103,l),
(722,957,l),
(911,1103,l),
(950,1055,l),
(950,0,l),
(1213,0,l),
(1213,1052,l),
(928,1303,l),
(722,1140,l),
(515,1303,l),
(229,1056,l),
(229,0,l),
(492,0,l)
);
}
);
userData = {
assembly = "NPUSHB[ ]	/* 23 values pushed */
17 1 5 4 5 1 1 2 2 76 37 36 35 34 33 30 29 28 27 26 10 6 74 
MPPEM[ ]	/* MeasurePixelPerEm */
PUSHB[ ]	/* 1 value pushed */
12 
LT[ ]	/* LessThan */
IF[ ]	/* If */
NPUSHB[ ]	/* 35 values pushed */
0 6 8 1 4 5 6 4 105 0 3 0 2 1 3 2 105 9 7 2 5 5 19 77 0 1 1 0 97 0 0 0 20 0 78 
ELSE[ ]	/* Else */
MPPEM[ ]	/* MeasurePixelPerEm */
PUSHB[ ]	/* 1 value pushed */
28 
LT[ ]	/* LessThan */
IF[ ]	/* If */
NPUSHB[ ]	/* 37 values pushed */
0 6 8 1 4 5 6 4 105 9 7 2 5 5 19 77 0 2 2 3 97 0 3 3 18 77 0 1 1 0 97 0 0 0 20 0 78 
ELSE[ ]	/* Else */
NPUSHB[ ]	/* 34 values pushed */
0 6 8 1 4 5 6 4 105 0 1 0 0 1 0 101 9 7 2 5 5 19 77 0 2 2 3 97 0 3 3 18 2 78 
EIF[ ]	/* EndIf */
EIF[ ]	/* EndIf */
NPUSHB[ ]	/* 23 values pushed */
25 25 16 15 25 46 25 46 40 38 32 31 15 24 16 24 33 18 35 33 10 7 26 
CALL[ ]	/* CallFunction */";
};
width = 1442;
}
);
note = uni17AD;
unicode = 6061;
},
{
glyphname = uni17AE;
layers = (
{
layerId = m01;
shapes = (
{
closed = 1;
nodes = (
(1213,-233,qs),
(1213,-93,o),
(1047,-93,qs),
(881,-93,o),
(881,-186,q),
(950,-186,o),
(950,-233,qs),
(950,-429,o),
(589,-429,qs),
(259,-429,o),
(136,-391,q),
(193,-481,o),
(444,-572,o),
(588,-572,qs),
(830,-572,o),
(978,-521,q),
(1008,-544,o),
(1041,-557,qs),
(1081,-572,o),
(1161,-572,qs),
(1241,-572,o),
(1326,-495,o),
(1326,-430,q),
(1240,-430,o),
(1197,-412,qs),
(1181,-405,o),
(1164,-396,q),
(1213,-328,o)
);
},
{
closed = 1;
nodes = (
(561,337,qs),
(578,326,o),
(578,303,qs),
(578,275,o),
(564,247,qs),
(550,220,o),
(492,151,q),
(492,349,l),
(519,349,ls),
(543,349,o)
);
},
{
closed = 1;
nodes = (
(614,119,o),
(681,235,o),
(681,303,qs),
(681,372,o),
(640,408,qs),
(600,442,o),
(519,442,qs),
(492,442,l),
(492,1056,l),
(533,1103,l),
(722,957,l),
(911,1103,l),
(950,1055,l),
(950,0,l),
(1213,0,l),
(1213,1052,l),
(928,1303,l),
(722,1140,l),
(515,1303,l),
(229,1056,l),
(229,0,l),
(492,0,l)
);
}
);
userData = {
assembly = "NPUSHB[ ]	/* 27 values pushed */
30 1 7 6 16 1 0 4 11 1 1 0 3 76 50 49 48 47 46 43 42 41 40 39 10 8 74 
MPPEM[ ]	/* MeasurePixelPerEm */
PUSHB[ ]	/* 1 value pushed */
12 
LT[ ]	/* LessThan */
IF[ ]	/* If */
NPUSHB[ ]	/* 37 values pushed */
0 8 10 1 6 7 8 6 105 0 5 0 4 0 5 4 105 11 9 2 7 7 19 77 3 1 0 0 1 97 2 1 1 1 20 1 78 
ELSE[ ]	/* Else */
MPPEM[ ]	/* MeasurePixelPerEm */
PUSHB[ ]	/* 1 value pushed */
28 
LT[ ]	/* LessThan */
IF[ ]	/* If */
NPUSHB[ ]	/* 39 values pushed */
0 8 10 1 6 7 8 6 105 11 9 2 7 7 19 77 0 4 4 5 97 0 5 5 18 77 3 1 0 0 1 97 2 1 1 1 20 1 78 
ELSE[ ]	/* Else */
NPUSHB[ ]	/* 36 values pushed */
0 8 10 1 6 7 8 6 105 3 1 0 2 1 1 0 1 101 11 9 2 7 7 19 77 0 4 4 5 97 0 5 5 18 4 78 
EIF[ ]	/* EndIf */
EIF[ ]	/* EndIf */
NPUSHB[ ]	/* 25 values pushed */
38 38 29 28 38 59 38 59 53 51 45 44 28 37 29 37 33 18 35 36 34 19 12 7 28 
CALL[ ]	/* CallFunction */";
};
width = 1442;
}
);
note = uni17AE;
unicode = 6062;
},
{
glyphname = uni17AF;
layers = (
{
layerId = m01;
shapes = (
{
closed = 1;
nodes = (
(197,564,qs),
(179,570,o),
(179,582,qs),
(179,601,o),
(197,631,qs),
(214,661,o),
(229,669,q),
(229,559,l),
(214,559,o)
);
},
{
closed = 1;
nodes = (
(492,181,l),
(492,838,l),
(229,838,l),
(132,707,o),
(108,664,qs),
(86,620,o),
(86,581,qs),
(86,523,o),
(127,494,qs),
(167,465,o),
(229,465,q),
(229,0,l),
(492,0,l),
(721,180,l),
(950,0,l),
(1213,0,l),
(1213,1103,l),
(721,1303,l),
(492,1198,l),
(492,1304,ls),
(492,1396,o),
(456,1443,qs),
(422,1489,o),
(302,1489,qs),
(194,1489,o),
(165,1461,qs),
(136,1432,o),
(136,1373,q),
(182,1373,o),
(206,1355,qs),
(229,1338,o),
(229,1304,qs),
(229,1164,ls),
(229,1056,o),
(258,1026,qs),
(287,997,o),
(365,997,qs),
(442,998,o),
(442,1025,q),
(627,1103,l),
(950,978,l),
(950,181,l),
(721,360,l)
);
}
);
userData = {
assembly = "NPUSHB[ ]	/* 71 values pushed */
34 33 32 12 11 5 0 1 10 1 6 0 1 1 5 6 51 50 37 9 4 3 5 4 76 0 1 2 0 2 1 0 128 0 5 6 3 6 5 3 128 0 2 0 0 6 2 0 105 0 6 6 3 95 4 1 3 3 19 3 78 23 17 18 23 35 23 45 7 7 29 
CALL[ ]	/* CallFunction */";
};
width = 1442;
}
);
note = uni17AF;
unicode = 6063;
},
{
glyphname = uni17B0;
layers = (
{
layerId = m01;
shapes = (
{
closed = 1;
nodes = (
(229,-539,qs),
(229,-608,o),
(301,-643,qs),
(372,-678,o),
(567,-678,qs),
(672,-678,o),
(724,-632,qs),
(776,-585,o),
(776,-491,q),
(852,-508,ls),
(903,-518,o),
(946,-518,qs),
(1213,-518,o),
(1213,-246,qs),
(1213,-27,l),
(951,-27,l),
(751,-218,o),
(458,-381,o),
(284,-430,q),
(229,-451,o)
);
},
{
closed = 1;
nodes = (
(907,-386,qs),
(894,-386,o),
(879,-382,qs),
(750,-342,l),
(863,-284,o),
(951,-205,q),
(951,-246,ls),
(951,-386,o)
);
},
{
closed = 1;
nodes = (
(492,-509,qs),
(492,-481,l),
(541,-464,o),
(656,-404,q),
(656,-488,ls),
(656,-517,o),
(606,-555,o),
(567,-555,qs),
(492,-555,o)
);
},
{
closed = 1;
nodes = (
(561,337,qs),
(578,326,o),
(578,303,qs),
(578,275,o),
(564,247,qs),
(550,220,o),
(492,151,q),
(492,349,l),
(519,349,ls),
(543,349,o)
);
},
{
closed = 1;
nodes = (
(614,119,o),
(681,235,o),
(681,303,qs),
(681,372,o),
(640,408,qs),
(600,442,o),
(519,442,qs),
(492,442,l),
(492,1056,l),
(533,1103,l),
(722,957,l),
(911,1103,l),
(950,1055,l),
(950,0,l),
(1213,0,l),
(1213,1052,l),
(928,1303,l),
(722,1140,l),
(515,1303,l),
(229,1056,l),
(229,0,l),
(492,0,l)
);
}
);
userData = {
assembly = "NPUSHB[ ]	/* 30 values pushed */
39 1 6 5 23 21 2 3 0 34 32 10 3 1 3 3 76 59 58 57 56 55 52 51 50 49 48 10 7 74 
MPPEM[ ]	/* MeasurePixelPerEm */
PUSHB[ ]	/* 1 value pushed */
31 
LT[ ]	/* LessThan */
IF[ ]	/* If */
NPUSHB[ ]	/* 44 values pushed */
0 0 6 3 6 0 3 128 0 7 10 1 5 6 7 5 105 0 3 0 1 4 3 1 106 11 8 2 6 6 19 77 9 1 4 4 2 97 0 2 2 25 2 78 
ELSE[ ]	/* Else */
NPUSHB[ ]	/* 41 values pushed */
0 0 6 3 6 0 3 128 0 7 10 1 5 6 7 5 105 0 3 0 1 4 3 1 106 9 1 4 0 2 4 2 101 11 8 2 6 6 19 6 78 
EIF[ ]	/* EndIf */
NPUSHB[ ]	/* 29 values pushed */
47 47 38 37 29 28 47 68 47 68 62 60 54 53 37 46 38 46 28 36 29 36 27 37 34 19 12 7 26 
CALL[ ]	/* CallFunction */";
};
width = 1442;
}
);
note = uni17B0;
unicode = 6064;
},
{
glyphname = uni17B1;
layers = (
{
layerId = m01;
shapes = (
{
closed = 1;
nodes = (
(578,1529,o),
(658,1510,qs),
(737,1491,o),
(815,1452,qs),
(896,1412,ls),
(988,1366,o),
(1122,1366,qs),
(1257,1366,o),
(1257,1539,q),
(1164,1539,o),
(1099,1571,qs),
(940,1651,ls),
(848,1698,o),
(752,1721,qs),
(655,1744,o),
(556,1744,q),
(156,1508,l),
(156,1415,l),
(277,1345,ls),
(315,1322,o),
(370,1312,q),
(461,1418,l),
(342,1471,l),
(439,1529,l)
);
},
{
closed = 1;
nodes = (
(526,902,qs),
(538,896,o),
(538,884,qs),
(538,862,o),
(526,850,qs),
(515,839,o),
(492,839,q),
(492,908,l),
(515,908,o)
);
},
{
closed = 1;
nodes = (
(492,263,qs),
(492,423,l),
(812,591,ls),
(1131,758,o),
(1213,861,o),
(1213,931,qs),
(1213,1051,ls),
(1213,1303,o),
(791,1303,qs),
(651,1303,ls),
(229,1303,o),
(229,1051,qs),
(229,838,ls),
(229,791,o),
(270,768,qs),
(311,745,o),
(362,745,qs),
(492,745,ls),
(562,745,o),
(597,780,qs),
(632,815,o),
(632,884,qs),
(632,942,o),
(597,972,qs),
(562,1001,o),
(492,1001,q),
(492,1051,ls),
(492,1160,o),
(651,1160,qs),
(791,1160,ls),
(951,1160,o),
(951,1051,qs),
(951,931,ls),
(950,872,o),
(869,777,o),
(788,734,qs),
(229,442,l),
(229,263,ls),
(229,0,o),
(570,0,q),
(570,1,l),
(604,1,l),
(951,220,l),
(951,117,ls),
(951,93,o),
(922,82,qs),
(893,70,o),
(834,70,q),
(834,11,o),
(864,-18,qs),
(893,-47,o),
(1001,-47,qs),
(1132,-47,o),
(1172,-6,qs),
(1213,34,o),
(1213,115,qs),
(1213,535,l),
(951,535,l),
(951,387,l),
(570,144,l),
(570,143,l),
(492,143,o)
);
}
);
userData = {
assembly = "NPUSHB[ ]	/* 24 values pushed */
6 5 1 3 2 3 2 1 12 2 29 24 2 4 10 92 57 51 35 4 13 5 4 76 
MPPEM[ ]	/* MeasurePixelPerEm */
PUSHB[ ]	/* 1 value pushed */
17 
LT[ ]	/* LessThan */
IF[ ]	/* If */
NPUSHB[ ]	/* 71 values pushed */
0 10 9 4 4 10 114 0 7 13 8 13 7 8 128 0 0 0 3 2 0 3 105 0 1 0 2 12 1 2 105 0 4 0 11 5 4 11 106 0 9 9 12 97 0 12 12 17 77 14 1 13 13 8 97 0 8 8 19 77 0 5 5 6 97 0 6 6 19 6 78 
ELSE[ ]	/* Else */
MPPEM[ ]	/* MeasurePixelPerEm */
PUSHB[ ]	/* 1 value pushed */
22 
LT[ ]	/* LessThan */
IF[ ]	/* If */
NPUSHB[ ]	/* 72 values pushed */
0 10 9 4 9 10 4 128 0 7 13 8 13 7 8 128 0 0 0 3 2 0 3 105 0 1 0 2 12 1 2 105 0 4 0 11 5 4 11 106 0 9 9 12 97 0 12 12 17 77 14 1 13 13 8 97 0 8 8 19 77 0 5 5 6 97 0 6 6 19 6 78 
ELSE[ ]	/* Else */
NPUSHB[ ]	/* 69 values pushed */
0 10 9 4 9 10 4 128 0 7 13 8 13 7 8 128 0 0 0 3 2 0 3 105 0 1 0 2 12 1 2 105 0 4 0 11 5 4 11 106 0 5 0 6 5 6 101 0 9 9 12 97 0 12 12 17 77 14 1 13 13 8 97 0 8 8 19 8 78 
EIF[ ]	/* EndIf */
EIF[ ]	/* EndIf */
NPUSHB[ ]	/* 26 values pushed */
33 33 33 94 33 94 86 83 78 75 69 68 66 63 53 19 36 26 18 21 33 21 23 15 7 31 
CALL[ ]	/* CallFunction */";
};
width = 1442;
}
);
note = uni17B1;
unicode = 6065;
},
{
glyphname = uni17B2;
layers = (
{
layerId = m01;
shapes = (
{
closed = 1;
nodes = (
(1001,263,qs),
(1001,144,o),
(792,144,qs),
(651,144,ls),
(492,144,o),
(492,263,qs),
(492,1045,l),
(637,1113,l),
(1000,968,l),
(1213,1103,l),
(721,1303,l),
(229,1104,l),
(229,263,ls),
(229,0,o),
(651,0,qs),
(792,0,ls),
(1213,0,o),
(1213,263,qs),
(1213,412,o),
(1086,428,q),
(1127,461,ls),
(1213,526,o),
(1213,652,qs),
(1213,891,o),
(887,891,qs),
(616,891,o),
(616,706,qs),
(616,543,o),
(782,543,qs),
(887,543,o),
(887,652,q),
(829,652,o),
(829,706,qs),
(829,769,o),
(887,769,qs),
(951,769,o),
(951,652,qs),
(951,551,o),
(901,514,q),
(617,286,l),
(617,285,ls),
(617,217,o),
(806,217,q),
(940,326,l),
(949,326,ls),
(1001,326,o)
);
}
);
userData = {
assembly = "NPUSHB[ ]	/* 78 values pushed */
25 1 7 3 4 1 0 7 2 76 38 37 36 35 34 33 6 4 74 8 1 7 3 0 3 7 0 128 0 0 6 3 0 6 126 0 4 0 1 2 4 1 105 0 2 0 3 7 2 3 105 0 6 6 5 97 0 5 5 19 5 78 0 0 0 45 0 45 57 55 34 33 18 38 18 9 7 29 
CALL[ ]	/* CallFunction */";
};
width = 1442;
}
);
note = uni17B2;
unicode = 6066;
},
{
glyphname = uni17B3;
layers = (
{
layerId = m01;
shapes = (
{
closed = 1;
nodes = (
(526,902,qs),
(538,896,o),
(538,884,qs),
(538,862,o),
(526,850,qs),
(515,839,o),
(492,839,q),
(492,908,l),
(515,908,o)
);
},
{
closed = 1;
nodes = (
(492,263,qs),
(492,423,l),
(812,591,ls),
(1131,758,o),
(1213,861,o),
(1213,931,qs),
(1213,1051,ls),
(1213,1303,o),
(791,1303,qs),
(651,1303,ls),
(229,1303,o),
(229,1051,qs),
(229,838,ls),
(229,791,o),
(270,768,qs),
(311,745,o),
(362,745,qs),
(492,745,ls),
(562,745,o),
(597,780,qs),
(632,815,o),
(632,884,qs),
(632,942,o),
(597,972,qs),
(562,1001,o),
(492,1001,q),
(492,1051,ls),
(492,1160,o),
(651,1160,qs),
(791,1160,ls),
(951,1160,o),
(951,1051,qs),
(951,931,ls),
(950,872,o),
(869,777,o),
(788,734,qs),
(229,442,l),
(229,263,ls),
(229,0,o),
(570,0,q),
(570,1,l),
(604,1,l),
(951,220,l),
(951,117,ls),
(951,93,o),
(922,82,qs),
(893,70,o),
(834,70,q),
(834,11,o),
(864,-18,qs),
(893,-47,o),
(1001,-47,qs),
(1132,-47,o),
(1172,-6,qs),
(1213,34,o),
(1213,115,qs),
(1213,535,l),
(951,535,l),
(951,387,l),
(570,144,l),
(570,143,l),
(492,143,o)
);
},
{
closed = 1;
nodes = (
(722,1721,qs),
(625,1744,o),
(556,1744,q),
(156,1508,l),
(156,1415,l),
(277,1345,ls),
(315,1322,o),
(370,1312,q),
(461,1418,l),
(342,1471,l),
(439,1529,l),
(548,1529,o),
(628,1510,qs),
(707,1491,o),
(785,1452,qs),
(866,1412,ls),
(958,1366,o),
(1092,1366,qs),
(1227,1366,o),
(1227,1539,q),
(1192,1539,o),
(1160,1544,q),
(1141,1582,o),
(1141,1626,qs),
(1141,1669,o),
(1159,1716,q),
(1189,1819,o),
(1280,1819,qs),
(1328,1819,o),
(1328,1866,qs),
(1328,1913,o),
(1219,1913,qs),
(1000,1912,o),
(946,1789,qs),
(911,1712,o),
(911,1652,qs),
(911,1650,l),
(910,1651,l),
(818,1698,o)
);
}
);
userData = {
assembly = "NPUSHB[ ]	/* 29 values pushed */
71 1 12 15 105 104 100 99 4 13 14 101 1 8 13 5 0 2 0 6 68 33 27 11 4 9 1 5 76 
MPPEM[ ]	/* MeasurePixelPerEm */
PUSHB[ ]	/* 1 value pushed */
17 
LT[ ]	/* LessThan */
IF[ ]	/* If */
NPUSHB[ ]	/* 87 values pushed */
0 15 11 12 11 15 12 128 0 14 12 13 12 14 13 128 0 6 5 0 0 6 114 0 3 9 4 9 3 4 128 0 10 0 11 15 10 11 105 0 12 0 13 8 12 13 105 0 0 0 7 1 0 7 106 0 5 5 8 97 0 8 8 17 77 16 1 9 9 4 97 0 4 4 19 77 0 1 1 2 97 0 2 2 19 2 78 
ELSE[ ]	/* Else */
MPPEM[ ]	/* MeasurePixelPerEm */
PUSHB[ ]	/* 1 value pushed */
22 
LT[ ]	/* LessThan */
IF[ ]	/* If */
NPUSHB[ ]	/* 88 values pushed */
0 15 11 12 11 15 12 128 0 14 12 13 12 14 13 128 0 6 5 0 5 6 0 128 0 3 9 4 9 3 4 128 0 10 0 11 15 10 11 105 0 12 0 13 8 12 13 105 0 0 0 7 1 0 7 106 0 5 5 8 97 0 8 8 17 77 16 1 9 9 4 97 0 4 4 19 77 0 1 1 2 97 0 2 2 19 2 78 
ELSE[ ]	/* Else */
NPUSHB[ ]	/* 85 values pushed */
0 15 11 12 11 15 12 128 0 14 12 13 12 14 13 128 0 6 5 0 5 6 0 128 0 3 9 4 9 3 4 128 0 10 0 11 15 10 11 105 0 12 0 13 8 12 13 105 0 0 0 7 1 0 7 106 0 1 0 2 1 2 101 0 5 5 8 97 0 8 8 17 77 16 1 9 9 4 97 0 4 4 19 4 78 
EIF[ ]	/* EndIf */
EIF[ ]	/* EndIf */
NPUSHB[ ]	/* 30 values pushed */
9 9 107 106 98 97 92 90 89 88 82 80 78 76 9 70 9 70 53 54 18 56 53 19 36 26 17 17 7 31 
CALL[ ]	/* CallFunction */";
};
width = 1442;
}
);
note = uni17B3;
unicode = 6067;
},
{
glyphname = uni17A3;
layers = (
{
layerId = m01;
shapes = (
{
closed = 1;
nodes = (
(197,248,qs),
(179,283,o),
(179,303,qs),
(179,326,o),
(190,337,qs),
(202,349,o),
(229,349,q),
(229,192,l),
(214,212,o)
);
},
{
closed = 1;
nodes = (
(928,248,qs),
(910,283,o),
(910,303,qs),
(910,326,o),
(921,337,qs),
(933,349,o),
(960,349,q),
(960,192,l),
(945,212,o)
);
},
{
closed = 1;
nodes = (
(887,442,o),
(852,408,qs),
(817,372,o),
(817,303,qs),
(817,268,o),
(837,222,qs),
(858,176,o),
(898,117,q),
(960,0,l),
(1223,0,l),
(1223,869,l),
(962,1009,l),
(1012,1075,l),
(1166,997,o),
(1212,997,qs),
(1278,997,o),
(1336,1187,q),
(1270,1187,o),
(1214,1216,qs),
(1044,1303,l),
(827,1025,l),
(827,945,l),
(960,862,l),
(960,677,l),
(492,677,l),
(492,869,l),
(231,1009,l),
(281,1075,l),
(435,997,o),
(481,997,qs),
(547,997,o),
(605,1187,q),
(539,1187,o),
(483,1216,qs),
(313,1303,l),
(96,1025,l),
(96,945,l),
(229,862,l),
(229,442,l),
(156,442,o),
(121,408,qs),
(86,372,o),
(86,303,qs),
(86,268,o),
(106,222,qs),
(127,176,o),
(167,117,q),
(229,0,l),
(492,0,l),
(492,534,l),
(960,534,l),
(960,442,l)
);
}
);
userData = {
assembly = "NPUSHB[ ]	/* 83 values pushed */
57 56 48 42 41 33 6 6 5 58 47 46 43 32 31 6 7 6 9 0 2 3 0 3 76 49 34 2 5 74 8 1 5 9 1 6 7 5 6 105 0 7 0 2 4 7 2 103 11 1 4 1 1 0 3 4 0 105 10 1 3 3 19 3 78 69 68 60 59 55 53 22 20 33 22 24 17 23 24 17 12 7 31 
CALL[ ]	/* CallFunction */";
};
width = 1442;
}
);
note = uni17A3;
unicode = 6051;
},
{
glyphname = uni17A4;
layers = (
{
layerId = m01;
shapes = (
{
closed = 1;
nodes = (
(197,248,qs),
(179,283,o),
(179,303,qs),
(179,326,o),
(190,337,qs),
(202,349,o),
(229,349,q),
(229,192,l),
(214,212,o)
);
},
{
closed = 1;
nodes = (
(918,248,qs),
(900,283,o),
(900,303,qs),
(900,326,o),
(911,337,qs),
(923,349,o),
(950,349,q),
(950,192,l),
(935,212,o)
);
},
{
closed = 1;
nodes = (
(877,442,o),
(842,408,qs),
(807,372,o),
(807,303,qs),
(807,268,o),
(827,222,qs),
(848,176,o),
(888,117,q),
(950,0,l),
(1213,0,l),
(1213,869,l),
(1036,972,l),
(1242,1082,l),
(1672,944,l),
(1672,0,l),
(1935,0,l),
(1935,1083,l),
(1294,1303,l),
(837,1025,l),
(837,935,l),
(950,862,l),
(950,677,l),
(492,677,l),
(492,869,l),
(231,1009,l),
(281,1075,l),
(435,997,o),
(481,997,qs),
(547,997,o),
(605,1187,q),
(539,1187,o),
(483,1216,qs),
(313,1303,l),
(96,1025,l),
(96,945,l),
(229,862,l),
(229,442,l),
(156,442,o),
(121,408,qs),
(86,372,o),
(86,303,qs),
(86,268,o),
(106,222,qs),
(127,176,o),
(167,117,q),
(229,0,l),
(492,0,l),
(492,534,l),
(950,534,l),
(950,442,l)
);
}
);
userData = {
assembly = "NPUSHB[ ]	/* 82 values pushed */
54 50 48 42 41 33 6 6 5 56 55 53 47 46 43 32 31 8 7 6 9 0 2 3 0 3 76 49 34 2 5 74 0 5 0 6 7 5 6 105 0 7 0 2 4 7 2 103 10 1 4 1 1 0 3 4 0 105 9 8 2 3 3 19 3 78 67 66 58 57 22 20 33 22 24 17 23 24 17 11 7 31 
CALL[ ]	/* CallFunction */";
};
width = 2164;
}
);
note = uni17A4;
unicode = 6052;
},
{
glyphname = uni17B6;
layers = (
{
layerId = m01;
shapes = (
{
closed = 1;
nodes = (
(-103,1113,l),
(230,968,l),
(230,0,l),
(493,0,l),
(493,1103,l),
(1,1303,l),
(-370,1136,l),
(-309,1025,l)
);
}
);
userData = {
assembly = "NPUSHB[ ]	/* 18 values pushed */
7 6 5 2 1 5 0 74 0 0 0 19 0 78 19 1 7 23 
CALL[ ]	/* CallFunction */";
};
width = 721;
}
);
note = uni17B6;
unicode = 6070;
},
{
glyphname = uni17BF;
layers = (
{
layerId = m01;
shapes = (
{
closed = 1;
nodes = (
(-50,1762,qs),
(27,1739,o),
(90,1692,q),
(-305,1692,l),
(-305,1739,o),
(-278,1762,qs),
(-251,1785,o),
(-198,1785,qs),
(-127,1785,o)
);
},
{
closed = 1;
nodes = (
(155,1818,l),
(110,1851,o),
(68,1874,q),
(68,2047,l),
(-69,2047,l),
(-69,1929,l),
(-137,1945,o),
(-218,1945,qs),
(-514,1945,o),
(-514,1692,qs),
(-514,1569,o),
(-355,1569,qs),
(113,1569,ls),
(171,1569,o),
(201,1522,qs),
(229,1476,o),
(229,1383,qs),
(229,-326,ls),
(229,-465,o),
(87,-465,qs),
(-86,-465,ls),
(-229,-465,o),
(-229,-326,qs),
(-229,-93,l),
(-492,-93,l),
(-492,-326,ls),
(-492,-609,o),
(-86,-609,qs),
(87,-609,ls),
(492,-609,o),
(492,-326,qs),
(492,1383,ls),
(492,1475,o),
(446,1545,qs),
(409,1600,o),
(311,1641,q),
(311,1991,l),
(155,1991,l)
);
}
);
userData = {
assembly = "NPUSHB[ ]	/* 12 values pushed */
45 43 40 3 0 6 10 1 5 1 2 76 
MPPEM[ ]	/* MeasurePixelPerEm */
PUSHB[ ]	/* 1 value pushed */
9 
LT[ ]	/* LessThan */
IF[ ]	/* If */
NPUSHB[ ]	/* 48 values pushed */
0 7 8 7 133 10 1 8 6 1 8 112 0 3 5 4 5 3 4 128 0 6 9 1 0 1 6 0 105 0 1 0 5 3 1 5 104 0 4 4 2 96 0 2 2 20 2 78 
ELSE[ ]	/* Else */
MPPEM[ ]	/* MeasurePixelPerEm */
PUSHB[ ]	/* 1 value pushed */
12 
LT[ ]	/* LessThan */
IF[ ]	/* If */
NPUSHB[ ]	/* 47 values pushed */
0 7 8 7 133 10 1 8 6 8 133 0 3 5 4 5 3 4 128 0 6 9 1 0 1 6 0 105 0 1 0 5 3 1 5 104 0 4 4 2 96 0 2 2 20 2 78 
ELSE[ ]	/* Else */
MPPEM[ ]	/* MeasurePixelPerEm */
PUSHB[ ]	/* 1 value pushed */
31 
LT[ ]	/* LessThan */
IF[ ]	/* If */
NPUSHB[ ]	/* 44 values pushed */
0 7 8 7 133 10 1 8 6 8 133 0 6 9 1 0 1 6 0 105 0 1 0 5 3 1 5 104 0 3 3 18 77 0 4 4 2 96 0 2 2 20 2 78 
ELSE[ ]	/* Else */
NPUSHB[ ]	/* 41 values pushed */
0 7 8 7 133 10 1 8 6 8 133 0 6 9 1 0 1 6 0 105 0 1 0 5 3 1 5 104 0 4 0 2 4 2 100 0 3 3 18 3 78 
EIF[ ]	/* EndIf */
EIF[ ]	/* EndIf */
EIF[ ]	/* EndIf */
NPUSHB[ ]	/* 29 values pushed */
9 9 1 0 9 46 9 46 42 41 39 37 35 32 27 24 22 21 19 16 5 4 0 8 1 8 11 7 22 
CALL[ ]	/* CallFunction */";
};
width = 721;
}
);
note = uni17BF;
unicode = 6079;
},
{
glyphname = uni17C0;
layers = (
{
layerId = m01;
shapes = (
{
closed = 1;
nodes = (
(87,-465,qs),
(-86,-465,ls),
(-229,-465,o),
(-229,-326,qs),
(-229,-93,l),
(-492,-93,l),
(-492,-326,ls),
(-492,-609,o),
(-86,-609,qs),
(87,-609,ls),
(492,-609,o),
(492,-326,qs),
(492,1374,ls),
(492,1644,o),
(133,1644,qs),
(-70,1644,ls),
(-136,1644,o),
(-136,1717,qs),
(-136,1830,ls),
(-136,2000,o),
(-327,2000,qs),
(-492,2000,o),
(-492,1877,q),
(-399,1877,o),
(-399,1830,qs),
(-399,1717,ls),
(-399,1500,o),
(-70,1500,qs),
(133,1500,ls),
(229,1500,o),
(229,1374,qs),
(229,-326,ls),
(229,-465,o)
);
}
);
userData = {
assembly = "MPPEM[ ]	/* MeasurePixelPerEm */
PUSHB[ ]	/* 1 value pushed */
12 
LT[ ]	/* LessThan */
IF[ ]	/* If */
NPUSHB[ ]	/* 35 values pushed */
0 5 0 6 0 5 6 128 0 2 0 1 3 2 1 105 0 3 0 0 5 3 0 103 0 6 6 4 96 0 4 4 20 4 78 
ELSE[ ]	/* Else */
MPPEM[ ]	/* MeasurePixelPerEm */
PUSHB[ ]	/* 1 value pushed */
31 
LT[ ]	/* LessThan */
IF[ ]	/* If */
NPUSHB[ ]	/* 32 values pushed */
0 2 0 1 3 2 1 105 0 3 0 0 5 3 0 103 0 5 5 18 77 0 6 6 4 96 0 4 4 20 4 78 
ELSE[ ]	/* Else */
NPUSHB[ ]	/* 29 values pushed */
0 2 0 1 3 2 1 105 0 3 0 0 5 3 0 103 0 6 0 4 6 4 100 0 5 5 18 5 78 
EIF[ ]	/* EndIf */
EIF[ ]	/* EndIf */
NPUSHB[ ]	/* 10 values pushed */
50 18 51 51 33 19 50 7 7 29 
CALL[ ]	/* CallFunction */";
};
width = 721;
}
);
note = uni17C0;
unicode = 6080;
},
{
glyphname = uni17C1;
layers = (
{
layerId = m01;
shapes = (
{
closed = 1;
nodes = (
(608,981,qs),
(655,981,o),
(689,1194,q),
(649,1194,ls),
(609,1194,o),
(566,1221,qs),
(438,1303,l),
(229,1303,l),
(229,0,l),
(492,0,l),
(562,80,ls),
(608,134,o),
(632,190,qs),
(656,246,o),
(656,303,qs),
(656,372,o),
(615,407,qs),
(574,442,o),
(493,442,q),
(493,1026,l),
(511,1014,ls),
(563,981,o)
);
},
{
closed = 1;
nodes = (
(545,337,qs),
(562,326,o),
(562,303,qs),
(562,263,o),
(545,223,qs),
(527,183,o),
(493,144,q),
(493,348,l),
(527,348,o)
);
}
);
userData = {
assembly = "NPUSHB[ ]	/* 52 values pushed */
1 1 4 3 23 1 1 5 2 76 0 3 0 4 0 3 4 105 0 0 6 1 5 1 0 5 105 0 2 2 17 77 0 1 1 19 1 78 22 22 22 30 22 30 33 34 17 24 18 7 7 27 
CALL[ ]	/* CallFunction */";
};
width = 721;
}
);
note = uni17C1;
unicode = 6081;
},
{
glyphname = uni17C2;
layers = (
{
layerId = m01;
shapes = (
{
closed = 1;
nodes = (
(201,1709,qs),
(49,1709,o),
(49,1563,qs),
(49,1396,o),
(335,1396,qs),
(684,1396,o),
(684,1679,qs),
(684,1942,o),
(436,1942,qs),
(304,1942,o),
(304,1819,q),
(440,1819,o),
(440,1679,qs),
(440,1539,o),
(335,1539,qs),
(253,1539,o),
(253,1563,qs),
(253,1586,o),
(304,1586,q),
(304,1709,o)
);
},
{
closed = 1;
nodes = (
(608,981,qs),
(655,981,o),
(689,1194,q),
(649,1194,ls),
(609,1194,o),
(566,1221,qs),
(438,1303,l),
(229,1303,l),
(229,0,l),
(492,0,l),
(562,80,ls),
(608,134,o),
(632,190,qs),
(656,246,o),
(656,303,qs),
(656,372,o),
(615,407,qs),
(574,442,o),
(493,442,q),
(493,1026,l),
(511,1014,ls),
(563,981,o)
);
},
{
closed = 1;
nodes = (
(545,337,qs),
(562,326,o),
(562,303,qs),
(562,263,o),
(545,223,qs),
(527,183,o),
(493,144,q),
(493,348,l),
(527,348,o)
);
}
);
userData = {
assembly = "NPUSHB[ ]	/* 84 values pushed */
21 1 10 9 43 1 7 11 2 76 0 3 0 2 5 3 2 105 0 5 0 0 1 5 0 105 0 1 0 4 8 1 4 105 0 9 0 10 6 9 10 105 0 6 12 1 11 7 6 11 105 0 8 8 17 77 0 7 7 19 7 78 42 42 42 50 42 50 41 39 38 36 17 24 19 34 34 33 18 34 16 13 7 31 
CALL[ ]	/* CallFunction */";
};
width = 721;
}
);
note = uni17C2;
unicode = 6082;
},
{
glyphname = uni17C3;
layers = (
{
layerId = m01;
shapes = (
{
closed = 1;
nodes = (
(117,1539,qs),
(117,1396,o),
(372,1396,qs),
(679,1396,o),
(679,1633,qs),
(679,1869,o),
(422,1869,qs),
(380,1869,l),
(380,2036,o),
(186,2036,qs),
(63,2036,o),
(63,1943,q),
(137,1943,o),
(137,1869,qs),
(137,1726,o),
(330,1726,qs),
(372,1726,ls),
(435,1726,o),
(435,1633,qs),
(435,1539,o),
(372,1539,qs),
(330,1539,o),
(330,1633,q),
(117,1633,o)
);
},
{
closed = 1;
nodes = (
(608,981,qs),
(655,981,o),
(689,1194,q),
(649,1194,ls),
(609,1194,o),
(566,1221,qs),
(438,1303,l),
(229,1303,l),
(229,0,l),
(492,0,l),
(562,80,ls),
(608,134,o),
(632,190,qs),
(656,246,o),
(656,303,qs),
(656,372,o),
(615,407,qs),
(574,442,o),
(493,442,q),
(493,1026,l),
(511,1014,ls),
(563,981,o)
);
},
{
closed = 1;
nodes = (
(545,337,qs),
(562,326,o),
(562,303,qs),
(562,263,o),
(545,223,qs),
(527,183,o),
(493,144,q),
(493,348,l),
(527,348,o)
);
}
);
userData = {
assembly = "NPUSHB[ ]	/* 10 values pushed */
25 1 11 10 47 1 8 12 2 76 
MPPEM[ ]	/* MeasurePixelPerEm */
PUSHB[ ]	/* 1 value pushed */
28 
LT[ ]	/* LessThan */
IF[ ]	/* If */
NPUSHB[ ]	/* 60 values pushed */
13 1 6 1 0 0 6 114 0 3 0 2 4 3 2 105 0 4 0 1 6 4 1 105 0 0 0 5 9 0 5 106 0 10 0 11 7 10 11 105 0 7 14 1 12 8 7 12 105 0 9 9 17 77 0 8 8 19 8 78 
ELSE[ ]	/* Else */
NPUSHB[ ]	/* 61 values pushed */
13 1 6 1 0 1 6 0 128 0 3 0 2 4 3 2 105 0 4 0 1 6 4 1 105 0 0 0 5 9 0 5 106 0 10 0 11 7 10 11 105 0 7 14 1 12 8 7 12 105 0 9 9 17 77 0 8 8 19 8 78 
EIF[ ]	/* EndIf */
NPUSHB[ ]	/* 31 values pushed */
46 46 0 0 46 54 46 54 45 43 42 40 38 37 36 35 27 26 0 23 0 23 34 33 33 18 50 33 15 7 28 
CALL[ ]	/* CallFunction */";
};
width = 721;
}
);
note = uni17C3;
unicode = 6083;
},
{
glyphname = uni17C4;
layers = (
{
layerId = m01;
shapes = (
{
closed = 1;
nodes = (
(-103,1113,l),
(230,968,l),
(230,0,l),
(493,0,l),
(493,1103,l),
(1,1303,l),
(-370,1136,l),
(-309,1025,l)
);
}
);
userData = {
assembly = "NPUSHB[ ]	/* 18 values pushed */
7 6 5 2 1 5 0 74 0 0 0 19 0 78 19 1 7 23 
CALL[ ]	/* CallFunction */";
};
width = 721;
}
);
note = uni17C4;
unicode = 6084;
},
{
glyphname = uni17C5;
layers = (
{
layerId = m01;
shapes = (
{
closed = 1;
nodes = (
(-309,1025,l),
(-103,1113,l),
(230,968,l),
(230,0,l),
(493,0,l),
(493,1024,l),
(539,1117,o),
(539,1164,qs),
(539,1536,ls),
(539,1752,o),
(362,1752,qs),
(184,1752,o),
(184,1629,q),
(231,1629,o),
(254,1606,qs),
(277,1583,o),
(277,1536,qs),
(277,1191,l),
(1,1303,l),
(-370,1136,l)
);
}
);
userData = {
assembly = "NPUSHB[ ]	/* 31 values pushed */
19 18 17 16 13 1 6 2 0 1 76 0 1 0 0 2 1 0 105 0 2 2 19 2 78 21 33 21 3 7 25 
CALL[ ]	/* CallFunction */";
};
width = 721;
}
);
note = uni17C5;
unicode = 6085;
},
{
glyphname = uni17C7;
layers = (
{
layerId = m01;
shapes = (
{
closed = 1;
nodes = (
(433,1150,qs),
(451,1169,o),
(488,1169,qs),
(526,1169,o),
(544,1150,qs),
(564,1131,o),
(564,1094,qs),
(564,1056,o),
(544,1038,qs),
(526,1019,o),
(488,1019,qs),
(451,1019,o),
(433,1038,qs),
(414,1056,o),
(414,1094,qs),
(414,1131,o)
);
},
{
closed = 1;
nodes = (
(684,1251,qs),
(619,1303,o),
(488,1303,qs),
(358,1303,o),
(293,1251,qs),
(229,1199,o),
(229,1094,qs),
(229,989,o),
(293,936,qs),
(358,884,o),
(488,884,qs),
(619,884,o),
(684,936,qs),
(748,989,o),
(748,1094,qs),
(748,1199,o)
);
},
{
closed = 1;
nodes = (
(433,269,qs),
(451,289,o),
(488,289,qs),
(526,289,o),
(544,269,qs),
(564,249,o),
(564,209,qs),
(564,170,o),
(544,150,qs),
(526,130,o),
(488,130,qs),
(451,130,o),
(433,150,qs),
(414,170,o),
(414,209,qs),
(414,249,o)
);
},
{
closed = 1;
nodes = (
(684,367,qs),
(619,419,o),
(488,419,qs),
(358,419,o),
(293,367,qs),
(229,315,o),
(229,209,qs),
(229,104,o),
(293,52,qs),
(358,0,o),
(488,0,qs),
(619,0,o),
(684,52,qs),
(748,104,o),
(748,209,qs),
(748,315,o)
);
}
);
userData = {
assembly = "NPUSHB[ ]	/* 48 values pushed */
0 0 0 2 7 0 2 105 0 7 0 5 4 7 5 105 0 1 1 3 97 0 3 3 17 77 0 4 4 6 97 0 6 6 19 6 78 38 38 38 38 38 38 38 35 8 7 30 
CALL[ ]	/* CallFunction */";
};
width = 977;
}
);
note = uni17C7;
unicode = 6087;
},
{
glyphname = uni17C8;
layers = (
{
layerId = m01;
shapes = (
{
closed = 1;
nodes = (
(556,41,qs),
(625,83,o),
(655,164,q),
(594,126,o),
(564,126,qs),
(533,126,o),
(533,164,qs),
(533,249,o),
(496,290,qs),
(458,333,o),
(381,333,qs),
(305,333,o),
(267,292,qs),
(229,250,o),
(229,166,qs),
(229,83,o),
(267,41,qs),
(305,0,o),
(381,0,qs),
(486,0,o)
);
},
{
closed = 1;
nodes = (
(556,870,qs),
(625,912,o),
(655,993,q),
(594,955,o),
(564,955,qs),
(533,955,o),
(533,993,qs),
(533,1078,o),
(496,1119,qs),
(458,1162,o),
(381,1162,qs),
(305,1162,o),
(267,1121,qs),
(229,1079,o),
(229,995,qs),
(229,912,o),
(267,870,qs),
(305,829,o),
(381,829,qs),
(486,829,o)
);
}
);
userData = {
assembly = "NPUSHB[ ]	/* 70 values pushed */
36 1 5 4 16 1 2 1 2 76 0 5 4 3 4 5 3 128 0 2 1 0 1 2 0 128 0 4 7 1 3 1 4 3 105 0 1 1 0 97 6 1 0 0 19 0 78 21 20 1 0 35 33 29 27 20 39 21 39 15 13 9 7 0 19 1 19 8 7 22 
CALL[ ]	/* CallFunction */";
};
width = 791;
}
);
note = uni17C8;
unicode = 6088;
},
{
glyphname = uni17DC;
layers = (
{
layerId = m01;
shapes = (
{
closed = 1;
nodes = (
(1150,182,o),
(1150,359,qs),
(1150,513,o),
(914,658,o),
(675,658,qs),
(576,658,o),
(455,684,o),
(388,764,o),
(388,842,qs),
(388,941,o),
(534,1055,o),
(675,1055,qs),
(817,1055,o),
(963,979,o),
(963,910,qs),
(963,851,o),
(922,851,qs),
(862,851,o),
(862,793,qs),
(862,734,o),
(922,734,qs),
(1001,734,o),
(1099,763,o),
(1150,840,o),
(1150,910,qs),
(1150,1057,o),
(911,1210,o),
(675,1210,qs),
(440,1210,o),
(200,1019,o),
(200,842,qs),
(200,688,o),
(436,543,o),
(675,543,qs),
(775,543,o),
(895,518,o),
(963,438,o),
(963,360,qs),
(963,260,o),
(817,146,o),
(675,146,qs),
(533,146,o),
(388,222,o),
(388,292,qs),
(388,350,o),
(429,350,qs),
(458,350,o),
(489,380,o),
(489,408,qs),
(489,468,o),
(429,468,qs),
(350,468,o),
(251,439,o),
(200,363,o),
(200,293,qs),
(200,145,o),
(438,-10,o),
(675,-10,qs),
(910,-10,o)
);
}
);
userData = {
assembly = "NPUSHB[ ]	/* 71 values pushed */
0 5 0 8 7 5 8 105 0 7 0 6 9 7 6 105 0 9 0 4 1 9 4 105 0 1 0 2 3 1 2 105 0 3 3 0 97 10 1 0 0 19 0 78 1 0 54 52 47 45 42 40 38 36 31 29 25 23 18 16 13 11 8 6 0 58 1 58 11 7 22 
CALL[ ]	/* CallFunction */";
};
width = 1350;
}
);
note = uni17DC;
unicode = 6108;
},
{
glyphname = uni1789.a;
layers = (
{
layerId = m01;
shapes = (
{
closed = 1;
nodes = (
(561,337,qs),
(578,326,o),
(578,303,qs),
(578,275,o),
(564,247,qs),
(550,220,o),
(492,151,q),
(492,349,l),
(519,349,ls),
(543,349,o)
);
},
{
closed = 1;
nodes = (
(515,1303,l),
(229,1056,l),
(229,0,l),
(492,0,l),
(614,119,o),
(681,235,o),
(681,303,qs),
(681,372,o),
(640,408,qs),
(600,442,o),
(519,442,qs),
(492,442,l),
(492,1056,l),
(533,1103,l),
(722,957,l),
(911,1103,l),
(950,1055,l),
(950,0,l),
(1213,0,l),
(1213,1014,l),
(1373,1095,l),
(1672,941,l),
(1672,0,l),
(1935,0,l),
(1935,1054,l),
(1443,1303,l),
(1129,1126,l),
(928,1303,l),
(722,1140,l)
);
}
);
userData = {
assembly = "NPUSHB[ ]	/* 57 values pushed */
2 1 1 0 1 76 38 37 36 25 24 23 22 21 18 17 16 13 12 11 14 3 74 0 3 5 1 0 1 3 0 105 4 2 2 1 1 19 1 78 1 0 35 34 28 26 20 19 15 14 0 9 1 9 6 7 22 
CALL[ ]	/* CallFunction */";
};
width = 2164;
}
);
note = uni1789.a;
},
{
glyphname = uni17BF.b;
layers = (
{
layerId = m01;
shapes = (
{
closed = 1;
nodes = (
(-50,1762,qs),
(27,1739,o),
(90,1692,q),
(-305,1692,l),
(-305,1739,o),
(-278,1762,qs),
(-251,1785,o),
(-198,1785,qs),
(-127,1785,o)
);
},
{
closed = 1;
nodes = (
(155,1818,l),
(110,1851,o),
(68,1874,q),
(68,2047,l),
(-69,2047,l),
(-69,1929,l),
(-137,1945,o),
(-218,1945,qs),
(-514,1945,o),
(-514,1692,qs),
(-514,1569,o),
(-355,1569,qs),
(113,1569,ls),
(171,1569,o),
(201,1522,qs),
(229,1476,o),
(229,1383,qs),
(229,-837,ls),
(229,-976,o),
(87,-976,qs),
(-86,-976,ls),
(-229,-976,o),
(-229,-837,qs),
(-229,-744,l),
(-492,-744,l),
(-492,-837,ls),
(-492,-1120,o),
(-86,-1120,qs),
(87,-1120,ls),
(492,-1120,o),
(492,-837,qs),
(492,1383,ls),
(492,1475,o),
(446,1545,qs),
(409,1600,o),
(311,1641,q),
(311,1991,l),
(155,1991,l)
);
}
);
width = 721;
}
);
note = uni17BF.b;
},
{
glyphname = uni17C0.b;
layers = (
{
layerId = m01;
shapes = (
{
closed = 1;
nodes = (
(87,-976,qs),
(-86,-976,ls),
(-229,-976,o),
(-229,-837,qs),
(-229,-744,l),
(-492,-744,l),
(-492,-837,ls),
(-492,-1120,o),
(-86,-1120,qs),
(87,-1120,ls),
(492,-1120,o),
(492,-837,qs),
(492,1374,ls),
(492,1644,o),
(133,1644,qs),
(-70,1644,ls),
(-136,1644,o),
(-136,1717,qs),
(-136,1830,ls),
(-136,2000,o),
(-327,2000,qs),
(-492,2000,o),
(-492,1877,q),
(-399,1877,o),
(-399,1830,qs),
(-399,1717,ls),
(-399,1500,o),
(-70,1500,qs),
(133,1500,ls),
(229,1500,o),
(229,1374,qs),
(229,-837,ls),
(229,-976,o)
);
}
);
width = 721;
}
);
note = uni17C0.b;
},
{
glyphname = uni1780_17B6;
layers = (
{
layerId = m01;
shapes = (
{
closed = 1;
nodes = (
(1340,1303,l),
(1089,1143,l),
(660,1303,l),
(568,1303,l),
(156,1102,l),
(156,1011,l),
(229,971,ls),
(299,932,o),
(361,932,qs),
(363,932,ls),
(395,932,o),
(443,1025,q),
(369,1083,l),
(503,1139,l),
(1006,952,l),
(1038,951,l),
(1267,1103,l),
(1672,976,l),
(1672,0,l),
(1935,0,l),
(1936,1103,l)
);
},
{
closed = 1;
nodes = (
(1214,697,o),
(1209,723,qs),
(1167,931,o),
(791,931,qs),
(651,931,ls),
(230,931,o),
(230,669,qs),
(230,668,l),
(229,0,l),
(492,0,l),
(493,668,ls),
(493,788,o),
(652,788,qs),
(792,788,ls),
(931,788,o),
(949,697,qs),
(952,684,o),
(952,668,qs),
(951,0,l),
(1213,0,l),
(1214,668,ls)
);
}
);
width = 1442;
}
);
note = uni1780_17B6;
},
{
glyphname = uni1780_17C5;
layers = (
{
layerId = m01;
shapes = (
{
closed = 1;
nodes = (
(1214,697,o),
(1209,723,qs),
(1167,931,o),
(791,931,qs),
(651,931,ls),
(230,931,o),
(230,669,qs),
(230,668,l),
(229,0,l),
(492,0,l),
(493,668,ls),
(493,788,o),
(652,788,qs),
(792,788,ls),
(931,788,o),
(949,697,qs),
(952,684,o),
(952,668,qs),
(951,0,l),
(1213,0,l),
(1214,668,ls)
);
},
{
closed = 1;
nodes = (
(1986,1164,qs),
(1985,1536,ls),
(1985,1578,o),
(1978,1612,qs),
(1950,1752,o),
(1808,1752,qs),
(1631,1752,o),
(1631,1630,qs),
(1631,1629,l),
(1678,1629,o),
(1700,1606,qs),
(1715,1591,o),
(1720,1566,qs),
(1723,1552,o),
(1723,1536,qs),
(1724,1174,l),
(1340,1303,l),
(1089,1143,l),
(660,1303,l),
(568,1303,l),
(156,1102,l),
(156,1011,l),
(229,971,ls),
(299,932,o),
(361,932,qs),
(363,932,ls),
(395,932,o),
(443,1025,q),
(369,1083,l),
(503,1139,l),
(1006,952,l),
(1038,951,l),
(1267,1103,l),
(1672,976,l),
(1672,0,l),
(1935,0,l),
(1935,1037,l),
(1986,1128,o)
);
}
);
width = 1442;
}
);
note = uni1780_17C5;
},
{
glyphname = uni1781_17B6;
layers = (
{
layerId = m01;
shapes = (
{
closed = 1;
nodes = (
(526,902,qs),
(536,897,o),
(538,888,qs),
(539,884,l),
(538,862,o),
(526,850,qs),
(516,839,o),
(493,839,q),
(493,908,l),
(516,908,o)
);
},
{
closed = 1;
nodes = (
(1673,968,l),
(1672,0,l),
(1935,0,l),
(1936,1103,l),
(1444,1303,l),
(1173,1182,l),
(1084,1303,o),
(792,1303,qs),
(652,1303,ls),
(230,1303,o),
(229,1051,qs),
(230,838,ls),
(230,828,o),
(232,819,qs),
(238,786,o),
(271,768,qs),
(311,745,o),
(362,745,qs),
(492,745,ls),
(562,745,o),
(597,780,qs),
(632,815,o),
(633,884,qs),
(632,900,o),
(630,914,qs),
(622,950,o),
(597,972,qs),
(562,1001,o),
(492,1001,q),
(492,1051,ls),
(492,1160,o),
(651,1160,qs),
(791,1160,ls),
(932,1160,o),
(949,1076,qs),
(951,1067,o),
(951,1057,qs),
(951,931,ls),
(950,872,o),
(869,777,o),
(789,734,qs),
(229,442,l),
(230,263,ls),
(230,234,o),
(235,207,qs),
(276,0,o),
(651,0,qs),
(791,0,ls),
(1213,0,o),
(1214,263,qs),
(1213,565,l),
(952,478,l),
(952,263,ls),
(952,143,o),
(792,143,qs),
(652,143,ls),
(514,143,o),
(496,234,qs),
(493,247,o),
(493,263,qs),
(493,423,l),
(812,591,ls),
(1132,758,o),
(1213,861,o),
(1213,931,qs),
(1213,1059,l),
(1340,1113,l)
);
}
);
width = 1442;
}
);
note = uni1781_17B6;
},
{
glyphname = uni1781_17C5;
layers = (
{
layerId = m01;
shapes = (
{
closed = 1;
nodes = (
(526,902,qs),
(536,897,o),
(538,888,qs),
(539,884,l),
(538,862,o),
(526,850,qs),
(516,839,o),
(493,839,q),
(493,908,l),
(516,908,o)
);
},
{
closed = 1;
nodes = (
(1673,968,l),
(1672,0,l),
(1935,0,l),
(1935,1037,l),
(1986,1128,o),
(1986,1164,qs),
(1985,1536,ls),
(1985,1578,o),
(1978,1612,qs),
(1950,1752,o),
(1808,1752,qs),
(1631,1752,o),
(1631,1630,qs),
(1631,1629,l),
(1678,1629,o),
(1700,1606,qs),
(1715,1591,o),
(1720,1566,qs),
(1723,1552,o),
(1723,1536,qs),
(1724,1189,l),
(1444,1303,l),
(1173,1182,l),
(1085,1303,o),
(792,1303,qs),
(652,1303,ls),
(230,1303,o),
(229,1051,qs),
(230,838,ls),
(230,828,o),
(232,819,qs),
(238,786,o),
(271,768,qs),
(311,745,o),
(362,745,qs),
(492,745,ls),
(562,745,o),
(597,780,qs),
(632,815,o),
(633,884,qs),
(632,900,o),
(630,914,qs),
(622,950,o),
(597,972,qs),
(562,1001,o),
(492,1001,q),
(492,1051,ls),
(492,1160,o),
(651,1160,qs),
(791,1160,ls),
(932,1160,o),
(949,1076,qs),
(951,1067,o),
(951,1057,qs),
(951,931,ls),
(950,872,o),
(869,777,o),
(789,734,qs),
(229,442,l),
(230,263,ls),
(230,234,o),
(235,207,qs),
(276,0,o),
(651,0,qs),
(791,0,ls),
(1213,0,o),
(1214,263,qs),
(1213,565,l),
(952,478,l),
(952,263,ls),
(952,143,o),
(792,143,qs),
(652,143,ls),
(514,143,o),
(496,234,qs),
(493,247,o),
(493,263,qs),
(493,423,l),
(812,591,ls),
(1132,758,o),
(1213,861,o),
(1213,931,qs),
(1214,1059,l),
(1340,1113,l)
);
}
);
width = 1442;
}
);
note = uni1781_17C5;
},
{
glyphname = uni1782_17B6;
layers = (
{
layerId = m01;
shapes = (
{
closed = 1;
nodes = (
(1340,1303,l),
(1089,1143,l),
(660,1303,l),
(568,1303,l),
(156,1102,l),
(156,1011,l),
(229,971,ls),
(299,932,o),
(361,932,qs),
(363,932,ls),
(395,932,o),
(443,1025,q),
(369,1083,l),
(503,1139,l),
(1006,952,l),
(1038,951,l),
(1267,1103,l),
(1672,976,l),
(1672,0,l),
(1935,0,l),
(1936,1103,l)
);
},
{
closed = 1;
nodes = (
(652,788,qs),
(792,788,ls),
(931,788,o),
(949,697,qs),
(952,684,o),
(952,668,qs),
(951,0,l),
(1213,0,l),
(1214,668,ls),
(1214,697,o),
(1209,723,qs),
(1167,931,o),
(791,931,qs),
(651,931,ls),
(230,931,o),
(230,669,qs),
(230,668,l),
(229,0,l),
(492,0,l),
(492,97,l),
(547,172,ls),
(582,220,o),
(616,242,qs),
(650,262,o),
(714,262,qs),
(778,262,o),
(801,306,qs),
(812,324,o),
(812,369,qs),
(812,384,o),
(809,396,qs),
(805,419,o),
(790,432,qs),
(755,465,o),
(698,466,qs),
(651,466,o),
(606,443,qs),
(569,426,o),
(493,303,q),
(493,668,ls),
(493,788,o)
);
}
);
width = 1442;
}
);
note = uni1782_17B6;
},
{
glyphname = uni1782_17C5;
layers = (
{
layerId = m01;
shapes = (
{
closed = 1;
nodes = (
(652,788,qs),
(792,788,ls),
(931,788,o),
(949,697,qs),
(952,684,o),
(952,668,qs),
(951,0,l),
(1213,0,l),
(1214,668,ls),
(1214,697,o),
(1209,723,qs),
(1167,931,o),
(791,931,qs),
(651,931,ls),
(230,931,o),
(230,669,qs),
(230,668,l),
(229,0,l),
(492,0,l),
(492,97,l),
(547,172,ls),
(582,220,o),
(616,242,qs),
(650,262,o),
(714,262,qs),
(778,262,o),
(801,306,qs),
(812,324,o),
(812,369,qs),
(812,384,o),
(809,396,qs),
(805,419,o),
(790,432,qs),
(755,465,o),
(698,466,qs),
(651,466,o),
(606,443,qs),
(569,426,o),
(493,303,q),
(493,668,ls),
(493,788,o)
);
},
{
closed = 1;
nodes = (
(1986,1164,qs),
(1985,1536,ls),
(1985,1578,o),
(1978,1612,qs),
(1950,1752,o),
(1808,1752,qs),
(1631,1752,o),
(1631,1630,qs),
(1631,1629,l),
(1678,1629,o),
(1700,1606,qs),
(1715,1591,o),
(1720,1566,qs),
(1723,1552,o),
(1723,1536,qs),
(1724,1174,l),
(1340,1303,l),
(1089,1143,l),
(660,1303,l),
(568,1303,l),
(156,1102,l),
(156,1011,l),
(229,971,ls),
(299,932,o),
(361,932,qs),
(363,932,ls),
(395,932,o),
(443,1025,q),
(369,1083,l),
(503,1139,l),
(1006,952,l),
(1038,951,l),
(1267,1103,l),
(1672,976,l),
(1672,0,l),
(1935,0,l),
(1935,1037,l),
(1986,1128,o)
);
}
);
width = 1442;
}
);
note = uni1782_17C5;
},
{
glyphname = uni1783_17B6;
layers = (
{
layerId = m01;
shapes = (
{
closed = 1;
nodes = (
(180,969,qs),
(162,979,o),
(158,999,qs),
(157,1004,o),
(157,1009,qs),
(157,1016,ls),
(157,1037,o),
(179,1072,qs),
(203,1110,o),
(230,1133,q),
(230,954,l),
(204,954,o)
);
},
{
closed = 1;
nodes = (
(1757,972,l),
(1963,1082,l),
(2394,944,l),
(2393,0,l),
(2656,0,l),
(2657,1083,l),
(2016,1303,l),
(1558,1025,l),
(1558,935,l),
(1671,862,l),
(1672,263,ls),
(1672,143,o),
(1490,143,qs),
(1397,143,ls),
(1235,143,o),
(1216,237,qs),
(1214,249,o),
(1214,263,qs),
(1214,869,l),
(974,1009,l),
(1023,1085,l),
(1157,997,o),
(1202,997,qs),
(1299,997,o),
(1336,1187,q),
(1261,1187,o),
(1207,1216,qs),
(1045,1303,l),
(837,1025,l),
(837,935,l),
(950,862,l),
(951,263,ls),
(951,143,o),
(769,143,qs),
(676,143,ls),
(514,143,o),
(495,237,qs),
(493,249,o),
(493,263,qs),
(493,1303,l),
(230,1303,l),
(110,1145,o),
(87,1098,qs),
(64,1054,o),
(64,1016,qs),
(64,1004,ls),
(64,986,o),
(67,970,qs),
(77,923,o),
(110,897,qs),
(156,861,o),
(229,861,q),
(230,263,l),
(230,254,ls),
(230,231,o),
(234,210,qs),
(276,0,o),
(675,0,qs),
(768,0,ls),
(971,0,o),
(1082,55,q),
(1192,0,o),
(1396,0,qs),
(1489,0,ls),
(1934,0,o),
(1935,263,qs),
(1935,869,l)
);
}
);
width = 2164;
}
);
note = uni1783_17B6;
},
{
glyphname = uni1783_17C5;
layers = (
{
layerId = m01;
shapes = (
{
closed = 1;
nodes = (
(180,969,qs),
(162,979,o),
(158,999,qs),
(157,1004,o),
(157,1009,qs),
(157,1016,ls),
(157,1037,o),
(179,1072,qs),
(203,1110,o),
(230,1133,q),
(230,954,l),
(204,954,o)
);
},
{
closed = 1;
nodes = (
(2707,1164,qs),
(2706,1536,ls),
(2706,1578,o),
(2699,1612,qs),
(2671,1752,o),
(2529,1752,qs),
(2352,1752,o),
(2352,1630,qs),
(2352,1629,l),
(2399,1629,o),
(2421,1606,qs),
(2436,1591,o),
(2441,1566,qs),
(2444,1552,o),
(2444,1536,qs),
(2444,1156,l),
(2016,1303,l),
(1558,1025,l),
(1558,935,l),
(1671,862,l),
(1672,263,ls),
(1672,143,o),
(1490,143,qs),
(1397,143,ls),
(1235,143,o),
(1216,237,qs),
(1214,249,o),
(1214,263,qs),
(1214,869,l),
(974,1009,l),
(1023,1085,l),
(1157,997,o),
(1202,997,qs),
(1299,997,o),
(1336,1187,q),
(1261,1187,o),
(1207,1216,qs),
(1045,1303,l),
(837,1025,l),
(837,935,l),
(950,862,l),
(951,263,ls),
(951,143,o),
(769,143,qs),
(676,143,ls),
(514,143,o),
(495,237,qs),
(493,249,o),
(493,263,qs),
(493,1303,l),
(230,1303,l),
(110,1145,o),
(87,1098,qs),
(64,1054,o),
(64,1016,qs),
(64,1004,ls),
(64,986,o),
(67,970,qs),
(77,923,o),
(110,897,qs),
(156,861,o),
(229,861,q),
(230,263,l),
(230,254,ls),
(230,231,o),
(234,210,qs),
(276,0,o),
(675,0,qs),
(768,0,ls),
(971,0,o),
(1082,55,q),
(1192,0,o),
(1396,0,qs),
(1489,0,ls),
(1934,0,o),
(1935,263,qs),
(1935,869,l),
(1757,972,l),
(1963,1082,l),
(2394,944,l),
(2393,0,l),
(2656,0,l),
(2656,1037,l),
(2707,1128,o)
);
}
);
width = 2164;
}
);
note = uni1783_17C5;
},
{
glyphname = uni1784_17B6;
layers = (
{
layerId = m01;
shapes = (
{
closed = 1;
nodes = (
(825,1184,qs),
(839,1197,o),
(869,1198,qs),
(897,1197,o),
(912,1184,q),
(920,1175,o),
(923,1162,qs),
(924,1155,o),
(924,1147,qs),
(924,1121,o),
(912,1108,qs),
(898,1094,o),
(869,1094,qs),
(840,1094,o),
(825,1108,qs),
(815,1117,o),
(812,1132,qs),
(811,1138,o),
(810,1145,q),
(810,1170,o)
);
},
{
closed = 1;
nodes = (
(198,564,qs),
(182,569,o),
(179,580,q),
(179,582,ls),
(179,601,o),
(197,631,qs),
(214,661,o),
(230,669,q),
(230,559,l),
(215,559,o)
);
},
{
closed = 1;
nodes = (
(1070,1143,qs),
(1070,1168,o),
(1066,1189,qs),
(1056,1236,o),
(1027,1263,qs),
(984,1303,o),
(849,1303,qs),
(763,1303,o),
(720,1263,qs),
(676,1223,o),
(675,1146,qs),
(675,1133,o),
(677,1123,qs),
(680,1105,o),
(691,1094,q),
(559,1094,ls),
(505,1094,o),
(495,1142,qs),
(493,1152,o),
(493,1164,qs),
(493,1304,ls),
(493,1334,o),
(488,1359,qs),
(462,1489,o),
(303,1489,qs),
(195,1489,o),
(165,1461,qs),
(137,1433,o),
(137,1377,qs),
(137,1373,l),
(183,1373,o),
(206,1355,qs),
(224,1342,o),
(228,1320,qs),
(230,1313,o),
(230,1304,qs),
(230,1164,ls),
(230,1139,o),
(234,1118,qs),
(267,951,o),
(558,951,qs),
(807,951,l),
(950,861,l),
(950,181,l),
(721,360,l),
(492,181,l),
(493,838,l),
(230,838,l),
(132,707,o),
(109,664,qs),
(86,620,o),
(86,581,qs),
(86,567,o),
(88,555,qs),
(96,516,o),
(128,494,qs),
(167,465,o),
(229,465,q),
(229,0,l),
(492,0,l),
(721,180,l),
(950,0,l),
(1213,0,l),
(1213,946,l),
(1015,1039,l),
(1070,1093,o)
);
},
{
closed = 1;
nodes = (
(1340,1113,l),
(1673,968,l),
(1672,0,l),
(1935,0,l),
(1936,1103,l),
(1444,1303,l),
(1072,1136,l),
(1133,1025,l)
);
}
);
width = 1442;
}
);
note = uni1784_17B6;
},
{
glyphname = uni1784_17C5;
layers = (
{
layerId = m01;
shapes = (
{
closed = 1;
nodes = (
(824,1184,qs),
(840,1197,o),
(868,1198,qs),
(898,1197,o),
(911,1184,qs),
(921,1175,o),
(924,1161,qs),
(925,1155,o),
(925,1147,qs),
(925,1121,o),
(911,1108,qs),
(897,1094,o),
(868,1094,qs),
(839,1094,o),
(824,1108,qs),
(814,1118,o),
(811,1133,qs),
(810,1139,o),
(810,1145,qs),
(810,1170,o)
);
},
{
closed = 1;
nodes = (
(197,564,qs),
(182,569,o),
(180,579,q),
(180,582,ls),
(180,601,o),
(198,631,qs),
(215,661,o),
(229,669,q),
(229,559,l),
(214,559,o)
);
},
{
closed = 1;
nodes = (
(1069,1143,qs),
(1069,1168,o),
(1065,1189,qs),
(1056,1236,o),
(1026,1263,qs),
(983,1303,o),
(848,1303,qs),
(762,1303,o),
(719,1263,qs),
(676,1224,o),
(676,1149,qs),
(676,1140,ls),
(676,1130,o),
(678,1122,qs),
(681,1105,o),
(690,1094,q),
(558,1094,ls),
(504,1094,o),
(495,1142,qs),
(493,1152,o),
(492,1164,q),
(492,1304,ls),
(492,1334,o),
(487,1359,qs),
(461,1489,o),
(302,1489,qs),
(194,1489,o),
(166,1461,qs),
(137,1432,o),
(136,1373,q),
(182,1373,o),
(206,1355,qs),
(224,1342,o),
(228,1320,qs),
(229,1313,o),
(229,1304,qs),
(229,1164,ls),
(229,1140,o),
(233,1118,qs),
(267,951,o),
(559,951,qs),
(808,951,l),
(951,861,l),
(951,181,l),
(721,360,l),
(493,181,l),
(492,838,l),
(229,838,l),
(133,707,o),
(108,664,qs),
(87,622,o),
(87,584,qs),
(87,581,ls),
(87,566,o),
(89,553,qs),
(97,516,o),
(127,494,qs),
(167,465,o),
(229,465,q),
(229,0,l),
(492,0,l),
(721,180,l),
(950,0,l),
(1213,0,l),
(1214,946,l),
(1014,1039,l),
(1069,1093,o)
);
},
{
closed = 1;
nodes = (
(1985,1164,qs),
(1986,1536,ls),
(1985,1578,o),
(1979,1612,qs),
(1951,1752,o),
(1809,1752,qs),
(1631,1752,o),
(1630,1629,q),
(1677,1629,o),
(1701,1606,qs),
(1716,1591,o),
(1721,1565,qs),
(1724,1552,o),
(1724,1536,qs),
(1723,1189,l),
(1443,1303,l),
(1073,1136,l),
(1133,1025,l),
(1339,1113,l),
(1672,968,l),
(1672,0,l),
(1935,0,l),
(1936,1037,l),
(1985,1128,o)
);
}
);
width = 1442;
}
);
note = uni1784_17C5;
},
{
glyphname = uni1785_17B6;
layers = (
{
layerId = m01;
shapes = (
{
closed = 1;
nodes = (
(898,587,q),
(884,593,o),
(882,602,qs),
(881,605,l),
(881,626,o),
(899,654,qs),
(917,683,o),
(951,722,q),
(951,582,l),
(916,582,o)
);
},
{
closed = 1;
nodes = (
(1006,952,l),
(1038,951,l),
(1267,1103,l),
(1672,976,l),
(1672,0,l),
(1935,0,l),
(1936,1103,l),
(1340,1303,l),
(1089,1143,l),
(660,1303,l),
(568,1303,l),
(136,1117,l),
(136,1005,l),
(229,921,l),
(230,263,ls),
(230,234,o),
(235,207,qs),
(276,0,o),
(651,0,qs),
(791,0,ls),
(1213,0,o),
(1214,263,qs),
(1213,861,l),
(951,861,l),
(878,781,ls),
(832,732,o),
(810,687,qs),
(789,644,o),
(789,607,qs),
(789,597,ls),
(789,587,o),
(791,577,qs),
(799,539,o),
(830,518,qs),
(871,489,o),
(952,489,q),
(952,263,ls),
(952,143,o),
(792,143,qs),
(652,143,ls),
(514,143,o),
(496,234,qs),
(493,247,o),
(493,263,qs),
(492,975,l),
(361,1085,l),
(503,1139,l)
);
}
);
width = 1442;
}
);
note = uni1785_17B6;
},
{
glyphname = uni1785_17C5;
layers = (
{
layerId = m01;
shapes = (
{
closed = 1;
nodes = (
(898,587,q),
(884,593,o),
(882,602,qs),
(881,605,l),
(881,626,o),
(899,654,qs),
(917,683,o),
(951,722,q),
(951,582,l),
(916,582,o)
);
},
{
closed = 1;
nodes = (
(1986,1164,qs),
(1985,1536,ls),
(1985,1578,o),
(1978,1612,qs),
(1950,1752,o),
(1808,1752,qs),
(1631,1752,o),
(1631,1630,qs),
(1631,1629,l),
(1678,1629,o),
(1700,1606,qs),
(1715,1591,o),
(1720,1566,qs),
(1723,1552,o),
(1723,1536,qs),
(1724,1174,l),
(1340,1303,l),
(1089,1143,l),
(660,1303,l),
(568,1303,l),
(136,1117,l),
(136,1005,l),
(229,921,l),
(230,263,ls),
(230,234,o),
(235,207,qs),
(276,0,o),
(651,0,qs),
(791,0,ls),
(1213,0,o),
(1214,263,qs),
(1213,861,l),
(951,861,l),
(878,781,ls),
(832,732,o),
(810,687,qs),
(789,644,o),
(789,607,qs),
(789,597,ls),
(789,587,o),
(791,577,qs),
(799,539,o),
(830,518,qs),
(871,489,o),
(952,489,q),
(952,263,ls),
(952,143,o),
(792,143,qs),
(652,143,ls),
(514,143,o),
(496,234,qs),
(493,247,o),
(493,263,qs),
(492,975,l),
(361,1085,l),
(503,1139,l),
(1006,952,l),
(1038,951,l),
(1267,1103,l),
(1672,976,l),
(1672,0,l),
(1935,0,l),
(1935,1037,l),
(1986,1128,o)
);
}
);
width = 1442;
}
);
note = uni1785_17C5;
},
{
glyphname = uni1786_17B6;
layers = (
{
layerId = m01;
shapes = (
{
closed = 1;
nodes = (
(898,587,q),
(884,593,o),
(882,602,qs),
(881,605,l),
(881,626,o),
(899,654,qs),
(917,683,o),
(951,722,q),
(951,582,l),
(916,582,o)
);
},
{
closed = 1;
nodes = (
(361,1085,l),
(503,1139,l),
(1006,952,l),
(1038,951,l),
(1267,1103,l),
(1672,976,l),
(1672,0,l),
(1935,0,l),
(1936,1103,l),
(1340,1303,l),
(1089,1143,l),
(660,1303,l),
(568,1303,l),
(136,1117,l),
(136,1005,l),
(229,921,l),
(230,449,l),
(180,449,o),
(109,337,o),
(109,256,qs),
(110,219,o),
(116,187,qs),
(120,165,o),
(127,146,qs),
(145,99,o),
(229,0,q),
(492,0,l),
(492,306,l),
(531,306,ls),
(616,306,o),
(629,242,qs),
(631,231,o),
(631,217,qs),
(631,185,o),
(637,158,qs),
(668,0,o),
(884,0,qs),
(1213,0,o),
(1214,233,qs),
(1213,861,l),
(951,861,l),
(878,781,ls),
(832,732,o),
(810,687,qs),
(789,644,o),
(789,607,qs),
(789,597,ls),
(789,587,o),
(791,577,qs),
(799,539,o),
(830,518,qs),
(871,489,o),
(952,489,q),
(951,461,l),
(950,461,l),
(951,233,ls),
(951,143,o),
(885,143,qs),
(787,143,o),
(775,201,qs),
(774,209,o),
(774,217,qs),
(774,255,o),
(768,286,qs),
(736,449,o),
(532,449,qs),
(493,449,l),
(492,975,l)
);
}
);
width = 1442;
}
);
note = uni1786_17B6;
},
{
glyphname = uni1786_17C5;
layers = (
{
layerId = m01;
shapes = (
{
closed = 1;
nodes = (
(899,587,qs),
(884,593,o),
(882,603,q),
(881,605,l),
(881,626,o),
(898,654,qs),
(917,683,o),
(952,722,q),
(952,582,l),
(917,582,o)
);
},
{
closed = 1;
nodes = (
(1985,1163,qs),
(1985,1536,ls),
(1985,1579,o),
(1979,1613,qs),
(1951,1752,o),
(1809,1752,qs),
(1631,1752,o),
(1630,1629,q),
(1677,1629,o),
(1700,1606,qs),
(1715,1591,o),
(1720,1566,qs),
(1723,1552,o),
(1723,1536,qs),
(1723,1174,l),
(1340,1303,l),
(1089,1143,l),
(660,1303,l),
(568,1303,l),
(137,1117,l),
(136,1005,l),
(229,921,l),
(229,449,l),
(179,449,o),
(110,337,o),
(109,256,qs),
(109,219,o),
(116,187,qs),
(120,165,o),
(127,146,qs),
(144,99,o),
(229,0,q),
(492,0,l),
(492,306,l),
(531,306,ls),
(616,306,o),
(629,241,qs),
(631,230,o),
(632,217,qs),
(632,208,ls),
(632,181,o),
(637,158,qs),
(668,0,o),
(884,0,qs),
(1213,0,o),
(1214,233,qs),
(1213,861,l),
(951,861,l),
(878,781,ls),
(833,732,o),
(811,687,qs),
(789,642,o),
(788,604,qs),
(788,590,o),
(791,577,qs),
(798,539,o),
(830,518,qs),
(870,489,o),
(951,489,q),
(951,461,l),
(950,461,l),
(951,233,ls),
(951,143,o),
(885,143,qs),
(788,143,o),
(776,200,qs),
(775,208,o),
(775,217,qs),
(774,254,o),
(768,285,qs),
(735,449,o),
(531,449,qs),
(492,449,l),
(492,975,l),
(361,1085,l),
(502,1139,l),
(1007,952,l),
(1038,951,l),
(1267,1103,l),
(1672,976,l),
(1672,0,l),
(1935,0,l),
(1936,1037,l),
(1985,1126,o)
);
}
);
width = 1442;
}
);
note = uni1786_17C5;
},
{
glyphname = uni1787_17B6;
layers = (
{
layerId = m01;
shapes = (
{
closed = 1;
nodes = (
(1339,1113,l),
(1672,968,l),
(1672,0,l),
(1935,0,l),
(1935,1103,l),
(1443,1303,l),
(1213,1199,l),
(1213,1210,ls),
(1213,1252,o),
(1206,1286,qs),
(1174,1443,o),
(997,1443,qs),
(911,1443,o),
(882,1421,qs),
(854,1397,o),
(854,1350,q),
(929,1350,o),
(946,1265,qs),
(951,1241,o),
(951,1210,qs),
(950,1114,o),
(848,1114,qs),
(805,1114,l),
(505,1303,l),
(403,1303,l),
(136,1110,l),
(136,959,l),
(229,886,l),
(229,0,l),
(492,0,l),
(721,180,l),
(950,0,l),
(1213,0,l),
(1213,861,l),
(950,861,l),
(950,181,l),
(721,360,l),
(492,181,l),
(492,936,l),
(318,1060,l),
(393,1118,l),
(612,971,l),
(838,971,ls),
(1033,971,o),
(1127,1036,q),
(1133,1025,l)
);
}
);
width = 1442;
}
);
note = uni1787_17B6;
},
{
glyphname = uni1787_17C5;
layers = (
{
layerId = m01;
shapes = (
{
closed = 1;
nodes = (
(1985,1164,qs),
(1985,1536,ls),
(1984,1578,o),
(1978,1612,qs),
(1950,1752,o),
(1808,1752,qs),
(1630,1752,o),
(1630,1629,q),
(1677,1629,o),
(1700,1606,qs),
(1715,1591,o),
(1720,1566,qs),
(1723,1552,o),
(1723,1536,qs),
(1723,1189,l),
(1443,1303,l),
(1213,1199,l),
(1213,1210,ls),
(1213,1252,o),
(1206,1286,qs),
(1174,1443,o),
(997,1443,qs),
(911,1443,o),
(882,1421,qs),
(854,1397,o),
(854,1350,q),
(929,1350,o),
(946,1265,qs),
(951,1241,o),
(951,1210,qs),
(950,1114,o),
(848,1114,qs),
(805,1114,l),
(505,1303,l),
(403,1303,l),
(136,1110,l),
(136,959,l),
(229,886,l),
(229,0,l),
(492,0,l),
(721,180,l),
(950,0,l),
(1213,0,l),
(1213,861,l),
(950,861,l),
(950,181,l),
(721,360,l),
(492,181,l),
(492,936,l),
(318,1060,l),
(393,1118,l),
(612,971,l),
(838,971,ls),
(1033,971,o),
(1127,1036,q),
(1133,1025,l),
(1339,1113,l),
(1672,968,l),
(1672,0,l),
(1935,0,l),
(1935,1037,l),
(1985,1128,o)
);
}
);
width = 1442;
}
);
note = uni1787_17C5;
},
{
glyphname = uni1788_17B6;
layers = (
{
layerId = m01;
shapes = (
{
closed = 1;
nodes = (
(561,337,qs),
(574,328,o),
(578,312,q),
(578,303,ls),
(578,275,o),
(564,247,qs),
(550,220,o),
(492,151,q),
(492,349,l),
(519,349,ls),
(543,349,o)
);
},
{
closed = 1;
nodes = (
(2478,972,l),
(2684,1082,l),
(3114,944,l),
(3114,0,l),
(3377,0,l),
(3377,1083,l),
(2736,1303,l),
(2279,1025,l),
(2279,935,l),
(2392,862,l),
(2392,263,ls),
(2392,143,o),
(2210,143,qs),
(2117,143,ls),
(1955,143,o),
(1937,237,qs),
(1934,249,o),
(1934,263,qs),
(1934,869,l),
(1694,1009,l),
(1744,1085,l),
(1878,997,o),
(1923,997,qs),
(2020,997,o),
(2057,1187,q),
(1982,1187,o),
(1928,1216,qs),
(1765,1303,l),
(1558,1025,l),
(1558,935,l),
(1671,862,l),
(1671,263,ls),
(1671,143,o),
(1489,143,qs),
(1396,143,ls),
(1234,143,o),
(1216,237,qs),
(1213,249,o),
(1213,263,qs),
(1213,1103,l),
(721,1303,l),
(229,1104,l),
(229,0,l),
(492,0,l),
(614,119,o),
(681,235,o),
(681,303,qs),
(681,310,ls),
(681,325,o),
(678,339,qs),
(670,382,o),
(640,408,qs),
(600,442,o),
(519,442,qs),
(492,442,l),
(492,1055,l),
(601,1105,l),
(950,964,l),
(950,263,ls),
(950,235,o),
(955,210,qs),
(997,0,o),
(1396,0,qs),
(1489,0,ls),
(1692,0,o),
(1803,55,q),
(1913,0,o),
(2117,0,qs),
(2210,0,ls),
(2655,0,o),
(2655,263,qs),
(2655,869,l)
);
}
);
width = 2885;
}
);
note = uni1788_17B6;
},
{
glyphname = uni1788_17C5;
layers = (
{
layerId = m01;
shapes = (
{
closed = 1;
nodes = (
(561,337,qs),
(574,328,o),
(578,312,q),
(578,303,ls),
(578,275,o),
(564,247,qs),
(550,220,o),
(492,151,q),
(492,349,l),
(519,349,ls),
(543,349,o)
);
},
{
closed = 1;
nodes = (
(3427,1164,qs),
(3427,1536,ls),
(3426,1578,o),
(3420,1612,qs),
(3392,1752,o),
(3250,1752,qs),
(3072,1752,o),
(3072,1629,q),
(3119,1629,o),
(3142,1606,qs),
(3157,1591,o),
(3162,1566,qs),
(3165,1552,o),
(3165,1536,qs),
(3165,1156,l),
(2736,1303,l),
(2279,1025,l),
(2279,935,l),
(2392,862,l),
(2392,263,ls),
(2392,143,o),
(2210,143,qs),
(2117,143,ls),
(1955,143,o),
(1937,237,qs),
(1934,249,o),
(1934,263,qs),
(1934,869,l),
(1694,1009,l),
(1744,1085,l),
(1878,997,o),
(1923,997,qs),
(2020,997,o),
(2057,1187,q),
(1982,1187,o),
(1928,1216,qs),
(1765,1303,l),
(1558,1025,l),
(1558,935,l),
(1671,862,l),
(1671,263,ls),
(1671,143,o),
(1489,143,qs),
(1396,143,ls),
(1234,143,o),
(1216,237,qs),
(1213,249,o),
(1213,263,qs),
(1213,1103,l),
(721,1303,l),
(229,1104,l),
(229,0,l),
(492,0,l),
(614,119,o),
(681,235,o),
(681,303,qs),
(681,310,ls),
(681,325,o),
(678,339,qs),
(670,382,o),
(640,408,qs),
(600,442,o),
(519,442,qs),
(492,442,l),
(492,1055,l),
(601,1105,l),
(950,964,l),
(950,263,ls),
(950,235,o),
(955,210,qs),
(997,0,o),
(1396,0,qs),
(1489,0,ls),
(1692,0,o),
(1803,55,q),
(1913,0,o),
(2117,0,qs),
(2210,0,ls),
(2655,0,o),
(2655,263,qs),
(2655,869,l),
(2478,972,l),
(2684,1082,l),
(3114,944,l),
(3114,0,l),
(3377,0,l),
(3377,1037,l),
(3427,1128,o)
);
}
);
width = 2885;
}
);
note = uni1788_17C5;
},
{
glyphname = uni1789_17B6;
layers = (
{
layerId = m01;
shapes = (
{
closed = 1;
nodes = (
(1930,-228,qs),
(1903,-93,o),
(1723,-93,qs),
(1634,-93,o),
(1595,-131,qs),
(1557,-169,o),
(1557,-214,qs),
(1557,-216,l),
(1662,-216,o),
(1672,-267,qs),
(1673,-273,o),
(1673,-279,qs),
(1673,-435,o),
(1522,-435,qs),
(1414,-435,o),
(929,-140,o),
(611,-140,qs),
(415,-140,o),
(229,-223,o),
(229,-270,qs),
(230,-347,l),
(298,-305,o),
(455,-263,o),
(551,-263,qs),
(681,-263,o),
(1146,-559,o),
(1522,-559,qs),
(1769,-559,o),
(1852,-489,qs),
(1935,-419,o),
(1935,-279,qs),
(1935,-251,o)
);
},
{
closed = 1;
nodes = (
(561,337,qs),
(575,328,o),
(578,312,qs),
(579,308,o),
(579,303,qs),
(578,275,o),
(564,247,qs),
(550,220,o),
(492,151,q),
(493,349,l),
(520,349,ls),
(544,349,o)
);
},
{
closed = 1;
nodes = (
(2395,968,l),
(2394,0,l),
(2657,0,l),
(2658,1103,l),
(2166,1303,l),
(1794,1136,l),
(1802,1121,l),
(1444,1303,l),
(1129,1126,l),
(929,1303,l),
(722,1140,l),
(516,1303,l),
(229,1056,l),
(229,0,l),
(492,0,l),
(615,119,o),
(681,235,o),
(682,303,qs),
(682,322,o),
(679,339,qs),
(670,382,o),
(641,408,qs),
(600,442,o),
(519,442,qs),
(492,442,l),
(492,1056,l),
(534,1103,l),
(722,957,l),
(912,1103,l),
(950,1055,l),
(950,0,l),
(1213,0,l),
(1214,1014,l),
(1373,1095,l),
(1672,941,l),
(1672,0,l),
(1935,0,l),
(1936,1054,l),
(1929,1057,l),
(2062,1113,l)
);
}
);
width = 2164;
}
);
note = uni1789_17B6;
},
{
glyphname = uni1789_17C5;
layers = (
{
layerId = m01;
shapes = (
{
closed = 1;
nodes = (
(562,337,qs),
(574,329,o),
(577,314,qs),
(578,309,o),
(578,303,qs),
(578,275,o),
(565,247,qs),
(550,220,o),
(493,151,q),
(492,349,l),
(519,349,ls),
(543,349,o)
);
},
{
closed = 1;
nodes = (
(1931,-228,qs),
(1904,-93,o),
(1724,-93,qs),
(1635,-93,o),
(1556,-170,o),
(1556,-216,q),
(1662,-216,o),
(1673,-268,qs),
(1674,-273,o),
(1674,-279,qs),
(1673,-435,o),
(1522,-435,qs),
(1414,-435,o),
(929,-140,o),
(611,-140,qs),
(415,-140,o),
(230,-223,o),
(229,-270,qs),
(229,-347,l),
(298,-305,o),
(456,-263,o),
(552,-263,qs),
(682,-263,o),
(1147,-559,o),
(1523,-559,qs),
(1770,-559,o),
(1853,-489,qs),
(1936,-419,o),
(1936,-279,qs),
(1935,-251,o)
);
},
{
closed = 1;
nodes = (
(2707,1164,qs),
(2708,1536,ls),
(2707,1578,o),
(2701,1612,qs),
(2673,1752,o),
(2531,1752,qs),
(2353,1752,o),
(2352,1629,q),
(2399,1629,o),
(2423,1606,qs),
(2438,1591,o),
(2443,1565,qs),
(2446,1552,o),
(2446,1536,qs),
(2445,1189,l),
(2165,1303,l),
(1795,1136,l),
(1803,1121,l),
(1443,1303,l),
(1130,1126,l),
(928,1303,l),
(722,1140,l),
(515,1303,l),
(230,1056,l),
(229,0,l),
(492,0,l),
(614,119,o),
(681,235,o),
(681,303,qs),
(681,323,o),
(678,340,qs),
(669,383,o),
(640,408,qs),
(601,442,o),
(520,442,qs),
(493,442,l),
(493,1056,l),
(533,1103,l),
(723,957,l),
(911,1103,l),
(950,1055,l),
(950,0,l),
(1213,0,l),
(1213,1014,l),
(1373,1095,l),
(1673,941,l),
(1672,0,l),
(1935,0,l),
(1935,1054,l),
(1930,1057,l),
(2061,1113,l),
(2394,968,l),
(2394,0,l),
(2657,0,l),
(2658,1037,l),
(2707,1128,o)
);
}
);
width = 2164;
}
);
note = uni1789_17C5;
},
{
glyphname = uni178A_17B6;
layers = (
{
layerId = m01;
shapes = (
{
closed = 1;
nodes = (
(950,0,l),
(1213,0,l),
(1213,841,l),
(950,841,l),
(950,181,l),
(721,360,l),
(492,181,l),
(492,841,l),
(229,841,l),
(229,0,l),
(492,0,l),
(721,180,l)
);
},
{
closed = 1;
nodes = (
(1340,1113,l),
(1673,968,l),
(1672,0,l),
(1935,0,l),
(1936,1103,l),
(1444,1303,l),
(1212,1199,l),
(1213,1210,o),
(1213,1221,qs),
(1213,1257,o),
(1207,1286,qs),
(1176,1443,o),
(978,1443,qs),
(882,1443,o),
(857,1420,qs),
(834,1396,o),
(834,1350,q),
(929,1350,o),
(946,1264,qs),
(950,1245,o),
(950,1221,qs),
(950,1094,o),
(768,1094,qs),
(675,1094,ls),
(501,1094,o),
(492,1139,q),
(492,1144,ls),
(492,1170,o),
(516,1170,qs),
(535,1170,o),
(539,1153,q),
(539,1144,l),
(586,1144,o),
(608,1161,qs),
(632,1179,o),
(633,1213,qs),
(633,1222,o),
(631,1230,qs),
(617,1303,o),
(465,1303,qs),
(230,1303,o),
(229,1144,qs),
(230,1128,o),
(232,1114,qs),
(265,951,o),
(675,951,qs),
(768,951,ls),
(1017,951,o),
(1127,1036,q),
(1133,1025,l)
);
}
);
width = 1442;
}
);
note = uni178A_17B6;
},
{
glyphname = uni178A_17C5;
layers = (
{
layerId = m01;
shapes = (
{
closed = 1;
nodes = (
(950,0,l),
(1213,0,l),
(1213,841,l),
(950,841,l),
(950,181,l),
(721,360,l),
(492,181,l),
(492,841,l),
(229,841,l),
(229,0,l),
(492,0,l),
(721,180,l)
);
},
{
closed = 1;
nodes = (
(1985,1163,qs),
(1985,1536,ls),
(1985,1578,o),
(1978,1612,qs),
(1950,1752,o),
(1808,1752,qs),
(1630,1752,o),
(1630,1629,q),
(1677,1629,o),
(1700,1606,qs),
(1715,1591,o),
(1720,1566,qs),
(1723,1552,o),
(1723,1536,qs),
(1723,1189,l),
(1444,1303,l),
(1212,1199,l),
(1213,1210,o),
(1213,1221,qs),
(1213,1257,o),
(1207,1286,qs),
(1176,1443,o),
(978,1443,qs),
(882,1443,o),
(857,1420,qs),
(834,1396,o),
(834,1350,q),
(929,1350,o),
(946,1264,qs),
(950,1245,o),
(950,1221,qs),
(950,1094,o),
(768,1094,qs),
(675,1094,ls),
(501,1094,o),
(492,1139,q),
(492,1144,ls),
(492,1170,o),
(516,1170,qs),
(535,1170,o),
(539,1153,q),
(539,1144,l),
(586,1144,o),
(608,1161,qs),
(632,1179,o),
(633,1213,qs),
(633,1222,o),
(631,1230,qs),
(617,1303,o),
(465,1303,qs),
(230,1303,o),
(229,1144,qs),
(230,1128,o),
(232,1114,qs),
(265,951,o),
(675,951,qs),
(768,951,ls),
(1017,951,o),
(1127,1036,q),
(1133,1025,l),
(1340,1113,l),
(1673,968,l),
(1672,0,l),
(1935,0,l),
(1935,1037,l),
(1985,1126,o)
);
}
);
width = 1442;
}
);
note = uni178A_17C5;
},
{
glyphname = uni178B_17B6;
layers = (
{
layerId = m01;
shapes = (
{
closed = 1;
nodes = (
(180,969,qs),
(162,979,o),
(158,999,qs),
(157,1004,o),
(157,1009,qs),
(157,1016,ls),
(157,1037,o),
(179,1072,qs),
(203,1110,o),
(230,1133,q),
(230,954,l),
(204,954,o)
);
},
{
closed = 1;
nodes = (
(1673,968,l),
(1672,0,l),
(1935,0,l),
(1936,1103,l),
(1444,1303,l),
(1335,1254,l),
(1335,1301,ls),
(1335,1342,o),
(1328,1375,qs),
(1320,1419,o),
(1300,1447,qs),
(1267,1499,o),
(1147,1499,qs),
(1100,1499,o),
(1076,1476,qs),
(1054,1453,o),
(1053,1386,q),
(1123,1386,o),
(1158,1358,qs),
(1185,1335,o),
(1191,1306,qs),
(1192,1301,o),
(1192,1295,qs),
(1192,1290,ls),
(1192,1256,o),
(1185,1238,q),
(1181,1231,o),
(1177,1227,q),
(985,1303,l),
(817,1025,l),
(817,945,l),
(950,862,l),
(951,263,ls),
(951,143,o),
(769,143,qs),
(676,143,ls),
(514,143,o),
(495,237,qs),
(493,249,o),
(493,263,qs),
(493,1303,l),
(230,1303,l),
(110,1145,o),
(87,1098,qs),
(64,1054,o),
(64,1016,qs),
(64,1004,ls),
(64,986,o),
(67,970,qs),
(77,923,o),
(110,897,qs),
(156,861,o),
(229,861,q),
(230,263,l),
(230,254,ls),
(230,231,o),
(234,210,qs),
(276,0,o),
(675,0,qs),
(768,0,ls),
(1213,0,o),
(1214,263,qs),
(1214,869,l),
(953,1009,l),
(982,1075,l),
(1156,997,o),
(1202,997,qs),
(1255,997,o),
(1295,1072,qs),
(1302,1085,o),
(1307,1100,q),
(1340,1113,l)
);
}
);
width = 1442;
}
);
note = uni178B_17B6;
},
{
glyphname = uni178B_17C5;
layers = (
{
layerId = m01;
shapes = (
{
closed = 1;
nodes = (
(180,969,qs),
(162,979,o),
(158,999,qs),
(157,1004,o),
(157,1009,qs),
(157,1016,ls),
(157,1037,o),
(179,1072,qs),
(203,1110,o),
(230,1133,q),
(230,954,l),
(204,954,o)
);
},
{
closed = 1;
nodes = (
(1986,1164,qs),
(1985,1536,ls),
(1985,1578,o),
(1978,1612,qs),
(1950,1752,o),
(1808,1752,qs),
(1631,1752,o),
(1631,1630,qs),
(1631,1629,l),
(1678,1629,o),
(1700,1606,qs),
(1715,1591,o),
(1720,1566,qs),
(1723,1552,o),
(1723,1536,qs),
(1724,1189,l),
(1444,1303,l),
(1335,1254,l),
(1335,1301,ls),
(1335,1342,o),
(1328,1375,qs),
(1320,1419,o),
(1300,1447,qs),
(1267,1499,o),
(1147,1499,qs),
(1100,1499,o),
(1076,1476,qs),
(1054,1453,o),
(1053,1386,q),
(1123,1386,o),
(1158,1358,qs),
(1185,1335,o),
(1191,1306,qs),
(1192,1301,o),
(1192,1295,qs),
(1192,1290,ls),
(1192,1256,o),
(1185,1238,q),
(1181,1231,o),
(1177,1227,q),
(985,1303,l),
(817,1025,l),
(817,945,l),
(950,862,l),
(951,263,ls),
(951,143,o),
(769,143,qs),
(676,143,ls),
(514,143,o),
(495,237,qs),
(493,249,o),
(493,263,qs),
(493,1303,l),
(230,1303,l),
(110,1145,o),
(87,1098,qs),
(64,1054,o),
(64,1016,qs),
(64,1004,ls),
(64,986,o),
(67,970,qs),
(77,923,o),
(110,897,qs),
(156,861,o),
(229,861,q),
(230,263,l),
(230,254,ls),
(230,231,o),
(234,210,qs),
(276,0,o),
(675,0,qs),
(768,0,ls),
(1213,0,o),
(1214,263,qs),
(1214,869,l),
(953,1009,l),
(982,1075,l),
(1156,997,o),
(1202,997,qs),
(1255,997,o),
(1295,1072,qs),
(1302,1085,o),
(1307,1100,q),
(1340,1113,l),
(1673,968,l),
(1672,0,l),
(1935,0,l),
(1935,1037,l),
(1986,1128,o)
);
}
);
width = 1442;
}
);
note = uni178B_17C5;
},
{
glyphname = uni178C_17B6;
layers = (
{
layerId = m01;
shapes = (
{
closed = 1;
nodes = (
(526,902,qs),
(536,897,o),
(538,888,qs),
(539,884,l),
(538,862,o),
(526,850,qs),
(516,839,o),
(493,839,q),
(493,908,l),
(516,908,o)
);
},
{
closed = 1;
nodes = (
(1673,968,l),
(1672,0,l),
(1935,0,l),
(1936,1103,l),
(1444,1303,l),
(1104,1150,l),
(929,1303,l),
(722,1140,l),
(516,1303,l),
(229,1056,l),
(230,838,ls),
(230,828,o),
(232,819,qs),
(238,786,o),
(271,768,qs),
(311,745,o),
(362,745,qs),
(492,745,ls),
(562,745,o),
(597,780,qs),
(632,815,o),
(633,884,qs),
(632,900,o),
(630,914,qs),
(622,950,o),
(597,972,qs),
(562,1001,o),
(492,1001,q),
(492,1056,l),
(534,1103,l),
(722,957,l),
(912,1103,l),
(951,1056,l),
(951,931,ls),
(950,872,o),
(869,777,o),
(789,734,qs),
(229,442,l),
(230,263,ls),
(230,228,o),
(236,197,qs),
(275,0,o),
(570,0,q),
(570,1,l),
(604,1,l),
(951,220,l),
(951,116,ls),
(951,93,o),
(922,82,qs),
(893,70,o),
(834,70,q),
(834,50,o),
(838,34,qs),
(844,1,o),
(864,-18,qs),
(894,-47,o),
(1002,-47,qs),
(1133,-47,o),
(1173,-6,qs),
(1213,33,o),
(1213,111,qs),
(1213,535,l),
(951,535,l),
(951,387,l),
(571,144,l),
(571,143,l),
(511,143,o),
(497,213,qs),
(493,231,o),
(493,254,qs),
(493,423,l),
(812,591,ls),
(1132,758,o),
(1213,861,o),
(1213,931,qs),
(1213,1056,l),
(1212,1058,l),
(1340,1113,l)
);
}
);
width = 1442;
}
);
note = uni178C_17B6;
},
{
glyphname = uni178C_17C5;
layers = (
{
layerId = m01;
shapes = (
{
closed = 1;
nodes = (
(526,902,qs),
(536,897,o),
(538,888,qs),
(539,884,l),
(538,862,o),
(526,850,qs),
(516,839,o),
(493,839,q),
(493,908,l),
(516,908,o)
);
},
{
closed = 1;
nodes = (
(1986,1164,qs),
(1985,1536,ls),
(1985,1578,o),
(1978,1612,qs),
(1950,1752,o),
(1808,1752,qs),
(1631,1752,o),
(1631,1630,qs),
(1631,1629,l),
(1678,1629,o),
(1700,1606,qs),
(1715,1591,o),
(1720,1566,qs),
(1723,1552,o),
(1723,1536,qs),
(1724,1189,l),
(1444,1303,l),
(1104,1150,l),
(929,1303,l),
(722,1140,l),
(516,1303,l),
(229,1056,l),
(230,838,ls),
(230,828,o),
(232,819,qs),
(238,786,o),
(271,768,qs),
(311,745,o),
(362,745,qs),
(492,745,ls),
(562,745,o),
(597,780,qs),
(632,815,o),
(633,884,qs),
(632,900,o),
(630,914,qs),
(622,950,o),
(597,972,qs),
(562,1001,o),
(492,1001,q),
(492,1056,l),
(534,1103,l),
(722,957,l),
(912,1103,l),
(951,1056,l),
(951,931,ls),
(950,872,o),
(869,777,o),
(789,734,qs),
(229,442,l),
(230,263,ls),
(230,228,o),
(236,197,qs),
(275,0,o),
(570,0,q),
(570,1,l),
(604,1,l),
(951,220,l),
(951,116,ls),
(951,93,o),
(922,82,qs),
(893,70,o),
(834,70,q),
(834,50,o),
(838,34,qs),
(844,1,o),
(864,-18,qs),
(894,-47,o),
(1002,-47,qs),
(1133,-47,o),
(1173,-6,qs),
(1213,33,o),
(1213,111,qs),
(1213,535,l),
(951,535,l),
(951,387,l),
(571,144,l),
(571,143,l),
(511,143,o),
(497,213,qs),
(493,231,o),
(493,254,qs),
(493,423,l),
(812,591,ls),
(1132,758,o),
(1213,861,o),
(1213,931,qs),
(1213,1056,l),
(1212,1058,l),
(1340,1113,l),
(1673,968,l),
(1672,0,l),
(1935,0,l),
(1935,1037,l),
(1986,1128,o)
);
}
);
width = 1442;
}
);
note = uni178C_17C5;
},
{
glyphname = uni178D_17B6;
layers = (
{
layerId = m01;
shapes = (
{
closed = 1;
nodes = (
(561,337,qs),
(575,328,o),
(578,312,qs),
(579,308,o),
(579,303,qs),
(578,275,o),
(564,247,qs),
(550,220,o),
(492,151,q),
(492,349,l),
(519,349,ls),
(543,349,o)
);
},
{
closed = 1;
nodes = (
(1757,972,l),
(1963,1082,l),
(2393,944,l),
(2393,0,l),
(2656,0,l),
(2657,1083,l),
(2016,1303,l),
(1558,1025,l),
(1558,935,l),
(1671,862,l),
(1672,233,ls),
(1672,143,o),
(1606,143,qs),
(1508,143,o),
(1496,201,qs),
(1495,206,o),
(1495,212,qs),
(1495,217,ls),
(1495,255,o),
(1489,286,qs),
(1456,449,o),
(1252,449,qs),
(1213,449,l),
(1213,1052,l),
(929,1303,l),
(722,1140,l),
(516,1303,l),
(229,1056,l),
(229,0,l),
(492,0,l),
(614,119,o),
(681,235,o),
(682,303,qs),
(682,322,o),
(678,339,qs),
(670,382,o),
(641,408,qs),
(600,442,o),
(519,442,qs),
(492,442,l),
(492,1056,l),
(534,1103,l),
(722,957,l),
(912,1103,l),
(950,1055,l),
(950,449,l),
(900,449,o),
(830,337,o),
(830,256,qs),
(830,219,o),
(837,187,qs),
(841,165,o),
(848,146,qs),
(865,99,o),
(950,0,q),
(1213,0,l),
(1213,306,l),
(1252,306,ls),
(1337,306,o),
(1350,242,qs),
(1352,231,o),
(1352,217,qs),
(1352,185,o),
(1358,158,qs),
(1389,0,o),
(1605,0,qs),
(1934,0,o),
(1935,233,qs),
(1934,869,l)
);
}
);
width = 2164;
}
);
note = uni178D_17B6;
},
{
glyphname = uni178D_17C5;
layers = (
{
layerId = m01;
shapes = (
{
closed = 1;
nodes = (
(561,337,qs),
(575,328,o),
(578,312,qs),
(579,308,o),
(579,303,qs),
(578,275,o),
(564,247,qs),
(550,220,o),
(492,151,q),
(492,349,l),
(519,349,ls),
(543,349,o)
);
},
{
closed = 1;
nodes = (
(2706,1163,qs),
(2706,1536,ls),
(2706,1578,o),
(2699,1612,qs),
(2671,1752,o),
(2529,1752,qs),
(2351,1752,o),
(2351,1629,q),
(2398,1629,o),
(2421,1606,qs),
(2436,1591,o),
(2441,1566,qs),
(2444,1552,o),
(2444,1536,qs),
(2444,1156,l),
(2016,1303,l),
(1558,1025,l),
(1558,935,l),
(1671,862,l),
(1672,233,ls),
(1672,143,o),
(1606,143,qs),
(1508,143,o),
(1496,201,qs),
(1495,206,o),
(1495,212,qs),
(1495,217,ls),
(1495,255,o),
(1489,286,qs),
(1456,449,o),
(1252,449,qs),
(1213,449,l),
(1213,1052,l),
(929,1303,l),
(722,1140,l),
(516,1303,l),
(229,1056,l),
(229,0,l),
(492,0,l),
(614,119,o),
(681,235,o),
(682,303,qs),
(682,322,o),
(678,339,qs),
(670,382,o),
(641,408,qs),
(600,442,o),
(519,442,qs),
(492,442,l),
(492,1056,l),
(534,1103,l),
(722,957,l),
(912,1103,l),
(950,1055,l),
(950,449,l),
(900,449,o),
(830,337,o),
(830,256,qs),
(830,219,o),
(837,187,qs),
(841,165,o),
(848,146,qs),
(865,99,o),
(950,0,q),
(1213,0,l),
(1213,306,l),
(1252,306,ls),
(1337,306,o),
(1350,242,qs),
(1352,231,o),
(1352,217,qs),
(1352,185,o),
(1358,158,qs),
(1389,0,o),
(1605,0,qs),
(1934,0,o),
(1935,233,qs),
(1934,869,l),
(1757,972,l),
(1963,1082,l),
(2393,944,l),
(2393,0,l),
(2656,0,l),
(2656,1037,l),
(2706,1126,o)
);
}
);
width = 2164;
}
);
note = uni178D_17C5;
},
{
glyphname = uni178E_17B6;
layers = (
{
layerId = m01;
shapes = (
{
closed = 1;
nodes = (
(561,337,qs),
(574,328,o),
(578,312,q),
(578,303,ls),
(578,275,o),
(564,247,qs),
(550,220,o),
(492,151,q),
(492,349,l),
(519,349,ls),
(543,349,o)
);
},
{
closed = 1;
nodes = (
(3115,968,l),
(3115,0,l),
(3378,0,l),
(3378,1103,l),
(2886,1303,l),
(2543,1149,l),
(2164,1303,l),
(1672,1104,l),
(1672,181,l),
(1443,360,l),
(1214,181,l),
(1214,1103,l),
(721,1303,l),
(229,1104,l),
(229,0,l),
(492,0,l),
(614,119,o),
(681,235,o),
(681,303,qs),
(681,310,ls),
(681,325,o),
(678,339,qs),
(670,382,o),
(640,408,qs),
(600,442,o),
(519,442,qs),
(492,442,l),
(492,1055,l),
(601,1105,l),
(951,964,l),
(951,0,l),
(1214,0,l),
(1443,180,l),
(1672,0,l),
(1935,0,l),
(1935,1055,l),
(2044,1105,l),
(2393,964,l),
(2393,0,l),
(2656,0,l),
(2656,1059,l),
(2782,1113,l)
);
}
);
width = 2885;
}
);
note = uni178E_17B6;
},
{
glyphname = uni178E_17C5;
layers = (
{
layerId = m01;
shapes = (
{
closed = 1;
nodes = (
(561,337,qs),
(574,328,o),
(578,312,q),
(578,303,ls),
(578,275,o),
(564,247,qs),
(550,220,o),
(492,151,q),
(492,349,l),
(519,349,ls),
(543,349,o)
);
},
{
closed = 1;
nodes = (
(3428,1164,qs),
(3428,1536,ls),
(3427,1578,o),
(3421,1612,qs),
(3393,1752,o),
(3251,1752,qs),
(3073,1752,o),
(3073,1629,q),
(3120,1629,o),
(3143,1606,qs),
(3158,1591,o),
(3163,1566,qs),
(3166,1552,o),
(3166,1536,qs),
(3166,1189,l),
(2886,1303,l),
(2543,1149,l),
(2164,1303,l),
(1672,1104,l),
(1672,181,l),
(1443,360,l),
(1214,181,l),
(1214,1103,l),
(721,1303,l),
(229,1104,l),
(229,0,l),
(492,0,l),
(614,119,o),
(681,235,o),
(681,303,qs),
(681,310,ls),
(681,325,o),
(678,339,qs),
(670,382,o),
(640,408,qs),
(600,442,o),
(519,442,qs),
(492,442,l),
(492,1055,l),
(601,1105,l),
(951,964,l),
(951,0,l),
(1214,0,l),
(1443,180,l),
(1672,0,l),
(1935,0,l),
(1935,1055,l),
(2044,1105,l),
(2393,964,l),
(2393,0,l),
(2656,0,l),
(2656,1059,l),
(2782,1113,l),
(3115,968,l),
(3115,0,l),
(3378,0,l),
(3378,1037,l),
(3428,1128,o)
);
}
);
width = 2885;
}
);
note = uni178E_17C5;
},
{
glyphname = uni178F_17B6;
layers = (
{
layerId = m01;
shapes = (
{
closed = 1;
nodes = (
(561,337,qs),
(575,328,o),
(578,312,qs),
(579,308,o),
(579,303,qs),
(578,275,o),
(564,247,qs),
(550,220,o),
(492,151,q),
(493,349,l),
(520,349,ls),
(544,349,o)
);
},
{
closed = 1;
nodes = (
(652,788,qs),
(792,788,ls),
(931,788,o),
(949,697,qs),
(952,684,o),
(952,668,qs),
(951,0,l),
(1213,0,l),
(1214,668,ls),
(1214,697,o),
(1209,723,qs),
(1167,931,o),
(791,931,qs),
(651,931,ls),
(230,931,o),
(230,669,qs),
(230,668,l),
(229,0,l),
(492,0,l),
(615,119,o),
(681,235,o),
(682,303,qs),
(682,322,o),
(679,339,qs),
(670,382,o),
(641,408,qs),
(600,442,o),
(519,442,qs),
(492,442,l),
(493,668,ls),
(493,788,o)
);
},
{
closed = 1;
nodes = (
(1340,1303,l),
(1089,1143,l),
(660,1303,l),
(568,1303,l),
(156,1102,l),
(156,1011,l),
(229,971,ls),
(299,932,o),
(361,932,qs),
(363,932,ls),
(395,932,o),
(443,1025,q),
(369,1083,l),
(503,1139,l),
(1006,952,l),
(1038,951,l),
(1267,1103,l),
(1672,976,l),
(1672,0,l),
(1935,0,l),
(1936,1103,l)
);
}
);
width = 1442;
}
);
note = uni178F_17B6;
},
{
glyphname = uni178F_17C5;
layers = (
{
layerId = m01;
shapes = (
{
closed = 1;
nodes = (
(561,337,qs),
(575,328,o),
(578,312,qs),
(579,308,o),
(579,303,qs),
(578,275,o),
(564,247,qs),
(550,220,o),
(492,151,q),
(493,349,l),
(520,349,ls),
(544,349,o)
);
},
{
closed = 1;
nodes = (
(652,788,qs),
(792,788,ls),
(931,788,o),
(949,697,qs),
(952,684,o),
(952,668,qs),
(951,0,l),
(1213,0,l),
(1214,668,ls),
(1214,697,o),
(1209,723,qs),
(1167,931,o),
(791,931,qs),
(651,931,ls),
(230,931,o),
(230,669,qs),
(230,668,l),
(229,0,l),
(492,0,l),
(615,119,o),
(681,235,o),
(682,303,qs),
(682,322,o),
(679,339,qs),
(670,382,o),
(641,408,qs),
(600,442,o),
(519,442,qs),
(492,442,l),
(493,668,ls),
(493,788,o)
);
},
{
closed = 1;
nodes = (
(1986,1164,qs),
(1985,1536,ls),
(1985,1578,o),
(1978,1612,qs),
(1950,1752,o),
(1808,1752,qs),
(1631,1752,o),
(1631,1630,qs),
(1631,1629,l),
(1678,1629,o),
(1700,1606,qs),
(1715,1591,o),
(1720,1566,qs),
(1723,1552,o),
(1723,1536,qs),
(1724,1174,l),
(1340,1303,l),
(1089,1143,l),
(660,1303,l),
(568,1303,l),
(156,1102,l),
(156,1011,l),
(229,971,ls),
(299,932,o),
(361,932,qs),
(363,932,ls),
(395,932,o),
(443,1025,q),
(369,1083,l),
(503,1139,l),
(1006,952,l),
(1038,951,l),
(1267,1103,l),
(1672,976,l),
(1672,0,l),
(1935,0,l),
(1935,1037,l),
(1986,1128,o)
);
}
);
width = 1442;
}
);
note = uni178F_17C5;
},
{
glyphname = uni1790_17B6;
layers = (
{
layerId = m01;
shapes = (
{
closed = 1;
nodes = (
(898,587,qs),
(883,593,o),
(882,602,q),
(881,605,l),
(881,626,o),
(898,654,qs),
(916,683,o),
(951,722,q),
(951,582,l),
(916,582,o)
);
},
{
closed = 1;
nodes = (
(1339,1113,l),
(1672,968,l),
(1672,0,l),
(1935,0,l),
(1935,1103,l),
(1443,1303,l),
(1213,1199,l),
(1213,1210,ls),
(1213,1252,o),
(1206,1286,qs),
(1174,1443,o),
(997,1443,qs),
(911,1443,o),
(882,1421,qs),
(854,1397,o),
(854,1350,q),
(929,1350,o),
(946,1265,qs),
(951,1241,o),
(951,1210,qs),
(950,1114,o),
(848,1114,qs),
(805,1114,l),
(505,1303,l),
(403,1303,l),
(136,1110,l),
(136,959,l),
(229,886,l),
(229,263,ls),
(229,234,o),
(235,207,qs),
(276,0,o),
(651,0,qs),
(791,0,ls),
(1213,0,o),
(1213,263,qs),
(1213,861,l),
(951,861,l),
(878,781,ls),
(832,732,o),
(810,687,qs),
(788,642,o),
(788,604,qs),
(788,590,o),
(791,577,qs),
(798,539,o),
(829,518,qs),
(870,489,o),
(951,489,q),
(951,263,ls),
(951,143,o),
(791,143,qs),
(651,143,ls),
(513,143,o),
(495,234,qs),
(493,247,o),
(492,263,qs),
(492,936,l),
(318,1060,l),
(393,1118,l),
(612,971,l),
(838,971,ls),
(1033,971,o),
(1127,1036,q),
(1133,1025,l)
);
}
);
width = 1442;
}
);
note = uni1790_17B6;
},
{
glyphname = uni1790_17C5;
layers = (
{
layerId = m01;
shapes = (
{
closed = 1;
nodes = (
(898,587,qs),
(883,593,o),
(882,602,q),
(881,605,l),
(881,626,o),
(898,654,qs),
(916,683,o),
(951,722,q),
(951,582,l),
(916,582,o)
);
},
{
closed = 1;
nodes = (
(1985,1164,qs),
(1985,1536,ls),
(1984,1578,o),
(1978,1612,qs),
(1950,1752,o),
(1808,1752,qs),
(1630,1752,o),
(1630,1629,q),
(1677,1629,o),
(1700,1606,qs),
(1715,1591,o),
(1720,1566,qs),
(1723,1552,o),
(1723,1536,qs),
(1723,1189,l),
(1443,1303,l),
(1213,1199,l),
(1213,1210,ls),
(1213,1252,o),
(1206,1286,qs),
(1174,1443,o),
(997,1443,qs),
(911,1443,o),
(882,1421,qs),
(854,1397,o),
(854,1350,q),
(929,1350,o),
(946,1265,qs),
(951,1241,o),
(951,1210,qs),
(950,1114,o),
(848,1114,qs),
(805,1114,l),
(505,1303,l),
(403,1303,l),
(136,1110,l),
(136,959,l),
(229,886,l),
(229,263,ls),
(229,234,o),
(235,207,qs),
(276,0,o),
(651,0,qs),
(791,0,ls),
(1213,0,o),
(1213,263,qs),
(1213,861,l),
(951,861,l),
(878,781,ls),
(832,732,o),
(810,687,qs),
(788,642,o),
(788,604,qs),
(788,590,o),
(791,577,qs),
(798,539,o),
(829,518,qs),
(870,489,o),
(951,489,q),
(951,263,ls),
(951,143,o),
(791,143,qs),
(651,143,ls),
(513,143,o),
(495,234,qs),
(493,247,o),
(492,263,qs),
(492,936,l),
(318,1060,l),
(393,1118,l),
(612,971,l),
(838,971,ls),
(1033,971,o),
(1127,1036,q),
(1133,1025,l),
(1339,1113,l),
(1672,968,l),
(1672,0,l),
(1935,0,l),
(1935,1037,l),
(1985,1128,o)
);
}
);
width = 1442;
}
);
note = uni1790_17C5;
},
{
glyphname = uni1791_17B6;
layers = (
{
layerId = m01;
shapes = (
{
closed = 1;
nodes = (
(1110,670,q),
(1111,669,o),
(1111,668,qs),
(1111,667,o),
(1110,665,q),
(1110,637,o),
(1068,637,qs),
(1042,637,l),
(1042,692,o),
(1068,692,qs),
(1106,692,o)
);
},
{
closed = 1;
nodes = (
(1673,968,l),
(1672,0,l),
(1935,0,l),
(1936,1103,l),
(1444,1303,l),
(1163,1177,l),
(1057,1303,o),
(722,1303,qs),
(230,1303,o),
(229,1031,qs),
(229,815,ls),
(230,778,o),
(236,745,qs),
(286,494,o),
(722,494,qs),
(779,494,l),
(779,280,ls),
(779,144,o),
(707,144,qs),
(642,144,o),
(636,176,q),
(636,183,l),
(635,280,ls),
(635,304,o),
(631,324,qs),
(612,420,o),
(499,420,qs),
(323,420,o),
(323,327,q),
(364,327,o),
(371,293,qs),
(372,287,o),
(372,280,qs),
(373,183,l),
(373,176,ls),
(373,162,o),
(376,148,qs),
(405,0,o),
(707,0,qs),
(1042,0,o),
(1042,281,qs),
(1042,494,l),
(1068,494,ls),
(1213,494,o),
(1213,666,qs),
(1213,680,o),
(1211,693,qs),
(1192,786,o),
(1038,786,qs),
(779,786,o),
(779,637,q),
(722,637,ls),
(523,637,o),
(496,770,qs),
(492,791,o),
(492,815,qs),
(492,1031,ls),
(492,1160,o),
(721,1160,qs),
(928,1160,o),
(949,1056,qs),
(951,1044,o),
(951,1031,qs),
(951,1029,ls),
(951,998,o),
(917,998,qs),
(886,998,o),
(882,1018,qs),
(881,1021,o),
(881,1024,q),
(788,1024,o),
(788,954,q),
(789,947,o),
(790,941,qs),
(801,884,o),
(920,884,qs),
(1213,884,o),
(1213,1031,qs),
(1213,1045,o),
(1212,1059,q),
(1340,1113,l)
);
}
);
width = 1442;
}
);
note = uni1791_17B6;
},
{
glyphname = uni1791_17C5;
layers = (
{
layerId = m01;
shapes = (
{
closed = 1;
nodes = (
(1110,671,q),
(1111,670,o),
(1111,668,qs),
(1111,667,o),
(1110,665,q),
(1110,664,ls),
(1110,637,o),
(1069,637,qs),
(1043,637,l),
(1043,692,o),
(1069,692,qs),
(1106,692,o)
);
},
{
closed = 1;
nodes = (
(1985,1163,qs),
(1985,1536,ls),
(1985,1579,o),
(1979,1613,qs),
(1951,1752,o),
(1809,1752,qs),
(1631,1752,o),
(1630,1629,q),
(1677,1629,o),
(1700,1606,qs),
(1715,1591,o),
(1720,1566,qs),
(1723,1552,o),
(1723,1536,qs),
(1723,1189,l),
(1444,1303,l),
(1164,1177,l),
(1057,1303,o),
(722,1303,qs),
(230,1303,o),
(229,1031,qs),
(229,815,ls),
(230,778,o),
(236,745,qs),
(286,494,o),
(722,494,qs),
(779,494,l),
(779,280,ls),
(779,144,o),
(707,144,qs),
(642,144,o),
(636,176,q),
(636,183,l),
(635,280,ls),
(635,304,o),
(631,324,qs),
(612,420,o),
(499,420,qs),
(324,420,o),
(324,328,qs),
(324,327,l),
(365,327,o),
(371,295,qs),
(372,290,o),
(372,285,qs),
(372,280,l),
(373,183,l),
(373,176,ls),
(373,162,o),
(376,148,qs),
(405,0,o),
(707,0,qs),
(1042,0,o),
(1042,281,qs),
(1042,494,l),
(1068,494,ls),
(1213,494,o),
(1213,666,qs),
(1213,680,o),
(1211,693,qs),
(1192,786,o),
(1038,786,qs),
(780,786,o),
(780,638,qs),
(780,637,l),
(723,637,ls),
(523,637,o),
(496,771,qs),
(492,791,o),
(492,815,qs),
(492,1031,ls),
(492,1160,o),
(721,1160,qs),
(928,1160,o),
(949,1056,qs),
(951,1044,o),
(951,1031,qs),
(951,1029,ls),
(951,998,o),
(917,998,qs),
(886,998,o),
(882,1018,qs),
(881,1021,o),
(881,1024,q),
(788,1024,o),
(788,954,q),
(789,947,o),
(790,941,qs),
(801,884,o),
(920,884,qs),
(1213,884,o),
(1213,1031,qs),
(1213,1045,o),
(1212,1059,q),
(1340,1113,l),
(1673,968,l),
(1672,0,l),
(1935,0,l),
(1936,1037,l),
(1985,1126,o)
);
}
);
width = 1442;
}
);
note = uni1791_17C5;
},
{
glyphname = uni1792_17B6;
layers = (
{
layerId = m01;
shapes = (
{
closed = 1;
nodes = (
(898,587,q),
(884,593,o),
(882,602,qs),
(881,605,l),
(881,626,o),
(899,654,qs),
(917,683,o),
(951,722,q),
(951,582,l),
(916,582,o)
);
},
{
closed = 1;
nodes = (
(361,1085,l),
(503,1139,l),
(1006,952,l),
(1038,951,l),
(1267,1103,l),
(1672,976,l),
(1672,0,l),
(1935,0,l),
(1936,1103,l),
(1340,1303,l),
(1089,1143,l),
(660,1303,l),
(568,1303,l),
(136,1117,l),
(136,1005,l),
(229,921,l),
(229,0,l),
(492,0,l),
(721,180,l),
(951,0,l),
(1213,0,l),
(1213,861,l),
(951,861,l),
(878,781,ls),
(832,732,o),
(810,687,qs),
(789,644,o),
(789,607,qs),
(789,597,ls),
(789,587,o),
(791,577,qs),
(799,539,o),
(830,518,qs),
(871,489,o),
(952,489,q),
(951,181,l),
(721,360,l),
(492,181,l),
(492,975,l)
);
}
);
width = 1442;
}
);
note = uni1792_17B6;
},
{
glyphname = uni1792_17C5;
layers = (
{
layerId = m01;
shapes = (
{
closed = 1;
nodes = (
(898,587,q),
(884,593,o),
(882,602,qs),
(881,605,l),
(881,626,o),
(899,654,qs),
(917,683,o),
(951,722,q),
(951,582,l),
(916,582,o)
);
},
{
closed = 1;
nodes = (
(1986,1164,qs),
(1985,1536,ls),
(1985,1578,o),
(1978,1612,qs),
(1950,1752,o),
(1808,1752,qs),
(1631,1752,o),
(1631,1630,qs),
(1631,1629,l),
(1678,1629,o),
(1700,1606,qs),
(1715,1591,o),
(1720,1566,qs),
(1723,1552,o),
(1723,1536,qs),
(1724,1174,l),
(1340,1303,l),
(1089,1143,l),
(660,1303,l),
(568,1303,l),
(136,1117,l),
(136,1005,l),
(229,921,l),
(229,0,l),
(492,0,l),
(721,180,l),
(951,0,l),
(1213,0,l),
(1213,861,l),
(951,861,l),
(878,781,ls),
(832,732,o),
(810,687,qs),
(789,644,o),
(789,607,qs),
(789,597,ls),
(789,587,o),
(791,577,qs),
(799,539,o),
(830,518,qs),
(871,489,o),
(952,489,q),
(951,181,l),
(721,360,l),
(492,181,l),
(492,975,l),
(361,1085,l),
(503,1139,l),
(1006,952,l),
(1038,951,l),
(1267,1103,l),
(1672,976,l),
(1672,0,l),
(1935,0,l),
(1935,1037,l),
(1986,1128,o)
);
}
);
width = 1442;
}
);
note = uni1792_17C5;
},
{
glyphname = uni1793_17B6;
layers = (
{
layerId = m01;
shapes = (
{
closed = 1;
nodes = (
(951,908,q),
(950,839,l),
(927,839,o),
(916,850,qs),
(908,858,o),
(905,870,qs),
(904,877,o),
(904,884,qs),
(904,896,o),
(916,902,qs),
(928,908,o)
);
},
{
closed = 1;
nodes = (
(1673,968,l),
(1672,0,l),
(1935,0,l),
(1936,1103,l),
(1444,1303,l),
(1173,1182,l),
(1085,1303,o),
(792,1303,qs),
(652,1303,ls),
(230,1303,o),
(229,1051,qs),
(229,931,ls),
(229,909,o),
(233,889,qs),
(242,845,o),
(270,810,qs),
(312,758,o),
(630,591,qs),
(952,423,l),
(951,217,ls),
(951,144,o),
(887,144,qs),
(802,144,o),
(596,356,o),
(492,356,q),
(493,543,l),
(230,543,l),
(229,0,l),
(492,0,l),
(493,213,l),
(570,213,o),
(774,0,o),
(887,0,qs),
(1213,0,o),
(1213,217,qs),
(1213,442,l),
(654,734,ls),
(573,777,o),
(532,825,qs),
(502,860,o),
(494,901,qs),
(491,916,o),
(491,931,qs),
(491,1051,ls),
(491,1160,o),
(651,1160,qs),
(791,1160,ls),
(931,1160,o),
(948,1076,qs),
(950,1064,o),
(950,1051,qs),
(950,1001,l),
(880,1001,o),
(845,972,qs),
(810,942,o),
(810,884,qs),
(810,861,o),
(814,842,qs),
(822,803,o),
(845,780,qs),
(880,745,o),
(950,745,qs),
(1080,745,ls),
(1131,745,o),
(1173,768,qs),
(1213,791,o),
(1214,838,qs),
(1213,1059,l),
(1340,1113,l)
);
}
);
width = 1442;
}
);
note = uni1793_17B6;
},
{
glyphname = uni1793_17C5;
layers = (
{
layerId = m01;
shapes = (
{
closed = 1;
nodes = (
(951,908,q),
(950,839,l),
(927,839,o),
(916,850,qs),
(908,858,o),
(905,870,qs),
(904,877,o),
(904,884,qs),
(904,896,o),
(916,902,qs),
(928,908,o)
);
},
{
closed = 1;
nodes = (
(1985,1163,qs),
(1985,1536,ls),
(1985,1578,o),
(1978,1612,qs),
(1950,1752,o),
(1808,1752,qs),
(1630,1752,o),
(1630,1629,q),
(1677,1629,o),
(1700,1606,qs),
(1715,1591,o),
(1720,1566,qs),
(1723,1552,o),
(1723,1536,qs),
(1723,1189,l),
(1444,1303,l),
(1173,1182,l),
(1085,1303,o),
(792,1303,qs),
(652,1303,ls),
(230,1303,o),
(229,1051,qs),
(229,931,ls),
(229,909,o),
(233,889,qs),
(242,845,o),
(270,810,qs),
(312,758,o),
(630,591,qs),
(952,423,l),
(951,217,ls),
(951,144,o),
(887,144,qs),
(802,144,o),
(596,356,o),
(492,356,q),
(493,543,l),
(230,543,l),
(229,0,l),
(492,0,l),
(493,213,l),
(570,213,o),
(774,0,o),
(887,0,qs),
(1213,0,o),
(1213,217,qs),
(1213,442,l),
(654,734,ls),
(573,777,o),
(532,825,qs),
(502,860,o),
(494,901,qs),
(491,916,o),
(491,931,qs),
(491,1051,ls),
(491,1160,o),
(651,1160,qs),
(791,1160,ls),
(931,1160,o),
(948,1076,qs),
(950,1064,o),
(950,1051,qs),
(950,1001,l),
(880,1001,o),
(845,972,qs),
(810,942,o),
(810,884,qs),
(810,861,o),
(814,842,qs),
(822,803,o),
(845,780,qs),
(880,745,o),
(950,745,qs),
(1080,745,ls),
(1131,745,o),
(1173,768,qs),
(1213,791,o),
(1214,838,qs),
(1213,1059,l),
(1340,1113,l),
(1673,968,l),
(1672,0,l),
(1935,0,l),
(1935,1037,l),
(1985,1126,o)
);
}
);
width = 1442;
}
);
note = uni1793_17C5;
},
